<svg width="945" height="822" viewBox="0 0 945 822" fill="none" xmlns="http://www.w3.org/2000/svg">
<path d="M808.675 60.1965C813.328 41.218 808.904 19.0845 793.871 6.60107C793.577 27.8489 785.777 48.308 771.851 64.3584C766.458 70.529 759.816 76.8305 759.555 85.0216C759.392 90.1183 761.88 95.0136 765.309 98.7883C768.737 102.563 773.062 105.388 777.336 108.17L777.964 109.277C791.721 95.4001 804.022 79.1751 808.675 60.1965Z" fill="#F0F0F0"/>
<path d="M793.569 6.87815C799.334 21.9898 800.192 38.5339 796.019 54.1605C795.181 57.5406 793.815 60.7673 791.971 63.7219C790.083 66.542 787.473 68.805 784.414 70.2756C781.59 71.7042 778.535 72.8383 776.107 74.9286C774.88 76.017 773.897 77.3525 773.222 78.8475C772.547 80.3426 772.196 81.9633 772.192 83.6036C772.074 87.6902 773.433 91.5753 774.893 95.3284C776.514 99.4956 778.264 103.798 777.889 108.361C777.844 108.913 778.704 108.952 778.749 108.4C779.401 100.462 774.01 93.7569 773.155 86.0576C772.756 82.465 773.438 78.7304 776.094 76.111C778.417 73.8205 781.566 72.6483 784.438 71.2266C787.443 69.8357 790.062 67.7301 792.066 65.0937C794.054 62.2425 795.542 59.0738 796.467 55.7233C798.669 48.2134 799.676 40.404 799.452 32.5812C799.247 23.6516 797.515 14.8231 794.332 6.47755C794.134 5.96109 793.373 6.36506 793.569 6.87814V6.87815Z" fill="white"/>
<path d="M797.659 49.2082C800.376 49.5523 803.127 48.9195 805.42 47.4228C807.713 45.926 809.4 43.6628 810.179 41.0373C810.334 40.5055 809.515 40.2385 809.359 40.771C808.639 43.2172 807.067 45.3252 804.929 46.7147C802.791 48.1041 800.226 48.6833 797.698 48.3478C797.149 48.2756 797.113 49.1363 797.659 49.2082Z" fill="white"/>
<path d="M785.942 69.7403C782.473 65.3466 780.787 59.8068 781.221 54.2255C781.265 53.6725 780.404 53.6342 780.361 54.1865C779.92 59.9954 781.686 65.7568 785.306 70.3211C785.651 70.7559 786.285 70.1727 785.942 69.7403Z" fill="white"/>
<path d="M798.209 24.1295C797.13 24.2154 796.047 24.032 795.056 23.5957C794.066 23.1594 793.199 22.4839 792.534 21.6299C792.195 21.1909 791.561 21.7746 791.898 22.2107C792.637 23.1508 793.595 23.8957 794.689 24.3801C795.782 24.8646 796.977 25.0739 798.17 24.9899C798.283 24.9914 798.393 24.9497 798.476 24.8735C798.56 24.7972 798.611 24.692 798.62 24.5792C798.625 24.4652 798.584 24.3541 798.507 24.2699C798.43 24.1857 798.323 24.1352 798.209 24.1295Z" fill="white"/>
<path d="M728.861 18.8872C729.065 19.1673 729.269 19.4475 729.471 19.7345C732.199 23.5148 734.614 27.5105 736.694 31.682C736.86 32.002 737.023 32.3287 737.18 32.6528C742.084 42.7564 745.07 53.6826 745.985 64.8762C746.346 69.3307 746.366 73.8061 746.048 78.2637C745.607 84.4199 744.639 91.0598 746.212 96.832C746.369 97.4361 746.564 98.0298 746.795 98.6098L776.564 109.957C776.644 109.949 776.723 109.947 776.804 109.939L777.971 110.447C778.004 110.218 778.033 109.98 778.065 109.751C778.085 109.619 778.097 109.484 778.117 109.351C778.128 109.262 778.138 109.172 778.153 109.093C778.157 109.063 778.16 109.033 778.161 109.01C778.176 108.93 778.182 108.854 778.194 108.781C778.358 107.452 778.514 106.119 778.66 104.782C778.663 104.775 778.663 104.775 778.659 104.766C779.873 94.5921 779.875 84.3103 778.666 74.1359C778.626 73.8328 778.589 73.523 778.535 73.2147C777.909 68.6764 776.914 64.1968 775.558 59.8207C774.808 57.4268 773.937 55.0725 772.949 52.7667C770.385 46.8138 766.9 41.3013 762.623 36.4313C754.095 26.7242 742.557 19.8527 729.834 18.9468C729.508 18.9239 729.189 18.9033 728.861 18.8872Z" fill="#F0F0F0"/>
<path d="M728.784 19.2906C742.486 27.8852 753.131 40.5786 759.208 55.5677C760.573 58.7713 761.425 62.1701 761.732 65.639C761.922 69.0279 761.201 72.4057 759.644 75.4217C758.249 78.2629 756.493 81.0076 755.812 84.1385C755.488 85.7464 755.507 87.4046 755.869 89.0045C756.23 90.6045 756.925 92.1099 757.909 93.4222C760.276 96.7558 763.7 99.0401 767.125 101.158C770.929 103.509 774.916 105.891 777.364 109.759C777.661 110.228 778.37 109.74 778.074 109.272C773.816 102.542 765.474 100.434 760.156 94.8014C757.675 92.1731 755.97 88.7811 756.514 85.0904C756.99 81.8631 758.798 79.0312 760.236 76.1666C761.798 73.2467 762.621 69.9888 762.634 66.6774C762.504 63.204 761.785 59.7781 760.506 56.5462C757.742 49.2242 753.845 42.3822 748.957 36.2708C743.416 29.2651 736.718 23.2587 729.152 18.5117C728.683 18.2181 728.319 18.999 728.784 19.2907V19.2906Z" fill="white"/>
<path d="M757.535 50.6261C759.911 49.2651 761.727 47.1037 762.656 44.5279C763.586 41.9521 763.57 39.1296 762.611 36.5644C762.416 36.0461 761.601 36.326 761.797 36.8451C762.694 39.2321 762.709 41.8613 761.838 44.2581C760.967 46.6549 759.268 48.6615 757.048 49.9157C756.566 50.1888 757.055 50.8977 757.535 50.6261Z" fill="white"/>
<path d="M760.541 74.074C755.126 72.6546 750.445 69.2462 747.431 64.5286C747.133 64.0609 746.423 64.5484 746.72 65.0154C749.866 69.9189 754.745 73.4559 760.383 74.9206C760.921 75.0599 761.076 74.2125 760.541 74.074Z" fill="white"/>
<path d="M742.876 30.2708C742.066 30.989 741.09 31.4949 740.037 31.7429C738.983 31.9909 737.884 31.9734 736.839 31.6918C736.304 31.5458 736.149 32.3934 736.681 32.5384C737.837 32.8441 739.051 32.862 740.215 32.5906C741.38 32.3191 742.461 31.7666 743.362 30.9813C743.454 30.9144 743.516 30.8152 743.537 30.7041C743.557 30.5929 743.535 30.4779 743.474 30.3826C743.409 30.2889 743.31 30.2246 743.198 30.2036C743.086 30.1827 742.97 30.2069 742.876 30.2709V30.2708Z" fill="white"/>
<path d="M563.033 123.377C577.945 123.377 590.033 111.289 590.033 96.377C590.033 81.4653 577.945 69.377 563.033 69.377C548.122 69.377 536.033 81.4653 536.033 96.377C536.033 111.289 548.122 123.377 563.033 123.377Z" fill="#00B0FF"/>
<path d="M521.883 35.9331C522.74 35.9331 523.436 35.2378 523.436 34.3801C523.436 33.5224 522.74 32.8271 521.883 32.8271C521.025 32.8271 520.33 33.5224 520.33 34.3801C520.33 35.2378 521.025 35.9331 521.883 35.9331Z" fill="white"/>
<path d="M364.415 125.145C361.841 122.394 360.328 118.818 360.148 115.054C359.968 111.291 361.131 107.586 363.43 104.601C363.897 103.999 364.855 104.697 364.387 105.3C362.241 108.075 361.158 111.527 361.333 115.031C361.508 118.535 362.93 121.861 365.342 124.408C365.866 124.963 364.935 125.697 364.415 125.145H364.415Z" fill="white"/>
<path d="M350.972 154.761C358.667 155.086 366.202 152.499 372.074 147.515C372.655 147.021 373.392 147.949 372.811 148.443C366.69 153.618 358.844 156.294 350.837 155.938C350.074 155.904 350.213 154.727 350.972 154.761Z" fill="white"/>
<path d="M391.929 104.313C392.703 105.585 393.781 106.645 395.066 107.397C396.351 108.15 397.802 108.572 399.29 108.624C400.054 108.649 399.914 109.826 399.156 109.801C397.512 109.736 395.909 109.268 394.487 108.44C393.066 107.611 391.869 106.448 391.001 105.05C390.908 104.925 390.866 104.77 390.884 104.615C390.902 104.46 390.977 104.318 391.096 104.218C391.219 104.121 391.376 104.076 391.532 104.094C391.688 104.112 391.83 104.191 391.929 104.313Z" fill="white"/>
<path d="M901.716 505.048C901.63 503.969 901.814 502.885 902.25 501.895C902.686 500.904 903.362 500.038 904.216 499.373C904.655 499.033 904.071 498.399 903.635 498.737C902.695 499.476 901.95 500.434 901.466 501.527C900.981 502.62 900.772 503.816 900.856 505.009C900.855 505.122 900.896 505.231 900.972 505.315C901.049 505.398 901.154 505.45 901.267 505.458C901.381 505.463 901.492 505.422 901.576 505.345C901.66 505.269 901.711 505.162 901.716 505.048Z" fill="white"/>
<path d="M895.575 449.714C894.857 448.904 894.351 447.929 894.103 446.875C893.855 445.822 893.873 444.723 894.154 443.678C894.3 443.142 893.453 442.988 893.308 443.52C893.002 444.676 892.984 445.889 893.256 447.054C893.527 448.218 894.08 449.299 894.865 450.201C894.932 450.292 895.031 450.354 895.142 450.375C895.253 450.396 895.368 450.373 895.464 450.313C895.557 450.248 895.622 450.148 895.643 450.036C895.663 449.924 895.639 449.808 895.575 449.714Z" fill="white"/>
<path d="M9.95581 725.487L52.7818 801.133L47.4708 803.277C45.6778 804 43.6188 804.093 41.7458 803.534C39.8728 802.976 38.3388 801.812 37.4828 800.299L1.11581 736.064C0.259813 734.551 0.14979 732.813 0.81079 731.231C1.47279 729.649 2.8518 728.355 4.6438 727.631L9.95581 725.487Z" fill="#71C8EA"/>
<path d="M56.5804 708.405L27.0244 718.721L43.6054 738.52L69.8074 731.769L56.5804 708.405Z" fill="#FFCCB3"/>
<path d="M37.7014 719.512C37.7014 719.512 49.2404 734.561 50.9814 742.969C52.7214 751.378 58.6834 793.911 57.0794 797.745C55.9264 800.501 51.7384 801.683 49.0814 801.934C48.4984 801.986 47.9104 801.884 47.3994 801.641C46.8884 801.399 46.4784 801.028 46.2284 800.581L7.3534 731.915C6.7034 730.769 6.61242 729.454 7.09842 728.252C7.58542 727.05 8.61042 726.058 9.95542 725.488C15.3334 723.206 23.5604 719.787 27.0244 718.723C32.3784 717.077 35.9124 717.087 37.7014 719.512Z" fill="#5661AE"/>
<path d="M59.0049 705.753L60.4899 710.111L94.4099 732.465L126.273 725.901C126.273 725.901 64.8059 701.202 59.0049 705.753Z" fill="#5CA4E6"/>
<path d="M33.082 688.605C51.352 688.605 66.163 676.099 66.163 660.673C66.163 645.246 51.352 632.74 33.082 632.74C14.811 632.74 0 645.246 0 660.673C0 676.099 14.811 688.605 33.082 688.605Z" fill="#D1E8F7"/>
<path d="M106.784 545.442L107.386 637.513L75.248 607.269L90.7971 542.578L106.784 545.442Z" fill="#465393"/>
<path d="M78.9846 525.632C91.9546 515.644 95.7846 521.773 99.5336 522.562C99.5336 522.562 112.03 526.314 109.288 535.373C106.39 544.962 75.2476 607.268 75.2476 607.268L36.6826 597.636L39.5206 590.725L46.8626 572.828L54.7046 553.691L55.5146 551.397L65.0386 526.114C65.0386 526.114 72.2256 530.989 78.9846 525.632Z" fill="#5661AE"/>
<path d="M104.671 542.918C112.842 534.86 111.728 522.734 102.184 515.836C92.6401 508.937 78.2791 509.877 70.1091 517.936C61.9381 525.994 63.0511 538.12 72.5961 545.018C82.1401 551.917 96.5001 550.976 104.671 542.918Z" fill="#5661AE"/>
<path d="M55.9334 619.714C67.0664 619.714 76.0914 612.094 76.0914 602.695C76.0914 593.295 67.0664 585.675 55.9334 585.675C44.8014 585.675 35.7764 593.295 35.7764 602.695C35.7764 612.094 44.8014 619.714 55.9334 619.714Z" fill="#5661AE"/>
<path d="M689.5 447.586C589.696 447.586 508.5 366.39 508.5 266.586C508.5 166.783 589.696 85.5864 689.5 85.5864C700.051 85.5851 710.583 86.4977 720.977 88.314C721.107 88.3363 721.23 88.3841 721.342 88.4544C721.453 88.5247 721.549 88.6163 721.625 88.7239C721.7 88.8314 721.754 88.9529 721.783 89.0812C721.811 89.2096 721.815 89.3423 721.792 89.4719C721.769 89.6014 721.721 89.7252 721.65 89.8362C721.58 89.9472 721.488 90.0431 721.38 90.1185C721.272 90.1939 721.151 90.2473 721.022 90.2757C720.894 90.304 720.761 90.3067 720.632 90.2837C710.352 88.4878 699.936 87.5853 689.5 87.5864C590.799 87.5864 510.5 167.885 510.5 266.586C510.5 365.288 590.799 445.586 689.5 445.586C788.201 445.586 868.5 365.288 868.5 266.586C868.544 221.975 851.886 178.962 821.805 146.018C821.628 145.821 821.536 145.563 821.549 145.299C821.562 145.035 821.679 144.787 821.874 144.609C822.069 144.431 822.327 144.337 822.591 144.349C822.855 144.36 823.104 144.476 823.283 144.67C853.7 177.983 870.545 221.476 870.5 266.586C870.5 366.39 789.304 447.586 689.5 447.586Z" fill="#E4E4E4"/>
<path d="M684.843 238.498L629.62 84.8667L631.02 84.3633L620.864 56.1065L619.463 56.6104L602.507 9.44093C601.874 7.6792 600.9 6.05944 599.641 4.67414C598.382 3.28885 596.862 2.16514 595.168 1.36718C593.475 0.569223 591.641 0.112631 589.771 0.0234935C587.901 -0.0656444 586.032 0.214412 584.27 0.847667L484.437 36.7329C482.676 37.3661 481.056 38.3401 479.671 39.5993C478.285 40.8585 477.161 42.3783 476.363 44.0717C475.565 45.7652 475.109 47.5993 475.02 49.4693C474.93 51.3393 475.21 53.2085 475.844 54.9702L487.666 87.8596L485.453 88.7117L493 108.309L494.771 107.627L496.338 111.986L494.453 112.712L502 132.309L503.444 131.753L558.18 284.027C558.81 285.791 559.782 287.413 561.041 288.8C562.299 290.187 563.82 291.312 565.514 292.111C567.208 292.909 569.044 293.365 570.915 293.453C572.786 293.54 574.656 293.257 576.417 292.621L676.249 256.735C679.805 255.453 682.706 252.812 684.317 249.393C685.928 245.974 686.117 242.056 684.843 238.498Z" fill="#3F3D56"/>
<path d="M571.167 287.557C569.761 287.554 568.391 287.118 567.241 286.309C566.092 285.499 565.219 284.355 564.743 283.033L481.538 51.5588C480.926 49.8539 481.015 47.9755 481.787 46.3367C482.56 44.6979 483.951 43.4329 485.656 42.82L506.897 35.1847L506.865 35.9279C506.811 37.218 507.074 38.5017 507.633 39.6659C508.191 40.8301 509.028 41.8391 510.068 42.604C511.108 43.3688 512.321 43.8661 513.598 44.0521C514.876 44.238 516.18 44.1068 517.395 43.6701L564.536 26.7253C565.674 26.204 566.673 25.4221 567.452 24.4429C568.232 23.4638 568.77 22.3148 569.024 21.0891C569.274 19.8838 569.236 18.6363 568.913 17.4484C568.589 16.2606 567.99 15.166 567.163 14.2541L566.665 13.7009L588.606 5.81367C590.311 5.20338 592.189 5.29418 593.827 6.06617C595.465 6.83816 596.731 8.22832 597.345 9.93181L676.73 230.778C678.35 235.302 678.109 240.284 676.061 244.631C674.013 248.978 670.324 252.335 665.803 253.966L573.482 287.151C572.74 287.419 571.956 287.556 571.167 287.557Z" fill="white"/>
<path d="M629.939 135.642L536.437 169.252C536.145 169.357 535.835 169.405 535.524 169.39C535.214 169.376 534.91 169.301 534.629 169.169C534.347 169.037 534.095 168.85 533.886 168.621C533.677 168.391 533.515 168.122 533.41 167.83C533.305 167.538 533.259 167.227 533.274 166.917C533.289 166.607 533.365 166.303 533.497 166.022C533.63 165.741 533.817 165.489 534.047 165.281C534.277 165.072 534.546 164.911 534.839 164.807L628.341 131.197C628.93 130.987 629.578 131.019 630.144 131.286C630.709 131.553 631.145 132.034 631.357 132.622C631.568 133.211 631.538 133.859 631.272 134.425C631.006 134.991 630.527 135.429 629.939 135.642Z" fill="#E6E6E6"/>
<path d="M602.172 156.952L571.417 168.007C571.125 168.113 570.815 168.16 570.504 168.145C570.194 168.131 569.89 168.055 569.609 167.923C569.328 167.791 569.075 167.605 568.866 167.375C568.657 167.146 568.496 166.877 568.391 166.585C568.286 166.293 568.239 165.982 568.254 165.672C568.269 165.362 568.345 165.058 568.478 164.777C568.61 164.496 568.797 164.244 569.027 164.036C569.257 163.827 569.526 163.666 569.819 163.562L600.574 152.506C601.164 152.295 601.813 152.325 602.38 152.592C602.947 152.859 603.384 153.341 603.596 153.93C603.808 154.52 603.777 155.169 603.51 155.736C603.243 156.302 602.762 156.74 602.172 156.952Z" fill="#E6E6E6"/>
<path d="M609.487 177.303L578.732 188.358C578.44 188.463 578.13 188.509 577.82 188.495C577.51 188.48 577.207 188.404 576.926 188.272C576.645 188.14 576.394 187.954 576.185 187.724C575.976 187.495 575.815 187.226 575.71 186.934C575.605 186.642 575.559 186.333 575.573 186.023C575.588 185.713 575.664 185.409 575.796 185.129C575.928 184.848 576.114 184.596 576.344 184.388C576.573 184.179 576.842 184.018 577.134 183.913L607.889 172.857C608.479 172.646 609.128 172.677 609.695 172.944C610.261 173.211 610.699 173.692 610.911 174.281C611.123 174.871 611.092 175.52 610.825 176.087C610.558 176.653 610.077 177.091 609.487 177.303V177.303Z" fill="#E6E6E6"/>
<path d="M613.234 187.726L582.478 198.781C582.186 198.887 581.876 198.934 581.566 198.92C581.256 198.906 580.951 198.831 580.67 198.699C580.389 198.567 580.136 198.38 579.927 198.151C579.718 197.921 579.556 197.652 579.451 197.36C579.346 197.068 579.3 196.757 579.315 196.447C579.33 196.137 579.406 195.832 579.539 195.552C579.671 195.271 579.858 195.019 580.089 194.81C580.319 194.602 580.588 194.441 580.881 194.336L611.636 183.281C611.928 183.175 612.238 183.128 612.548 183.143C612.859 183.157 613.163 183.232 613.444 183.364C613.725 183.496 613.978 183.683 614.187 183.912C614.396 184.142 614.557 184.411 614.663 184.703C614.768 184.995 614.814 185.305 614.799 185.616C614.784 185.926 614.708 186.23 614.575 186.511C614.443 186.792 614.256 187.044 614.026 187.252C613.795 187.461 613.526 187.622 613.234 187.726L613.234 187.726Z" fill="#E6E6E6"/>
<path d="M623.027 160.784L557.774 184.24C557.482 184.346 557.172 184.393 556.862 184.378C556.551 184.364 556.247 184.289 555.966 184.157C555.685 184.025 555.432 183.838 555.223 183.609C555.014 183.379 554.853 183.11 554.748 182.818C554.643 182.526 554.596 182.216 554.611 181.905C554.626 181.595 554.702 181.291 554.835 181.01C554.968 180.729 555.154 180.477 555.385 180.269C555.615 180.06 555.884 179.899 556.176 179.795L621.429 156.339C621.721 156.234 622.031 156.186 622.342 156.201C622.652 156.215 622.956 156.29 623.237 156.422C623.518 156.554 623.771 156.741 623.98 156.97C624.189 157.2 624.351 157.469 624.456 157.761C624.561 158.053 624.607 158.364 624.592 158.674C624.577 158.984 624.501 159.288 624.368 159.569C624.236 159.85 624.049 160.102 623.819 160.31C623.589 160.519 623.32 160.68 623.027 160.784Z" fill="#E6E6E6"/>
<path d="M609.883 213.029L598.716 217.043C597.714 217.403 596.61 217.35 595.647 216.896C594.684 216.441 593.941 215.624 593.581 214.622C593.221 213.62 593.273 212.516 593.727 211.553C594.18 210.589 594.998 209.846 595.999 209.485L607.166 205.471C608.168 205.111 609.272 205.164 610.235 205.619C611.198 206.073 611.941 206.891 612.302 207.892C612.662 208.894 612.609 209.998 612.156 210.961C611.702 211.925 610.885 212.669 609.883 213.029Z" fill="#00B0FF"/>
<path d="M343.283 121.724C360.689 101.235 388.93 88.3234 414.967 95.0176C391.517 112.476 374.997 137.666 368.332 166.131C365.801 177.118 364.131 189.602 355.21 196.497C349.66 200.788 342.196 201.961 335.224 201.182C328.252 200.404 321.616 197.859 315.069 195.338L313.329 195.531C317.707 169.006 325.878 142.212 343.283 121.724Z" fill="#F0F0F0"/>
<path d="M414.901 95.578C393.406 101.334 374.272 113.716 360.215 130.967C357.123 134.626 354.627 138.751 352.82 143.188C351.199 147.567 350.78 152.3 351.606 156.896C352.291 161.197 353.49 165.516 353.117 169.909C352.893 172.154 352.197 174.327 351.074 176.284C349.951 178.242 348.428 179.94 346.603 181.267C342.141 184.693 336.715 186.311 331.354 187.709C325.402 189.261 319.194 190.779 314.41 194.875C313.83 195.372 313.094 194.443 313.673 193.948C321.997 186.821 333.818 187.426 343.09 182.171C347.417 179.72 351.031 175.949 351.809 170.876C352.49 166.44 351.258 161.985 350.527 157.636C349.655 153.165 349.891 148.547 351.214 144.188C352.79 139.673 355.123 135.46 358.112 131.728C364.709 123.218 372.603 115.799 381.504 109.742C391.625 102.772 402.863 97.5849 414.733 94.4049C415.467 94.2084 415.631 95.3827 414.901 95.578H414.901Z" fill="white"/>
<path d="M453.683 177.396C453.206 177.394 452.729 177.392 452.246 177.398C445.833 177.406 439.431 177.934 433.103 178.979C432.613 179.052 432.117 179.133 431.63 179.22C416.412 181.899 401.825 187.379 388.608 195.383C383.352 198.573 378.346 202.158 373.633 206.107C367.126 211.561 360.504 217.993 352.801 220.894C352.001 221.205 351.182 221.467 350.349 221.678L313.699 197.639C313.643 197.543 313.582 197.455 313.525 197.358L312.018 196.465C312.247 196.244 312.489 196.02 312.718 195.8C312.85 195.671 312.99 195.548 313.122 195.419C313.213 195.335 313.304 195.252 313.381 195.171C313.412 195.143 313.442 195.115 313.467 195.095C313.544 195.014 313.624 194.947 313.695 194.874C315.045 193.619 316.406 192.371 317.778 191.13C317.783 191.122 317.783 191.122 317.797 191.119C328.274 181.69 339.631 173.054 351.937 166.416C352.308 166.216 352.683 166.008 353.07 165.82C358.634 162.858 364.43 160.357 370.402 158.34C373.675 157.246 377.001 156.318 380.368 155.561C389.072 153.62 398.027 153.06 406.905 153.902C424.602 155.584 441.564 162.906 452.832 176.36C453.12 176.704 453.4 177.043 453.683 177.396Z" fill="#F0F0F0"/>
<path d="M453.295 177.807C432.667 169.461 409.934 167.828 388.325 173.138C383.653 174.199 379.177 175.989 375.062 178.443C371.131 180.964 367.947 184.491 365.84 188.658C363.798 192.504 362.154 196.675 359.212 199.957C357.681 201.615 355.817 202.931 353.742 203.818C351.667 204.705 349.428 205.143 347.172 205.104C341.548 205.154 336.241 203.179 331.119 201.067C325.431 198.723 319.561 196.198 313.275 196.588C312.513 196.635 312.485 195.451 313.245 195.403C324.181 194.725 333.256 202.324 343.823 203.712C348.754 204.359 353.909 203.525 357.585 199.943C360.8 196.811 362.499 192.511 364.533 188.599C366.529 184.504 369.497 180.959 373.178 178.275C377.155 175.62 381.554 173.66 386.188 172.48C396.578 169.657 407.348 168.486 418.102 169.008C430.379 169.537 442.475 172.161 453.867 176.769C454.572 177.054 453.995 178.09 453.295 177.807L453.295 177.807Z" fill="white"/>
<path d="M395.183 171.019C394.784 167.272 395.73 163.506 397.851 160.393C399.973 157.279 403.133 155.022 406.765 154.022C407.501 153.823 407.846 154.957 407.109 155.157C403.725 156.081 400.782 158.184 398.812 161.087C396.842 163.991 395.975 167.502 396.367 170.989C396.451 171.747 395.266 171.772 395.183 171.019V171.019Z" fill="white"/>
<path d="M366.619 186.572C372.567 191.464 380.141 193.935 387.83 193.491C388.592 193.447 388.621 194.631 387.86 194.676C379.858 195.123 371.982 192.535 365.803 187.431C365.214 186.944 366.034 186.088 366.619 186.572H366.619Z" fill="white"/>
<path d="M429.693 170.95C429.546 172.432 429.768 173.927 430.341 175.302C430.914 176.676 431.819 177.887 432.976 178.825C433.57 179.304 432.75 180.16 432.159 179.684C430.886 178.641 429.888 177.303 429.252 175.786C428.616 174.269 428.36 172.619 428.509 170.98C428.51 170.825 428.57 170.675 428.677 170.563C428.785 170.45 428.931 170.382 429.086 170.373C429.243 170.37 429.395 170.429 429.508 170.537C429.622 170.645 429.689 170.794 429.693 170.95Z" fill="white"/>
<path d="M865.649 515.514C884.628 520.167 906.761 515.743 919.245 500.71C897.997 500.416 877.538 492.616 861.488 478.69C855.317 473.296 849.015 466.655 840.824 466.394C835.728 466.231 830.832 468.719 827.058 472.147C823.283 475.576 820.458 479.901 817.676 484.175L816.569 484.802C830.446 498.56 846.671 510.861 865.649 515.514Z" fill="#F0F0F0"/>
<path d="M918.968 500.407C903.856 506.173 887.312 507.03 871.685 502.858C868.305 502.019 865.078 500.653 862.124 498.81C859.304 496.921 857.041 494.312 855.57 491.253C854.142 488.428 853.007 485.373 850.917 482.945C849.829 481.718 848.493 480.735 846.998 480.06C845.503 479.385 843.882 479.034 842.242 479.03C838.155 478.913 834.27 480.271 830.517 481.731C826.35 483.352 822.047 485.102 817.485 484.727C816.932 484.682 816.894 485.542 817.446 485.588C825.384 486.24 832.089 480.849 839.788 479.994C843.381 479.595 847.115 480.276 849.735 482.932C852.025 485.255 853.197 488.404 854.619 491.277C856.01 494.282 858.116 496.901 860.752 498.904C863.603 500.892 866.772 502.38 870.122 503.305C877.632 505.507 885.442 506.515 893.264 506.291C902.194 506.085 911.023 504.353 919.368 501.17C919.885 500.973 919.481 500.211 918.967 500.407H918.968Z" fill="white"/>
<path d="M876.638 504.497C876.294 507.214 876.927 509.965 878.423 512.258C879.92 514.552 882.183 516.238 884.809 517.017C885.341 517.173 885.608 516.354 885.075 516.198C882.629 515.477 880.521 513.906 879.132 511.767C877.742 509.629 877.163 507.064 877.498 504.536C877.571 503.987 876.71 503.951 876.638 504.497V504.497Z" fill="white"/>
<path d="M856.106 492.78C860.5 489.311 866.039 487.626 871.621 488.06C872.174 488.103 872.212 487.243 871.66 487.199C865.851 486.758 860.089 488.524 855.525 492.144C855.09 492.49 855.673 493.124 856.106 492.78H856.106Z" fill="white"/>
<path d="M906.959 435.7C906.679 435.904 906.399 436.108 906.112 436.31C902.331 439.037 898.336 441.453 894.164 443.533C893.844 443.699 893.517 443.862 893.193 444.019C883.09 448.923 872.164 451.909 860.97 452.824C856.516 453.184 852.04 453.205 847.583 452.886C841.426 452.446 834.786 451.478 829.014 453.051C828.41 453.208 827.816 453.403 827.236 453.633L815.889 483.403C815.898 483.483 815.899 483.562 815.907 483.642L815.399 484.81C815.628 484.843 815.866 484.872 816.095 484.904C816.227 484.924 816.363 484.936 816.495 484.956C816.584 484.967 816.674 484.977 816.754 484.992C816.783 484.996 816.813 484.999 816.836 485C816.916 485.015 816.992 485.02 817.065 485.033C818.395 485.197 819.728 485.353 821.064 485.499C821.071 485.502 821.071 485.502 821.08 485.498C831.254 486.711 841.536 486.714 851.71 485.505C852.013 485.465 852.323 485.427 852.632 485.374C857.17 484.748 861.649 483.752 866.026 482.397C868.419 481.647 870.774 480.776 873.08 479.788C879.032 477.224 884.545 473.739 889.415 469.462C899.122 460.934 905.994 449.396 906.899 436.672C906.922 436.347 906.943 436.028 906.959 435.7Z" fill="#F0F0F0"/>
<path d="M906.555 435.623C897.961 449.325 885.267 459.97 870.278 466.047C867.075 467.412 863.676 468.264 860.207 468.571C856.818 468.761 853.44 468.04 850.424 466.483C847.583 465.088 844.838 463.332 841.707 462.651C840.1 462.327 838.441 462.346 836.841 462.707C835.241 463.069 833.736 463.764 832.424 464.748C829.09 467.115 826.806 470.539 824.688 473.964C822.337 477.767 819.955 481.755 816.087 484.203C815.618 484.499 816.106 485.209 816.574 484.913C823.304 480.655 825.412 472.313 831.044 466.995C833.673 464.514 837.065 462.809 840.755 463.353C843.983 463.828 846.815 465.637 849.679 467.075C852.599 468.637 855.857 469.46 859.169 469.473C862.642 469.343 866.068 468.624 869.3 467.345C876.622 464.581 883.464 460.684 889.575 455.795C896.581 450.255 902.587 443.557 907.334 435.991C907.628 435.522 906.847 435.158 906.555 435.623H906.555Z" fill="white"/>
<path d="M875.22 464.374C876.581 466.75 878.742 468.565 881.318 469.495C883.894 470.425 886.717 470.409 889.282 469.45C889.8 469.255 889.52 468.44 889.001 468.636C886.614 469.533 883.985 469.548 881.588 468.677C879.191 467.806 877.185 466.107 875.93 463.887C875.657 463.405 874.949 463.894 875.22 464.374Z" fill="white"/>
<path d="M851.772 467.38C853.192 461.965 856.6 457.284 861.318 454.27C861.785 453.971 861.298 453.261 860.831 453.559C855.927 456.705 852.39 461.584 850.926 467.222C850.786 467.759 851.634 467.915 851.772 467.38Z" fill="white"/>
<path d="M941.697 333.101L912.757 381.801L913.857 382.381L904.057 400.961L902.017 399.881L895.577 410.711L897.177 411.631L886.677 429.811L884.857 428.761L790.427 587.681C787.95 591.84 783.925 594.847 779.234 596.041C774.543 597.235 769.57 596.52 765.407 594.051L589.857 489.741C585.697 487.265 582.69 483.24 581.496 478.549C580.302 473.858 581.018 468.885 583.487 464.721L734.757 210.141C737.233 205.983 741.258 202.976 745.949 201.782C750.64 200.588 755.613 201.303 759.777 203.771L935.327 308.081C939.484 310.559 942.49 314.584 943.684 319.275C944.878 323.965 944.163 328.937 941.697 333.101Z" fill="#3F3D56"/>
<path d="M771.663 584.224L595.495 479.548C594.213 478.784 593.286 477.543 592.918 476.097C592.55 474.652 592.771 473.119 593.531 471.835L745.805 215.562C746.569 214.28 747.81 213.353 749.255 212.985C750.701 212.617 752.234 212.838 753.518 213.598L929.686 318.275C930.968 319.038 931.894 320.279 932.262 321.725C932.63 323.171 932.41 324.704 931.649 325.987L779.376 582.261C778.612 583.543 777.371 584.469 775.925 584.837C774.479 585.205 772.947 584.985 771.663 584.224Z" fill="white"/>
<path d="M844.028 261.886C844.886 261.886 845.581 261.191 845.581 260.333C845.581 259.476 844.886 258.78 844.028 258.78C843.17 258.78 842.475 259.476 842.475 260.333C842.475 261.191 843.17 261.886 844.028 261.886Z" fill="white"/>
<path d="M834.417 445.465L687.361 358.086C686.899 357.814 686.496 357.454 686.174 357.027C685.853 356.599 685.619 356.112 685.486 355.593C685.352 355.075 685.323 354.535 685.399 354.005C685.475 353.475 685.655 352.966 685.928 352.506C686.202 352.045 686.563 351.644 686.992 351.324C687.422 351.004 687.91 350.771 688.429 350.64C688.948 350.509 689.487 350.482 690.017 350.56C690.546 350.638 691.055 350.82 691.514 351.095L838.571 438.474C839.032 438.746 839.435 439.106 839.757 439.533C840.079 439.961 840.313 440.448 840.446 440.967C840.579 441.485 840.608 442.025 840.532 442.555C840.456 443.085 840.277 443.594 840.003 444.054C839.73 444.515 839.368 444.916 838.939 445.236C838.51 445.556 838.022 445.789 837.503 445.92C836.984 446.051 836.444 446.078 835.915 446C835.385 445.922 834.876 445.74 834.417 445.465H834.417Z" fill="#E6E6E6"/>
<path d="M775.698 431.925L727.327 403.184C726.868 402.911 726.467 402.551 726.147 402.123C725.827 401.695 725.595 401.209 725.463 400.691C725.331 400.174 725.303 399.635 725.379 399.107C725.455 398.578 725.635 398.07 725.908 397.611C726.181 397.152 726.541 396.751 726.969 396.431C727.397 396.111 727.883 395.879 728.401 395.747C728.918 395.615 729.457 395.587 729.985 395.663C730.514 395.74 731.022 395.92 731.481 396.192L779.852 424.934C780.311 425.207 780.712 425.567 781.032 425.995C781.352 426.422 781.584 426.909 781.716 427.426C781.848 427.944 781.876 428.482 781.8 429.011C781.723 429.539 781.544 430.047 781.271 430.507C780.998 430.966 780.638 431.366 780.21 431.686C779.782 432.006 779.296 432.238 778.778 432.37C778.261 432.502 777.723 432.53 777.194 432.454C776.666 432.378 776.157 432.198 775.698 431.925Z" fill="#E6E6E6"/>
<path d="M756.68 463.932L708.309 435.191C707.382 434.64 706.712 433.743 706.446 432.698C706.18 431.653 706.341 430.545 706.891 429.619C707.442 428.692 708.339 428.021 709.384 427.755C710.428 427.489 711.536 427.649 712.463 428.2L760.834 456.941C761.293 457.214 761.694 457.574 762.014 458.002C762.334 458.429 762.566 458.916 762.698 459.433C762.83 459.951 762.858 460.489 762.782 461.018C762.705 461.546 762.526 462.054 762.253 462.514C761.98 462.973 761.62 463.373 761.192 463.693C760.764 464.013 760.278 464.245 759.76 464.377C759.243 464.509 758.705 464.537 758.176 464.461C757.648 464.385 757.139 464.205 756.68 463.932Z" fill="#E6E6E6"/>
<path d="M746.94 480.326L698.569 451.584C698.108 451.312 697.706 450.952 697.385 450.524C697.064 450.097 696.831 449.61 696.698 449.092C696.566 448.574 696.537 448.035 696.613 447.505C696.689 446.976 696.869 446.467 697.142 446.007C697.415 445.547 697.776 445.146 698.205 444.826C698.633 444.506 699.12 444.274 699.639 444.143C700.157 444.011 700.697 443.983 701.226 444.061C701.755 444.138 702.263 444.319 702.723 444.594L751.094 473.335C751.555 473.606 751.958 473.966 752.28 474.394C752.602 474.822 752.836 475.309 752.969 475.828C753.102 476.346 753.131 476.886 753.056 477.416C752.98 477.946 752.8 478.455 752.526 478.916C752.253 479.376 751.891 479.778 751.462 480.098C751.033 480.418 750.545 480.65 750.026 480.781C749.507 480.912 748.967 480.939 748.437 480.861C747.908 480.783 747.399 480.601 746.94 480.326V480.326Z" fill="#E6E6E6"/>
<path d="M793.451 463.824L690.824 402.844C689.901 402.291 689.236 401.395 688.972 400.352C688.709 399.309 688.87 398.205 689.419 397.28C689.969 396.355 690.862 395.686 691.904 395.419C692.945 395.151 694.051 395.308 694.978 395.853L797.604 456.833C798.066 457.104 798.469 457.464 798.791 457.892C799.113 458.32 799.347 458.807 799.48 459.325C799.613 459.844 799.642 460.384 799.566 460.914C799.49 461.443 799.311 461.953 799.037 462.413C798.764 462.874 798.402 463.275 797.973 463.595C797.544 463.915 797.056 464.148 796.537 464.279C796.018 464.41 795.478 464.437 794.948 464.359C794.419 464.281 793.91 464.099 793.451 463.824Z" fill="#E6E6E6"/>
<path d="M773.89 541.755L756.327 531.319C754.753 530.381 753.615 528.857 753.164 527.081C752.713 525.305 752.985 523.422 753.921 521.847C754.857 520.272 756.38 519.133 758.156 518.68C759.931 518.226 761.814 518.497 763.39 519.431L780.954 529.867C782.53 530.804 783.67 532.328 784.122 534.105C784.575 535.882 784.303 537.766 783.366 539.343C782.429 540.919 780.905 542.059 779.128 542.511C777.35 542.964 775.467 542.692 773.89 541.755Z" fill="#00B0FF"/>
<path d="M806.659 372.314C826.541 372.314 842.659 356.197 842.659 336.314C842.659 316.432 826.541 300.314 806.659 300.314C786.776 300.314 770.659 316.432 770.659 336.314C770.659 356.197 786.776 372.314 806.659 372.314Z" fill="#00B0FF"/>
<path d="M216.424 482.605H703.605V200.557C703.602 198.444 702.762 196.418 701.267 194.924C699.773 193.429 697.747 192.589 695.634 192.586H224.395C222.282 192.589 220.256 193.429 218.761 194.924C217.267 196.418 216.426 198.444 216.424 200.557V482.605Z" fill="#CACACA"/>
<path d="M688.553 203.611H231.476V463.101H688.553V203.611Z" fill="white"/>
<path d="M216 474.974V509.779C216 511.222 216.284 512.65 216.836 513.983C217.388 515.316 218.198 516.528 219.218 517.548C220.238 518.568 221.45 519.378 222.783 519.93C224.116 520.482 225.544 520.766 226.987 520.766H406.802V589.455H404.413C404.226 589.455 404.04 589.492 403.867 589.563C403.694 589.635 403.536 589.74 403.404 589.873C403.271 590.005 403.166 590.163 403.094 590.336C403.023 590.509 402.986 590.695 402.986 590.882V595.66C402.986 595.847 403.023 596.033 403.094 596.206C403.166 596.379 403.271 596.536 403.404 596.669C403.536 596.801 403.694 596.906 403.867 596.978C404.04 597.05 404.226 597.087 404.413 597.087H516.04C516.227 597.087 516.413 597.05 516.586 596.978C516.759 596.906 516.916 596.801 517.049 596.669C517.182 596.536 517.287 596.379 517.358 596.206C517.43 596.033 517.467 595.847 517.467 595.66V590.882C517.467 590.695 517.43 590.509 517.358 590.336C517.287 590.163 517.182 590.005 517.049 589.873C516.916 589.74 516.759 589.635 516.586 589.563C516.413 589.492 516.227 589.455 516.04 589.455H513.651V520.766H693.466C694.908 520.766 696.337 520.482 697.67 519.93C699.003 519.378 700.215 518.568 701.235 517.548C702.255 516.528 703.064 515.316 703.617 513.983C704.169 512.65 704.453 511.222 704.453 509.779V474.974L216 474.974Z" fill="#3F3D56"/>
<path d="M622.413 290.395H405.959C404.595 290.395 403.286 289.852 402.321 288.888C401.357 287.923 400.814 286.614 400.814 285.25C400.814 283.885 401.357 282.576 402.321 281.611C403.286 280.647 404.595 280.104 405.959 280.104H622.413C623.778 280.104 625.086 280.647 626.051 281.611C627.016 282.576 627.558 283.885 627.558 285.25C627.558 286.614 627.016 287.923 626.051 288.888C625.086 289.852 623.778 290.395 622.413 290.395Z" fill="#E6E6E6"/>
<path d="M549.785 313.62H478.587C477.223 313.62 475.914 313.078 474.949 312.113C473.984 311.148 473.442 309.839 473.442 308.475C473.442 307.11 473.984 305.802 474.949 304.837C475.914 303.872 477.223 303.33 478.587 303.33H549.785C551.15 303.33 552.458 303.872 553.423 304.837C554.388 305.802 554.93 307.11 554.93 308.475C554.93 309.839 554.388 311.148 553.423 312.113C552.458 313.078 551.15 313.62 549.785 313.62Z" fill="#E6E6E6"/>
<path d="M549.785 360.731H478.587C477.223 360.731 475.914 360.189 474.949 359.224C473.984 358.259 473.442 356.95 473.442 355.586C473.442 354.221 473.984 352.912 474.949 351.947C475.914 350.983 477.223 350.44 478.587 350.44H549.785C551.15 350.44 552.458 350.983 553.423 351.947C554.388 352.912 554.93 354.221 554.93 355.586C554.93 356.95 554.388 358.259 553.423 359.224C552.458 360.189 551.15 360.731 549.785 360.731Z" fill="#E6E6E6"/>
<path d="M549.785 384.861H478.587C477.912 384.861 477.243 384.728 476.618 384.47C475.994 384.211 475.427 383.832 474.949 383.354C474.472 382.877 474.093 382.309 473.834 381.685C473.575 381.061 473.442 380.392 473.442 379.716C473.442 379.041 473.575 378.372 473.834 377.747C474.093 377.123 474.472 376.556 474.949 376.078C475.427 375.6 475.994 375.222 476.618 374.963C477.243 374.704 477.912 374.571 478.587 374.571H549.785C550.461 374.571 551.13 374.704 551.754 374.963C552.378 375.222 552.945 375.6 553.423 376.078C553.901 376.556 554.28 377.123 554.538 377.747C554.797 378.372 554.93 379.041 554.93 379.716C554.93 380.392 554.797 381.061 554.538 381.685C554.28 382.309 553.901 382.877 553.423 383.354C552.945 383.832 552.378 384.211 551.754 384.47C551.13 384.728 550.461 384.861 549.785 384.861Z" fill="#E6E6E6"/>
<path d="M589.715 336.845H438.658C437.293 336.845 435.984 336.303 435.02 335.338C434.055 334.373 433.513 333.065 433.513 331.7C433.513 330.336 434.055 329.027 435.02 328.062C435.984 327.097 437.293 326.555 438.658 326.555H589.715C591.08 326.555 592.388 327.097 593.353 328.062C594.318 329.027 594.86 330.336 594.86 331.7C594.86 333.065 594.318 334.373 593.353 335.338C592.388 336.303 591.08 336.845 589.715 336.845Z" fill="#E6E6E6"/>
<path d="M618.81 434.266H592.958C590.638 434.266 588.412 433.344 586.772 431.704C585.131 430.063 584.209 427.837 584.209 425.517C584.209 423.197 585.131 420.971 586.772 419.331C588.412 417.69 590.638 416.768 592.958 416.768H618.81C621.13 416.768 623.355 417.69 624.996 419.331C626.637 420.971 627.559 423.197 627.559 425.517C627.559 427.837 626.637 430.063 624.996 431.704C623.355 433.344 621.13 434.266 618.81 434.266Z" fill="#00B0FF"/>
<path d="M337.895 370.766C362.747 370.766 382.895 350.618 382.895 325.766C382.895 300.913 362.747 280.766 337.895 280.766C313.042 280.766 292.895 300.913 292.895 325.766C292.895 350.618 313.042 370.766 337.895 370.766Z" fill="#00B0FF"/>
<path d="M864.485 598.943H217.191C216.875 598.942 216.574 598.816 216.351 598.593C216.128 598.37 216.003 598.067 216.003 597.752C216.003 597.437 216.128 597.135 216.351 596.911C216.574 596.688 216.875 596.562 217.191 596.562H864.485C864.8 596.562 865.102 596.688 865.324 596.911C865.547 597.135 865.672 597.437 865.672 597.752C865.672 598.067 865.547 598.37 865.324 598.593C865.102 598.816 864.8 598.942 864.485 598.943Z" fill="#CACACA"/>
<path d="M459.802 198.099C460.739 198.099 461.498 197.339 461.498 196.403C461.498 195.466 460.739 194.707 459.802 194.707C458.866 194.707 458.106 195.466 458.106 196.403C458.106 197.339 458.866 198.099 459.802 198.099Z" fill="white"/>
<path d="M246.929 755.511L206.765 818.112C205.819 819.587 204.218 820.684 202.314 821.162C200.41 821.639 198.358 821.459 196.612 820.66L191.435 818.292L238.734 744.57L243.911 746.939C245.658 747.737 246.957 749.089 247.523 750.697C248.089 752.304 247.876 754.036 246.929 755.511Z" fill="#71C8EA"/>
<path d="M193.191 725.522L222.092 737.086L204.347 756.151L178.582 748.291L193.191 725.522Z" fill="#FFCCB3"/>
<path d="M211.38 737.42C211.38 737.42 198.955 751.956 196.713 760.28C194.472 768.603 185.973 810.827 187.345 814.725C188.331 817.527 192.443 818.886 195.082 819.249C195.661 819.327 196.254 819.25 196.779 819.03C197.304 818.809 197.735 818.457 198.012 818.02L240.948 751.101C241.665 749.984 241.835 748.675 241.421 747.454C241.007 746.232 240.042 745.197 238.734 744.571C233.499 742.063 225.486 738.297 222.091 737.086C216.842 735.214 213.312 735.073 211.38 737.42Z" fill="#5661AE"/>
<path d="M280.26 636.348C280.26 636.348 291.324 682.739 282.738 691.829L63.9529 739.13L45.2959 709.623L173.056 660.673L198.643 631.062L280.26 636.348Z" fill="#D1E8F7"/>
<path d="M224.896 669.451L176.623 683.083L154.099 691.057L183.391 713.308L157.203 718.304L85.7715 669.451H224.896Z" fill="#5CA4E6"/>
<path d="M120.411 633.643C120.411 633.643 58.5459 630.809 27.8819 633.085C8.1369 634.55 1.01891 677.213 16.7759 684.974L185.882 758.082L205.81 727.677L96.7209 665.33L174.766 656.061L120.411 633.643Z" fill="#D1E8F7"/>
<path d="M277.242 692.212C295.512 692.212 310.323 679.707 310.323 664.28C310.323 648.854 295.512 636.348 277.242 636.348C258.971 636.348 244.16 648.854 244.16 664.28C244.16 679.707 258.971 692.212 277.242 692.212Z" fill="#D1E8F7"/>
<path d="M186.619 532.473C183.134 517.946 191.33 518.321 194.058 516.01C194.058 516.01 204.29 508.886 212.087 515.527C220.34 522.552 267.649 577.122 267.649 577.122L238.048 600.109L232.484 594.503L218.071 579.99L202.655 564.477L200.74 562.711L179.944 542.823C179.944 542.823 188.59 540.121 186.619 532.473Z" fill="#5661AE"/>
<path d="M203.036 547.061C214.949 543.692 221.371 532.806 217.381 522.748C213.391 512.689 200.5 507.266 188.586 510.635C176.673 514.004 170.25 524.89 174.24 534.949C178.231 545.007 191.123 550.43 203.036 547.061Z" fill="#5661AE"/>
<path d="M201.013 562.634C200.416 559.598 199.222 553.525 197.937 547.99L191.107 521.204C191.107 521.204 209.45 544.094 217.9 560.037C224.159 571.986 231.419 584.163 232.62 594.465L218.208 579.95L202.792 564.438L201.013 562.634Z" fill="#465393"/>
<path d="M297.217 515.685C304.251 504.853 300.871 503.014 303.863 496.85C306.811 490.836 301.577 475.928 306.588 477.961C311.598 479.994 313.149 485.396 313.149 485.396C316.576 480.278 319.732 470.86 327.935 469.782C336.14 468.703 336.866 470.883 341.516 474.105C353.887 482.796 338.112 495.857 335.479 500.831C333.785 503.949 321.338 513.453 319.959 515.531L313.694 523.204L297.217 515.685Z" fill="#FFCCB3"/>
<path d="M321.386 486.067L331.383 470.483L321.386 486.067Z" fill="#E56441"/>
<path d="M321.386 486.067L331.383 470.483" stroke="#E56441" stroke-width="0.94666" stroke-linecap="round"/>
<path d="M327.936 488.591L338.832 474.078L327.936 488.591Z" fill="#E56441"/>
<path d="M327.936 488.591L338.832 474.078" stroke="#E56441" stroke-width="0.94666" stroke-linecap="round"/>
<path d="M335.718 491.382L341.945 482.592L335.718 491.382Z" fill="#E56441"/>
<path d="M335.718 491.382L341.945 482.592" stroke="#E56441" stroke-width="0.94666" stroke-linecap="round"/>
<path d="M318.915 499.786C318.862 494.391 315.027 487.86 315.027 487.86L318.915 499.786Z" fill="#E56441"/>
<path d="M318.915 499.786C318.862 494.391 315.027 487.86 315.027 487.86" stroke="#E56441" stroke-width="0.94666" stroke-linecap="round"/>
<path d="M237.798 576.688L297.991 509.005C298.374 508.608 298.919 508.344 299.519 508.266C300.119 508.186 300.733 508.298 301.241 508.579L317.003 517.379C317.752 517.808 318.285 518.457 318.5 519.198C318.715 519.94 318.595 520.724 318.164 521.395L269.758 596.769L237.798 576.688Z" fill="#5661AE"/>
<path d="M252.423 605.275C263.556 605.275 272.581 597.655 272.581 588.255C272.581 578.856 263.556 571.236 252.423 571.236C241.291 571.236 232.266 578.856 232.266 588.255C232.266 597.655 241.291 605.275 252.423 605.275Z" fill="#5661AE"/>
<path d="M163.036 501.049C163.036 501.049 196.814 508.596 202.613 510.555C208.412 512.513 208.798 520.347 209.185 525.896C209.571 531.444 208.273 656.06 208.273 656.06L133.517 653.633L77.6113 626.001C77.6113 626.001 80.0413 527.124 80.8153 522.554C81.5883 517.985 75.5133 514.049 82.0983 511.749L124.428 502.308L163.036 501.049Z" fill="#5661AE"/>
<path d="M118.915 503.715C118.915 503.715 114.133 511.836 118.915 517.437C123.697 523.038 142.841 528.479 155.92 528.32C168.998 528.159 175.928 517.631 169.999 502.891L148.338 497.752L124.428 502.308L118.915 503.715Z" fill="#465393"/>
<path d="M173.058 433.732C173.058 433.732 182.476 450.892 172.431 454.437C162.386 457.981 163.556 434.565 173.058 433.732Z" fill="#93523E"/>
<path d="M162.434 488.642L165.159 514.583C165.159 514.583 167.771 518.061 157.598 519.887C151.054 521.063 133.431 515.2 130.013 513.442C128.559 512.79 127.42 511.73 126.792 510.446C126.164 509.162 126.085 507.732 126.571 506.405C127.61 503.229 131.915 476.784 131.915 476.784L162.434 488.642Z" fill="#FFCCB3"/>
<path d="M162.959 493.644L146.727 486.873L164.823 511.386L162.959 493.644Z" fill="#FF967C"/>
<path d="M167.649 438.699C167.649 438.699 177.175 458.87 180.63 473.021C184.116 487.297 178.554 490.863 171.214 492.963C165.426 494.619 156.182 495.939 149.893 494.278C138.427 491.246 127.209 482.498 124.526 480.701C120.372 477.919 116.27 465.3 122.359 458.16C128.448 451.021 152.437 428.585 167.649 438.699Z" fill="#FFCCB3"/>
<path d="M155.385 466.541C156.652 466.121 157.062 464.456 156.301 462.823C155.54 461.19 153.897 460.209 152.63 460.629C151.363 461.049 150.953 462.715 151.713 464.347C152.474 465.98 154.118 466.962 155.385 466.541Z" fill="#080B09"/>
<path d="M172.797 460.65C174.064 460.23 174.474 458.565 173.713 456.932C172.953 455.3 171.309 454.317 170.042 454.738C168.775 455.159 168.365 456.824 169.126 458.456C169.886 460.089 171.53 461.071 172.797 460.65Z" fill="#080B09"/>
<path d="M166.411 463.436C166.411 463.436 164.864 467.389 168.116 467.004C171.207 466.545 173.304 467.835 170.604 470.483" fill="#E56441"/>
<path d="M166.411 463.436C166.411 463.436 164.864 467.389 168.116 467.004C171.207 466.545 173.304 467.835 170.604 470.483" stroke="#E56441" stroke-width="0.94666" stroke-linecap="round"/>
<path d="M170.755 473.978L170.771 473.975L170.787 473.971C170.832 473.96 170.88 473.958 170.925 473.967C170.971 473.977 171.013 473.996 171.047 474.024C171.081 474.051 171.106 474.087 171.119 474.125C171.131 474.163 171.132 474.203 171.12 474.242L171.11 474.275L171.106 474.309C170.907 476.039 170.397 477.066 169.778 477.645C169.18 478.203 168.43 478.388 167.579 478.334C166.706 478.278 165.747 477.967 164.818 477.541C163.9 477.119 163.047 476.602 162.388 476.158C162.343 476.122 162.31 476.077 162.292 476.028C162.272 475.976 162.27 475.92 162.286 475.868C162.301 475.815 162.334 475.767 162.379 475.728C162.425 475.69 162.482 475.663 162.545 475.65L162.55 475.649C165.064 475.112 168.856 474.357 170.755 473.978Z" fill="#E56441" stroke="#E56441"/>
<path d="M144.354 459.629L144.592 459.911C144.897 460.348 145.394 460.665 145.975 460.794C146.555 460.922 147.172 460.852 147.692 460.597L156.478 456.026C156.915 455.82 157.243 455.483 157.399 455.082C157.554 454.681 157.526 454.244 157.319 453.86C157.205 453.62 157.033 453.402 156.812 453.222C156.592 453.042 156.328 452.904 156.04 452.816C155.752 452.729 155.444 452.694 155.139 452.714C154.833 452.734 154.536 452.809 154.267 452.933L145.242 457.222C144.993 457.328 144.772 457.474 144.591 457.654C144.411 457.833 144.275 458.042 144.192 458.266C144.11 458.491 144.081 458.727 144.109 458.962C144.136 459.196 144.22 459.423 144.354 459.629Z" fill="#080B09"/>
<path d="M174.708 447.907L164.396 448.714C164.091 448.741 163.796 448.822 163.531 448.953C163.266 449.083 163.037 449.26 162.859 449.47C162.681 449.68 162.558 449.921 162.498 450.174C162.438 450.428 162.442 450.69 162.51 450.943C162.599 451.358 162.869 451.73 163.267 451.985C163.666 452.24 164.163 452.36 164.661 452.321L174.967 451.86C175.565 451.82 176.121 451.581 176.512 451.197C176.903 450.813 177.098 450.313 177.054 449.807L177.061 449.461C177.032 449.227 176.947 449 176.812 448.794C176.677 448.588 176.494 448.407 176.275 448.263C176.055 448.117 175.803 448.011 175.534 447.95C175.265 447.889 174.984 447.874 174.708 447.907Z" fill="#080B09"/>
<path d="M155.826 442.723C155.826 442.723 150.679 450.992 141.341 453.445C132.003 455.897 137.106 468.341 137.106 468.341C137.106 468.341 130.703 462.963 123.342 465.99C115.982 469.018 121.569 480.899 131.738 481.051L128.972 494.42C128.972 494.42 123.822 489.005 118.406 486.107C112.989 483.21 93.531 471.962 102.127 457.148C102.127 457.148 95.402 436.347 113.846 425.563C132.29 414.778 148.254 418.848 148.254 418.848C148.254 418.848 152.651 412.959 162.843 414.162C173.034 415.365 175.385 430.883 172.01 436.495C168.635 442.107 163.135 444.493 155.826 442.723Z" fill="#93523E"/>
<path d="M71.4299 591.965L143.028 651.204C143.445 651.577 143.683 652.067 143.697 652.579C143.711 653.093 143.5 653.592 143.104 653.981L130.709 666.023C130.108 666.594 129.277 666.956 128.377 667.039C127.478 667.121 126.574 666.918 125.842 666.47L43.6709 616.092L71.4299 591.965Z" fill="#5661AE"/>
<path d="M172.418 580.553L133.561 671.448H55.4326C55.4326 668.673 56.7386 666.012 59.0626 664.049C61.3876 662.086 64.5396 660.984 67.8266 660.984H124.35L157.903 580.553H172.418Z" fill="white"/>
<path d="M172.418 580.553H277.242L236.702 671.449H133.561L172.418 580.553Z" fill="url(#paint0_linear_96_5)"/>
<defs>
<linearGradient id="paint0_linear_96_5" x1="201.825" y1="580.337" x2="215.135" y2="774.408" gradientUnits="userSpaceOnUse">
<stop stop-color="white"/>
<stop offset="1" stop-color="#94B9FF"/>
</linearGradient>
</defs>
</svg>
