<svg width="945" height="822" fill="none" xmlns="http://www.w3.org/2000/svg"><path d="M808.675 60.197c4.653-18.979.229-41.113-14.804-53.596a90.033 90.033 0 01-22.02 57.757c-5.393 6.171-12.035 12.472-12.296 20.664-.163 5.096 2.325 9.992 5.754 13.766 3.428 3.775 7.753 6.6 12.027 9.382l.628 1.107c13.757-13.877 26.058-30.102 30.711-49.08z" fill="#F0F0F0"/><path d="M793.569 6.878a76.952 76.952 0 012.45 47.282 33.104 33.104 0 01-4.048 9.562 19.002 19.002 0 01-7.557 6.554c-2.824 1.428-5.879 2.562-8.307 4.653a11.642 11.642 0 00-3.915 8.675c-.118 4.086 1.241 7.971 2.701 11.724 1.621 4.168 3.371 8.47 2.996 13.033-.045.552.815.591.86.039.652-7.938-4.739-14.643-5.594-22.342-.399-3.593.283-7.328 2.939-9.947 2.323-2.29 5.472-3.463 8.344-4.884a20.284 20.284 0 007.628-6.133 30.639 30.639 0 004.401-9.37 74.654 74.654 0 002.985-23.143 78.293 78.293 0 00-5.12-26.103c-.198-.517-.959-.113-.763.4z" fill="#fff"/><path d="M797.659 49.208a11.545 11.545 0 0012.52-8.17c.155-.532-.664-.8-.82-.267a10.69 10.69 0 01-11.661 7.577c-.549-.072-.585.788-.039.86zM785.942 69.74a22.253 22.253 0 01-4.721-15.514c.044-.553-.817-.592-.86-.04a23.145 23.145 0 004.945 16.135c.345.435.979-.148.636-.58zM798.209 24.13a6.536 6.536 0 01-5.675-2.5c-.339-.44-.973.145-.636.58a7.319 7.319 0 006.272 2.78.445.445 0 00.45-.41.43.43 0 00-.411-.45z" fill="#fff"/><path d="M728.861 18.887c.204.28.408.56.61.848a85.978 85.978 0 017.223 11.947c.166.32.329.647.486.97a90.724 90.724 0 018.805 32.224c.361 4.455.381 8.93.063 13.388-.441 6.156-1.409 12.796.164 18.568.157.604.352 1.198.583 1.778l29.769 11.347c.08-.008.159-.01.24-.018l1.167.508c.033-.229.062-.467.094-.696.02-.132.032-.267.052-.4.011-.089.021-.179.036-.258a.998.998 0 00.008-.083c.015-.08.021-.156.033-.229.164-1.329.32-2.662.466-3.999.003-.007.003-.007-.001-.016a129.523 129.523 0 00.007-30.63c-.04-.303-.077-.613-.131-.921a84.058 84.058 0 00-2.977-13.394 74.345 74.345 0 00-2.609-7.054 61.809 61.809 0 00-10.326-16.336c-8.528-9.707-20.066-16.578-32.789-17.484a45.845 45.845 0 00-.973-.06z" fill="#F0F0F0"/><path d="M728.784 19.29a76.952 76.952 0 0130.424 36.278 33.149 33.149 0 012.524 10.071 19.006 19.006 0 01-2.088 9.783c-1.395 2.84-3.151 5.586-3.832 8.716a11.635 11.635 0 002.097 9.284c2.367 3.334 5.791 5.618 9.216 7.736 3.804 2.351 7.791 4.733 10.239 8.601.297.469 1.006-.019.71-.487-4.258-6.73-12.6-8.838-17.918-14.47-2.481-2.629-4.186-6.02-3.642-9.712.476-3.227 2.284-6.059 3.722-8.923a20.286 20.286 0 002.398-9.49c-.13-3.473-.849-6.899-2.128-10.13a74.694 74.694 0 00-11.549-20.276 78.324 78.324 0 00-19.805-17.76c-.469-.293-.833.488-.368.78z" fill="#fff"/><path d="M757.535 50.626a11.542 11.542 0 005.076-14.062c-.195-.518-1.01-.238-.814.281a10.692 10.692 0 01-4.749 13.07c-.482.274.007.983.487.711zM760.541 74.074a22.253 22.253 0 01-13.11-9.545c-.298-.468-1.008.02-.711.486a23.15 23.15 0 0013.663 9.906c.538.139.693-.709.158-.847zM742.876 30.27a6.54 6.54 0 01-6.037 1.422c-.535-.146-.69.701-.158.846a7.323 7.323 0 006.681-1.557.444.444 0 00.112-.598.433.433 0 00-.598-.112z" fill="#fff"/><path d="M563.033 123.377c14.912 0 27-12.088 27-27s-12.088-27-27-27c-14.911 0-27 12.088-27 27s12.089 27 27 27z" fill="#00B0FF"/><path d="M521.883 35.933a1.553 1.553 0 100-3.107 1.553 1.553 0 000 3.107zM364.415 125.145a15.88 15.88 0 01-.985-20.544c.467-.602 1.425.096.957.699a14.709 14.709 0 00.955 19.108c.524.555-.407 1.289-.927.737zM350.972 154.761a30.613 30.613 0 0021.102-7.246c.581-.494 1.318.434.737.928a31.843 31.843 0 01-21.974 7.495c-.763-.034-.624-1.211.135-1.177zM391.929 104.313a8.985 8.985 0 007.361 4.311c.764.025.624 1.202-.134 1.177a10.07 10.07 0 01-8.155-4.751.61.61 0 01.095-.832.595.595 0 01.833.095zM901.716 505.048a6.537 6.537 0 012.5-5.675c.439-.34-.145-.974-.581-.636a7.32 7.32 0 00-2.779 6.272.446.446 0 00.411.449.43.43 0 00.449-.41zM895.575 449.714a6.537 6.537 0 01-1.421-6.036c.146-.536-.701-.69-.846-.158a7.326 7.326 0 001.557 6.681.447.447 0 00.599.112.438.438 0 00.179-.277.436.436 0 00-.068-.322z" fill="#fff"/><path d="M9.956 725.487l42.826 75.646-5.311 2.144a8.765 8.765 0 01-5.725.257c-1.873-.558-3.407-1.722-4.263-3.235L1.116 736.064c-.856-1.513-.966-3.251-.305-4.833.662-1.582 2.04-2.876 3.833-3.6l5.312-2.144z" fill="#71C8EA"/><path d="M56.58 708.405l-29.556 10.316 16.581 19.799 26.202-6.751-13.227-23.364z" fill="#FFCCB3"/><path d="M37.701 719.512s11.54 15.049 13.28 23.457c1.74 8.409 7.702 50.942 6.098 54.776-1.153 2.756-5.34 3.938-7.998 4.189a3.264 3.264 0 01-1.682-.293 2.602 2.602 0 01-1.17-1.06L7.352 731.915c-.65-1.146-.74-2.461-.255-3.663.487-1.202 1.512-2.194 2.857-2.764 5.378-2.282 13.605-5.701 17.07-6.765 5.353-1.646 8.887-1.636 10.676.789z" fill="#5661AE"/><path d="M59.005 705.753l1.485 4.358 33.92 22.354 31.863-6.564s-61.467-24.699-67.268-20.148z" fill="#5CA4E6"/><path d="M33.082 688.605c18.27 0 33.081-12.506 33.081-27.932 0-15.427-14.811-27.933-33.081-27.933C14.811 632.74 0 645.246 0 660.673c0 15.426 14.811 27.932 33.082 27.932z" fill="#D1E8F7"/><path d="M106.784 545.442l.602 92.071-32.138-30.244 15.55-64.691 15.986 2.864z" fill="#465393"/><path d="M78.985 525.632c12.97-9.988 16.8-3.859 20.549-3.07 0 0 12.496 3.752 9.754 12.811-2.898 9.589-34.04 71.895-34.04 71.895l-38.565-9.632 2.838-6.911 7.342-17.897 7.842-19.137.81-2.294 9.524-25.283s7.187 4.875 13.946-.482z" fill="#5661AE"/><path d="M104.671 542.918c8.171-8.058 7.057-20.184-2.487-27.082-9.544-6.899-23.905-5.959-32.075 2.1-8.17 8.058-7.058 20.184 2.487 27.082 9.544 6.899 23.904 5.958 32.075-2.1zM55.933 619.714c11.133 0 20.158-7.62 20.158-17.019 0-9.4-9.025-17.02-20.158-17.02-11.132 0-20.157 7.62-20.157 17.02 0 9.399 9.025 17.019 20.157 17.019z" fill="#5661AE"/><path d="M689.5 447.586c-99.804 0-181-81.196-181-181 0-99.803 81.196-181 181-181a182.732 182.732 0 0131.477 2.728 1.004 1.004 0 01.806.767 1.008 1.008 0 01-.133.755.987.987 0 01-.628.44.998.998 0 01-.39.008 180.79 180.79 0 00-31.132-2.698c-98.701 0-179 80.299-179 179 0 98.702 80.299 179 179 179s179-80.298 179-179a178.548 178.548 0 00-46.695-120.568 1.002 1.002 0 01.786-1.669 1 1 0 01.692.321A180.544 180.544 0 01870.5 266.586c0 99.804-81.196 181-181 181z" fill="#E4E4E4"/><path d="M684.843 238.498L629.62 84.867l1.4-.504-10.156-28.257-1.401.504-16.956-47.17A14.254 14.254 0 00584.27.849l-99.833 35.885a14.256 14.256 0 00-8.593 18.237l11.822 32.89-2.213.852L493 108.309l1.771-.682 1.567 4.359-1.885.726L502 132.309l1.444-.556 54.736 152.274a14.24 14.24 0 0012.735 9.426 14.25 14.25 0 005.502-.832l99.832-35.886a14.269 14.269 0 008.594-18.237z" fill="#3F3D56"/><path d="M571.167 287.557a6.848 6.848 0 01-6.424-4.524L481.538 51.559a6.834 6.834 0 014.118-8.739l21.241-7.635-.032.743a7.874 7.874 0 0010.53 7.742l47.141-16.945a7.98 7.98 0 004.488-5.636 7.815 7.815 0 00-1.861-6.835l-.498-.553 21.941-7.887a6.84 6.84 0 018.739 4.118l79.385 220.846a18.149 18.149 0 01-10.927 23.188l-92.321 33.185a6.843 6.843 0 01-2.315.406z" fill="#fff"/><path d="M629.939 135.642l-93.502 33.61a2.362 2.362 0 11-1.598-4.445l93.502-33.61a2.364 2.364 0 013.016 1.425 2.364 2.364 0 01-1.418 3.02zM602.172 156.952l-30.755 11.055a2.355 2.355 0 01-2.551-.632 2.352 2.352 0 01-.612-1.703 2.358 2.358 0 011.565-2.11l30.755-11.056a2.363 2.363 0 011.598 4.446zM609.487 177.303l-30.755 11.055a2.37 2.37 0 01-2.547-.634 2.352 2.352 0 01-.612-1.701 2.366 2.366 0 011.561-2.11l30.755-11.056a2.367 2.367 0 013.022 1.424 2.362 2.362 0 01-1.424 3.022zM613.234 187.726l-30.756 11.055a2.36 2.36 0 11-1.597-4.445l30.755-11.055a2.355 2.355 0 012.551.631 2.36 2.36 0 01-.953 3.814zM623.027 160.784l-65.253 23.456a2.355 2.355 0 01-3.026-1.422 2.361 2.361 0 011.428-3.023l65.253-23.456a2.362 2.362 0 111.598 4.445z" fill="#E6E6E6"/><path d="M609.883 213.029l-11.167 4.014a4.014 4.014 0 01-4.989-5.49 4.014 4.014 0 012.272-2.068l11.167-4.014a4.02 4.02 0 015.136 2.421 4.019 4.019 0 01-2.419 5.137z" fill="#00B0FF"/><path d="M343.283 121.724c17.406-20.489 45.647-33.4 71.684-26.706a123.864 123.864 0 00-46.635 71.113c-2.531 10.987-4.201 23.471-13.122 30.366-5.55 4.291-13.014 5.464-19.986 4.685-6.972-.778-13.608-3.323-20.155-5.844l-1.74.193c4.378-26.525 12.549-53.319 29.954-73.807z" fill="#F0F0F0"/><path d="M414.901 95.578a105.865 105.865 0 00-54.686 35.389 45.558 45.558 0 00-7.395 12.221 26.158 26.158 0 00-1.214 13.708c.685 4.301 1.884 8.62 1.511 13.013a16.001 16.001 0 01-6.514 11.358c-4.462 3.426-9.888 5.044-15.249 6.442-5.952 1.552-12.16 3.07-16.944 7.166-.58.497-1.316-.432-.737-.927 8.324-7.127 20.145-6.522 29.417-11.777 4.327-2.451 7.941-6.222 8.719-11.295.681-4.436-.551-8.891-1.282-13.24a27.912 27.912 0 01.687-13.448 42.156 42.156 0 016.898-12.46 102.707 102.707 0 0123.392-21.986 107.743 107.743 0 0133.229-15.337c.734-.197.898.978.168 1.173z" fill="#fff"/><path d="M453.683 177.396c-.477-.002-.954-.004-1.437.002-6.413.008-12.815.536-19.143 1.581-.49.073-.986.154-1.473.241a124.832 124.832 0 00-43.022 16.163 121.35 121.35 0 00-14.975 10.724c-6.507 5.454-13.129 11.886-20.832 14.787-.8.311-1.619.573-2.452.784l-36.65-24.039c-.056-.096-.117-.184-.174-.281l-1.507-.893c.229-.221.471-.445.7-.665.132-.129.272-.252.404-.381.091-.084.182-.167.259-.248.031-.028.061-.056.086-.076.077-.081.157-.148.228-.221a406.142 406.142 0 014.083-3.744c.005-.008.005-.008.019-.011 10.477-9.429 21.834-18.065 34.14-24.703.371-.2.746-.408 1.133-.596a115.593 115.593 0 0117.332-7.48 102.052 102.052 0 019.966-2.779 85.034 85.034 0 0126.537-1.659c17.697 1.682 34.659 9.004 45.927 22.458.288.344.568.683.851 1.036z" fill="#F0F0F0"/><path d="M453.295 177.807a105.867 105.867 0 00-64.97-4.669 45.619 45.619 0 00-13.263 5.305 26.156 26.156 0 00-9.222 10.215c-2.042 3.846-3.686 8.017-6.628 11.299a16.013 16.013 0 01-12.04 5.147c-5.624.05-10.931-1.925-16.053-4.037-5.688-2.344-11.558-4.869-17.844-4.479-.762.047-.79-1.137-.03-1.185 10.936-.678 20.011 6.921 30.578 8.309 4.931.647 10.086-.187 13.762-3.769 3.215-3.132 4.914-7.432 6.948-11.344a27.913 27.913 0 018.645-10.324 42.177 42.177 0 0113.01-5.795 102.725 102.725 0 0131.914-3.472 107.746 107.746 0 0135.765 7.761c.705.285.128 1.321-.572 1.038z" fill="#fff"/><path d="M395.183 171.019a15.884 15.884 0 0111.582-16.997c.736-.199 1.081.935.344 1.135a14.71 14.71 0 00-10.742 15.832c.084.758-1.101.783-1.184.03zM366.619 186.572a30.614 30.614 0 0021.211 6.919c.762-.044.791 1.14.03 1.185a31.846 31.846 0 01-22.057-7.245c-.589-.487.231-1.343.816-.859zM429.693 170.95a8.989 8.989 0 003.283 7.875c.594.479-.226 1.335-.817.859a10.075 10.075 0 01-3.65-8.704.61.61 0 01.577-.607.595.595 0 01.607.577z" fill="#fff"/><path d="M865.649 515.514c18.979 4.653 41.112.229 53.596-14.804a90.03 90.03 0 01-57.757-22.02c-6.171-5.394-12.473-12.035-20.664-12.296-5.096-.163-9.992 2.325-13.766 5.753-3.775 3.429-6.6 7.754-9.382 12.028l-1.107.627c13.877 13.758 30.102 26.059 49.08 30.712z" fill="#F0F0F0"/><path d="M918.968 500.407a76.954 76.954 0 01-47.283 2.451 33.151 33.151 0 01-9.561-4.048 19.013 19.013 0 01-6.554-7.557c-1.428-2.825-2.563-5.88-4.653-8.308a11.639 11.639 0 00-8.675-3.915c-4.087-.117-7.972 1.241-11.725 2.701-4.167 1.621-8.47 3.371-13.032 2.996-.553-.045-.591.815-.039.861 7.938.652 14.643-4.739 22.342-5.594 3.593-.399 7.327.282 9.947 2.938 2.29 2.323 3.462 5.472 4.884 8.345a20.278 20.278 0 006.133 7.627 30.64 30.64 0 009.37 4.401 74.658 74.658 0 0023.142 2.986 78.316 78.316 0 0026.104-5.121c.517-.197.113-.959-.401-.763h.001z" fill="#fff"/><path d="M876.638 504.497a11.55 11.55 0 008.171 12.52c.532.156.799-.663.266-.819a10.69 10.69 0 01-7.577-11.662c.073-.549-.788-.585-.86-.039zM856.106 492.78a22.252 22.252 0 0115.515-4.72c.553.043.591-.817.039-.861a23.146 23.146 0 00-16.135 4.945c-.435.346.148.98.581.636z" fill="#fff"/><path d="M906.959 435.7c-.28.204-.56.408-.847.61a86.092 86.092 0 01-11.948 7.223c-.32.166-.647.329-.971.486a90.716 90.716 0 01-32.223 8.805c-4.454.36-8.93.381-13.387.062-6.157-.44-12.797-1.408-18.569.165-.604.157-1.198.352-1.778.582l-11.347 29.77c.009.08.01.159.018.239l-.508 1.168c.229.033.467.062.696.094.132.02.268.032.4.052.089.011.179.021.259.036a.939.939 0 00.082.008c.08.015.156.02.229.033 1.33.164 2.663.32 3.999.466.007.003.007.003.016-.001a129.576 129.576 0 0030.63.007c.303-.04.613-.078.922-.131a84.197 84.197 0 0013.394-2.977 74.456 74.456 0 007.054-2.609 61.821 61.821 0 0016.335-10.326c9.707-8.528 16.579-20.066 17.484-32.79.023-.325.044-.644.06-.972z" fill="#F0F0F0"/><path d="M906.555 435.623a76.95 76.95 0 01-36.277 30.424 33.142 33.142 0 01-10.071 2.524 19.007 19.007 0 01-9.783-2.088c-2.841-1.395-5.586-3.151-8.717-3.832a11.642 11.642 0 00-9.283 2.097c-3.334 2.367-5.618 5.791-7.736 9.216-2.351 3.803-4.733 7.791-8.601 10.239-.469.296.019 1.006.487.71 6.73-4.258 8.838-12.6 14.47-17.918 2.629-2.481 6.021-4.186 9.711-3.642 3.228.475 6.06 2.284 8.924 3.722a20.287 20.287 0 009.49 2.398 30.648 30.648 0 0010.131-2.128 74.663 74.663 0 0020.275-11.55 78.297 78.297 0 0017.759-19.804c.294-.469-.487-.833-.779-.368z" fill="#fff"/><path d="M875.22 464.374a11.545 11.545 0 0014.062 5.076c.518-.195.238-1.01-.281-.814a10.692 10.692 0 01-13.071-4.749c-.273-.482-.981.007-.71.487zM851.772 467.38a22.255 22.255 0 019.546-13.11c.467-.299-.02-1.009-.487-.711a23.144 23.144 0 00-9.905 13.663c-.14.537.708.693.846.158z" fill="#fff"/><path d="M941.697 333.101l-28.94 48.7 1.1.58-9.8 18.58-2.04-1.08-6.44 10.83 1.6.92-10.5 18.18-1.82-1.05-94.43 158.92a18.275 18.275 0 01-25.02 6.37l-175.55-104.31a18.268 18.268 0 01-6.37-25.02l151.27-254.58a18.272 18.272 0 0125.02-6.37l175.55 104.31a18.283 18.283 0 016.37 25.02z" fill="#3F3D56"/><path d="M771.663 584.224L595.495 479.548a5.636 5.636 0 01-1.964-7.713l152.274-256.273a5.637 5.637 0 017.713-1.964l176.168 104.677a5.63 5.63 0 011.963 7.712L779.376 582.261a5.634 5.634 0 01-7.713 1.963zM844.028 261.886a1.553 1.553 0 100-3.105 1.553 1.553 0 000 3.105z" fill="#fff"/><path d="M834.417 445.465l-147.056-87.379a4.078 4.078 0 01-1.187-1.059 4.076 4.076 0 01-.246-4.521 4.063 4.063 0 014.089-1.946c.529.078 1.038.26 1.497.535l147.057 87.379a4.061 4.061 0 011.432 5.58 4.068 4.068 0 01-5.586 1.411zM775.698 431.925l-48.371-28.741a4.07 4.07 0 01-1.948-4.077 4.054 4.054 0 011.59-2.676 4.067 4.067 0 014.512-.239l48.371 28.742a4.07 4.07 0 011.948 4.077 4.067 4.067 0 01-6.102 2.914zM756.68 463.932l-48.371-28.741a4.067 4.067 0 014.154-6.991l48.371 28.741a4.07 4.07 0 011.948 4.077 4.067 4.067 0 01-6.102 2.914zM746.94 480.326l-48.371-28.742a4.055 4.055 0 01-1.871-2.492 4.08 4.08 0 01.444-3.085 4.054 4.054 0 012.497-1.864 4.054 4.054 0 013.084.451l48.371 28.741a4.058 4.058 0 011.875 2.493 4.063 4.063 0 01-2.943 4.953 4.07 4.07 0 01-3.086-.455zM793.451 463.824l-102.627-60.98a4.067 4.067 0 014.154-6.991l102.626 60.98a4.05 4.05 0 011.876 2.492 4.072 4.072 0 01-1.507 4.27 4.068 4.068 0 01-4.522.229z" fill="#E6E6E6"/><path d="M773.89 541.755l-17.563-10.436a6.915 6.915 0 011.829-12.639 6.91 6.91 0 015.234.751l17.564 10.436a6.914 6.914 0 01-7.064 11.888zM806.659 372.314c19.882 0 36-16.117 36-36 0-19.882-16.118-36-36-36-19.883 0-36 16.118-36 36 0 19.883 16.117 36 36 36z" fill="#00B0FF"/><path d="M216.424 482.605h487.181V200.557a7.979 7.979 0 00-7.971-7.971H224.395a7.983 7.983 0 00-7.971 7.971v282.048z" fill="#CACACA"/><path d="M688.553 203.611H231.476v259.49h457.077v-259.49z" fill="#fff"/><path d="M216 474.974v34.805a10.986 10.986 0 0010.987 10.987h179.815v68.689h-2.389a1.422 1.422 0 00-1.319.881 1.44 1.44 0 00-.108.546v4.778a1.432 1.432 0 001.427 1.427H516.04a1.423 1.423 0 001.318-.881c.072-.173.109-.359.109-.546v-4.778a1.423 1.423 0 00-.418-1.009 1.432 1.432 0 00-1.009-.418h-2.389v-68.689h179.815a10.99 10.99 0 0010.151-6.783c.552-1.333.836-2.761.836-4.204v-34.805H216z" fill="#3F3D56"/><path d="M622.413 290.395H405.959a5.15 5.15 0 01-3.638-1.507 5.15 5.15 0 010-7.277 5.15 5.15 0 013.638-1.507h216.454a5.148 5.148 0 015.145 5.146 5.146 5.146 0 01-5.145 5.145zM549.785 313.62h-71.198a5.146 5.146 0 010-10.29h71.198a5.144 5.144 0 110 10.29zM549.785 360.731h-71.198a5.146 5.146 0 010-10.291h71.198a5.148 5.148 0 015.145 5.146 5.146 5.146 0 01-5.145 5.145zM549.785 384.861h-71.198a5.16 5.16 0 01-1.969-.391 5.154 5.154 0 01-2.784-2.785 5.135 5.135 0 010-3.938 5.152 5.152 0 014.753-3.176h71.198a5.135 5.135 0 013.638 1.507 5.136 5.136 0 011.507 3.638 5.135 5.135 0 01-1.507 3.638 5.154 5.154 0 01-1.669 1.116 5.153 5.153 0 01-1.969.391zM589.715 336.845H438.658a5.142 5.142 0 01-5.145-5.145 5.146 5.146 0 015.145-5.145h151.057a5.144 5.144 0 110 10.29z" fill="#E6E6E6"/><path d="M618.81 434.266h-25.852a8.75 8.75 0 010-17.498h25.852a8.748 8.748 0 010 17.498zM337.895 370.766c24.852 0 45-20.148 45-45 0-24.853-20.148-45-45-45-24.853 0-45 20.147-45 45 0 24.852 20.147 45 45 45z" fill="#00B0FF"/><path d="M864.485 598.943H217.191a1.192 1.192 0 01-.84-2.032c.223-.223.524-.349.84-.349h647.294a1.192 1.192 0 010 2.381z" fill="#CACACA"/><path d="M459.802 198.099a1.696 1.696 0 100-3.392 1.696 1.696 0 000 3.392z" fill="#fff"/><path d="M246.929 755.511l-40.164 62.601c-.946 1.475-2.547 2.572-4.451 3.05-1.904.477-3.956.297-5.702-.502l-5.177-2.368 47.299-73.722 5.177 2.369c1.747.798 3.046 2.15 3.612 3.758.566 1.607.353 3.339-.594 4.814z" fill="#71C8EA"/><path d="M193.191 725.522l28.901 11.564-17.745 19.065-25.765-7.86 14.609-22.769z" fill="#FFCCB3"/><path d="M211.38 737.42s-12.425 14.536-14.667 22.86c-2.241 8.323-10.74 50.547-9.368 54.445.986 2.802 5.098 4.161 7.737 4.524a3.283 3.283 0 001.697-.219 2.67 2.67 0 001.233-1.01l42.936-66.919c.717-1.117.887-2.426.473-3.647-.414-1.222-1.379-2.257-2.687-2.883-5.235-2.508-13.248-6.274-16.643-7.485-5.249-1.872-8.779-2.013-10.711.334z" fill="#5661AE"/><path d="M280.26 636.348s11.064 46.391 2.478 55.481L63.953 739.13l-18.657-29.507 127.76-48.95 25.587-29.611 81.617 5.286z" fill="#D1E8F7"/><path d="M224.896 669.451l-48.273 13.632-22.524 7.974 29.292 22.251-26.188 4.996-71.431-48.853h139.124z" fill="#5CA4E6"/><path d="M120.411 633.643s-61.865-2.834-92.53-.558C8.138 634.55 1.02 677.213 16.777 684.974l169.106 73.108 19.928-30.405L96.72 665.33l78.046-9.269-54.355-22.418zM277.242 692.212c18.27 0 33.081-12.505 33.081-27.932 0-15.426-14.811-27.932-33.081-27.932-18.271 0-33.082 12.506-33.082 27.932 0 15.427 14.811 27.932 33.082 27.932z" fill="#D1E8F7"/><path d="M186.619 532.473c-3.485-14.527 4.711-14.152 7.439-16.463 0 0 10.232-7.124 18.029-.483 8.253 7.025 55.562 61.595 55.562 61.595l-29.601 22.987-5.564-5.606-14.413-14.513-15.416-15.513-1.915-1.766-20.796-19.888s8.646-2.702 6.675-10.35z" fill="#5661AE"/><path d="M203.036 547.061c11.913-3.369 18.335-14.255 14.345-24.313-3.99-10.059-16.881-15.482-28.795-12.113-11.913 3.369-18.336 14.255-14.346 24.314 3.991 10.058 16.883 15.481 28.796 12.112z" fill="#5661AE"/><path d="M201.013 562.634c-.597-3.036-1.791-9.109-3.076-14.644l-6.83-26.786s18.343 22.89 26.793 38.833c6.259 11.949 13.519 24.126 14.72 34.428l-14.412-14.515-15.416-15.512-1.779-1.804z" fill="#465393"/><path d="M297.217 515.685c7.034-10.832 3.654-12.671 6.646-18.835 2.948-6.014-2.286-20.922 2.725-18.889 5.01 2.033 6.561 7.435 6.561 7.435 3.427-5.118 6.583-14.536 14.786-15.614 8.205-1.079 8.931 1.101 13.581 4.323 12.371 8.691-3.404 21.752-6.037 26.726-1.694 3.118-14.141 12.622-15.52 14.7l-6.265 7.673-16.477-7.519z" fill="#FFCCB3"/><path d="M321.386 486.067l9.997-15.584-9.997 15.584z" fill="#E56441"/><path d="M321.386 486.067l9.997-15.584" stroke="#E56441" stroke-width=".947" stroke-linecap="round"/><path d="M327.936 488.591l10.896-14.513-10.896 14.513z" fill="#E56441"/><path d="M327.936 488.591l10.896-14.513" stroke="#E56441" stroke-width=".947" stroke-linecap="round"/><path d="M335.718 491.382l6.227-8.79-6.227 8.79z" fill="#E56441"/><path d="M335.718 491.382l6.227-8.79" stroke="#E56441" stroke-width=".947" stroke-linecap="round"/><path d="M318.915 499.786c-.053-5.395-3.888-11.926-3.888-11.926l3.888 11.926z" fill="#E56441"/><path d="M318.915 499.786c-.053-5.395-3.888-11.926-3.888-11.926" stroke="#E56441" stroke-width=".947" stroke-linecap="round"/><path d="M237.798 576.688l60.193-67.683c.383-.397.928-.661 1.528-.739.6-.08 1.214.032 1.722.313l15.762 8.8c.749.429 1.282 1.078 1.497 1.819a2.657 2.657 0 01-.336 2.197l-48.406 75.374-31.96-20.081z" fill="#5661AE"/><path d="M252.423 605.275c11.133 0 20.158-7.62 20.158-17.02 0-9.399-9.025-17.019-20.158-17.019-11.132 0-20.157 7.62-20.157 17.019 0 9.4 9.025 17.02 20.157 17.02zM163.036 501.049s33.778 7.547 39.577 9.506c5.799 1.958 6.185 9.792 6.572 15.341.386 5.548-.912 130.164-.912 130.164l-74.756-2.427-55.906-27.632s2.43-98.877 3.204-103.447c.773-4.569-5.302-8.505 1.283-10.805l42.33-9.441 38.608-1.259z" fill="#5661AE"/><path d="M118.915 503.715s-4.782 8.121 0 13.722c4.782 5.601 23.926 11.042 37.005 10.883 13.078-.161 20.008-10.689 14.079-25.429l-21.661-5.139-23.91 4.556-5.513 1.407z" fill="#465393"/><path d="M173.058 433.732s9.418 17.16-.627 20.705c-10.045 3.544-8.875-19.872.627-20.705z" fill="#93523E"/><path d="M162.434 488.642l2.725 25.941s2.612 3.478-7.561 5.304c-6.544 1.176-24.167-4.687-27.585-6.445-1.454-.652-2.593-1.712-3.221-2.996a5.107 5.107 0 01-.221-4.041c1.039-3.176 5.344-29.621 5.344-29.621l30.519 11.858z" fill="#FFCCB3"/><path d="M162.959 493.644l-16.232-6.771 18.096 24.513-1.864-17.742z" fill="#FF967C"/><path d="M167.649 438.699s9.526 20.171 12.981 34.322c3.486 14.276-2.076 17.842-9.416 19.942-5.788 1.656-15.032 2.976-21.321 1.315-11.466-3.032-22.684-11.78-25.367-13.577-4.154-2.782-8.256-15.401-2.167-22.541 6.089-7.139 30.078-29.575 45.29-19.461z" fill="#FFCCB3"/><path d="M155.385 466.541c1.267-.42 1.677-2.085.916-3.718s-2.404-2.614-3.671-2.194c-1.267.42-1.677 2.086-.917 3.718.761 1.633 2.405 2.615 3.672 2.194zM172.797 460.65c1.267-.42 1.677-2.085.916-3.718-.76-1.632-2.404-2.615-3.671-2.194-1.267.421-1.677 2.086-.916 3.718.76 1.633 2.404 2.615 3.671 2.194z" fill="#080B09"/><path d="M166.411 463.436s-1.547 3.953 1.705 3.568c3.091-.459 5.188.831 2.488 3.479" fill="#E56441"/><path d="M166.411 463.436s-1.547 3.953 1.705 3.568c3.091-.459 5.188.831 2.488 3.479" stroke="#E56441" stroke-width=".947" stroke-linecap="round"/><path d="M170.755 473.978l.016-.003.016-.004a.322.322 0 01.138-.004c.046.01.088.029.122.057a.223.223 0 01.072.101.195.195 0 01.001.117l-.01.033-.004.034c-.199 1.73-.709 2.757-1.328 3.336-.598.558-1.348.743-2.199.689-.873-.056-1.832-.367-2.761-.793a17.669 17.669 0 01-2.43-1.383.301.301 0 01-.096-.13.244.244 0 01-.006-.16.294.294 0 01.093-.14.381.381 0 01.166-.078l.005-.001c2.514-.537 6.306-1.292 8.205-1.671z" fill="#E56441" stroke="#E56441"/><path d="M144.354 459.629l.238.282c.305.437.802.754 1.383.883.58.128 1.197.058 1.717-.197l8.786-4.571c.437-.206.765-.543.921-.944a1.448 1.448 0 00-.08-1.222 1.85 1.85 0 00-.507-.638 2.263 2.263 0 00-.772-.406 2.552 2.552 0 00-.901-.102c-.306.02-.603.095-.872.219l-9.025 4.289c-.249.106-.47.252-.651.432a1.7 1.7 0 00-.399.612 1.504 1.504 0 00.162 1.363zM174.708 447.907l-10.312.807c-.305.027-.6.108-.865.239-.265.13-.494.307-.672.517-.178.21-.301.451-.361.704-.06.254-.056.516.012.769.089.415.359.787.757 1.042.399.255.896.375 1.394.336l10.306-.461c.598-.04 1.154-.279 1.545-.663s.586-.884.542-1.39l.007-.346a1.569 1.569 0 00-.249-.667 1.862 1.862 0 00-.537-.531 2.233 2.233 0 00-.741-.313 2.438 2.438 0 00-.826-.043z" fill="#080B09"/><path d="M155.826 442.723s-5.147 8.269-14.485 10.722c-9.338 2.452-4.235 14.896-4.235 14.896s-6.403-5.378-13.764-2.351c-7.36 3.028-1.773 14.909 8.396 15.061l-2.766 13.369s-5.15-5.415-10.566-8.313c-5.417-2.897-24.875-14.145-16.279-28.959 0 0-6.725-20.801 11.719-31.585 18.444-10.785 34.408-6.715 34.408-6.715s4.397-5.889 14.589-4.686c10.191 1.203 12.542 16.721 9.167 22.333-3.375 5.612-8.875 7.998-16.184 6.228z" fill="#93523E"/><path d="M71.43 591.965l71.598 59.239c.417.373.655.863.669 1.375.014.514-.197 1.013-.593 1.402l-12.395 12.042c-.601.571-1.432.933-2.332 1.016a4.167 4.167 0 01-2.535-.569l-82.171-50.378 27.759-24.127z" fill="#5661AE"/><path d="M172.418 580.553l-38.857 90.895H55.433c0-2.775 1.306-5.436 3.63-7.399 2.325-1.963 5.477-3.065 8.764-3.065h56.523l33.553-80.431h14.515z" fill="#fff"/><path d="M172.418 580.553h104.824l-40.54 90.896H133.561l38.857-90.896z" fill="url(#paint0_linear_96_5)"/><defs><linearGradient id="paint0_linear_96_5" x1="201.825" y1="580.337" x2="215.135" y2="774.408" gradientUnits="userSpaceOnUse"><stop stop-color="#fff"/><stop offset="1" stop-color="#94B9FF"/></linearGradient></defs></svg>