<svg width="576" height="460" fill="none" xmlns="http://www.w3.org/2000/svg"><path d="M292.391 397.728c120.604 0 218.375-2.429 218.375-5.424 0-2.996-97.771-5.425-218.375-5.425s-218.373 2.429-218.373 5.425c0 2.995 97.769 5.424 218.373 5.424z" fill="#F5F8FF"/><path d="M322.232 390.109H173.963c-12.026 0-20.122-8.232-18.083-18.386L215.595 74.37c2.039-10.155 13.442-18.387 25.468-18.387h148.268c12.027 0 20.123 8.232 18.084 18.387L347.7 371.723c-2.039 10.154-13.442 18.386-25.468 18.386z" fill="#5CA4E6"/><path d="M303.713 390.109H155.444c-12.026 0-20.122-8.232-18.083-18.386L197.076 74.37c2.039-10.155 13.441-18.387 25.468-18.387h148.268c12.027 0 20.123 8.232 18.084 18.387l-59.715 297.353c-2.039 10.154-13.442 18.386-25.468 18.386z" fill="#D1E8F7"/><path d="M304.565 380.168h-145.98c-6.245 0-10.448-4.274-9.39-9.547l59.273-295.15c1.059-5.273 6.979-9.547 13.224-9.547h145.98c6.245 0 10.449 4.274 9.39 9.547l-59.273 295.15c-1.058 5.273-6.979 9.547-13.224 9.547z" fill="#fff"/><path d="M318.382 165.37H178.801l14.547-67.858c.954-4.138 5.699-7.492 10.599-7.492h131.792c4.9 0 8.1 3.354 7.147 7.492l-13.906 60.367c-.953 4.137-5.697 7.491-10.598 7.491z" fill="url(#paint0_linear_9_1936)"/><path d="M307.132 156.638H98.17c-4.9 0-8.1-3.354-7.147-7.491l13.905-60.367c.953-4.138 5.698-7.492 10.598-7.492h208.963c4.899 0 8.1 3.354 7.146 7.492l-13.905 60.367c-.953 4.137-5.698 7.491-10.598 7.491zM293.8 372.473l-129.603.519c-4.901 0-8.1-3.354-7.147-7.491l13.905-60.367c.953-4.138 5.698-7.492 10.598-7.492l129.603-.519c4.901 0 8.1 3.354 7.147 7.491l-13.905 60.368c-.953 4.137-5.698 7.491-10.598 7.491z" fill="#FEBB94"/><path d="M178.451 354.193c3.688-24.354 31.093-44.098 61.213-44.098 30.119 0 51.546 19.744 47.858 44.098" stroke="#FF967C" stroke-width="16.521" stroke-miterlimit="10" stroke-linecap="round"/><path d="M178.451 354.193c3.688-24.354 31.093-44.098 61.213-44.098 14.907 0 27.685 4.837 36.342 12.675" stroke="#fff" stroke-width="16.521" stroke-miterlimit="10" stroke-linecap="round"/><path d="M278.302 288.588h-92.8c-4.953 0-8.301-3.39-7.477-7.573l19.599-99.537c.823-4.183 5.506-7.572 10.459-7.572h92.799c4.953 0 8.301 3.389 7.478 7.572l-19.599 99.537c-.824 4.183-5.506 7.573-10.459 7.573z" fill="url(#paint1_linear_9_1936)"/><path d="M214.078 226.541h-12.652a3.417 3.417 0 00-1.892.622c-.529.383-.887.907-1.017 1.485l-6.871 34.9c-.068.258-.063.526.011.783.075.257.218.496.419.699.2.203.453.365.739.473.286.108.597.16.91.151h12.652a3.399 3.399 0 001.892-.622c.529-.383.888-.906 1.017-1.484l6.872-34.9a1.476 1.476 0 00-.012-.783 1.664 1.664 0 00-.419-.7 2.043 2.043 0 00-.739-.472 2.403 2.403 0 00-.91-.152zM237.163 238.483h-12.652a3.399 3.399 0 00-1.892.622c-.529.383-.887.906-1.017 1.484l-4.521 22.959c-.066.259-.062.527.012.783.075.257.218.496.419.699.2.203.453.365.739.473.285.108.597.16.91.151h12.652a3.401 3.401 0 001.892-.622c.529-.383.888-.906 1.017-1.484l4.521-22.959a1.476 1.476 0 00-.012-.783 1.655 1.655 0 00-.419-.699 2.054 2.054 0 00-.739-.473 2.39 2.39 0 00-.91-.151zM267.723 204.885H255.07a3.41 3.41 0 00-1.892.622c-.528.383-.887.906-1.016 1.484l-11.136 56.557c-.066.258-.063.526.012.783s.218.496.418.699c.201.203.454.365.739.473.286.108.598.16.91.151h12.653a3.404 3.404 0 001.892-.622c.529-.383.887-.906 1.017-1.484l11.136-56.557a1.476 1.476 0 00-.013-.783 1.662 1.662 0 00-.417-.699 2.066 2.066 0 00-.74-.473 2.405 2.405 0 00-.91-.151zM289.496 219.546h-12.652a3.401 3.401 0 00-1.892.622c-.529.383-.888.906-1.017 1.484l-8.249 41.896c-.067.258-.063.527.012.783.075.257.217.496.418.699.2.203.453.365.739.473.286.108.597.16.91.151h12.652a3.405 3.405 0 001.893-.622c.529-.383.887-.906 1.017-1.484l8.249-41.896a1.486 1.486 0 00-.012-.783 1.655 1.655 0 00-.419-.699 2.054 2.054 0 00-.739-.473 2.386 2.386 0 00-.91-.151z" fill="#fff"/><path d="M206.885 186.151h34.257M204.951 195.972h17.128" stroke="#fff" stroke-width="10" stroke-miterlimit="10" stroke-linecap="round"/><path opacity=".6" d="M195.338 272.766h6.625M220.775 272.766h6.625M244.718 272.766h6.626M269.378 272.766h6.626" stroke="#fff" stroke-width="6" stroke-miterlimit="10" stroke-linecap="round"/><path d="M400.028 288.588h-92.799c-4.953 0-8.301-3.39-7.478-7.573l19.6-99.537c.823-4.183 5.506-7.572 10.459-7.572h92.799c4.953 0 8.301 3.389 7.477 7.572l-19.598 99.537c-.824 4.183-5.507 7.573-10.46 7.573z" fill="url(#paint2_linear_9_1936)"/><path d="M333.402 241.547h-12.653a3.401 3.401 0 00-1.892.622c-.529.383-.887.906-1.017 1.484l-4.468 19.895c-.066.258-.062.526.012.783.075.257.218.496.419.699.2.203.453.365.739.473.285.108.597.16.91.151h12.652a3.401 3.401 0 001.892-.622c.529-.383.888-.906 1.017-1.484l4.468-19.895a1.476 1.476 0 00-.012-.783 1.663 1.663 0 00-.418-.699 2.062 2.062 0 00-.739-.473 2.39 2.39 0 00-.91-.151zM363.668 210.739h-12.652a3.404 3.404 0 00-1.892.622c-.529.383-.888.906-1.017 1.484l-9.299 50.703c-.066.258-.062.526.012.783.075.257.218.496.418.699.201.203.454.365.74.473.285.108.597.16.91.151h12.652a3.404 3.404 0 001.892-.622c.529-.383.888-.906 1.017-1.484l9.299-50.703a1.476 1.476 0 00-.012-.783 1.665 1.665 0 00-.418-.699 2.066 2.066 0 00-.74-.473 2.402 2.402 0 00-.91-.151zM385.263 225.216H372.61a3.404 3.404 0 00-1.892.622c-.528.383-.887.906-1.016 1.484l-6.95 36.226c-.067.258-.062.527.012.783.075.257.218.496.419.699.2.203.453.365.739.473.286.108.596.16.91.151h12.652a3.401 3.401 0 001.892-.622c.529-.383.888-.906 1.017-1.484l6.95-36.226a1.476 1.476 0 00-.013-.783 1.65 1.65 0 00-.417-.699 2.066 2.066 0 00-.74-.473 2.39 2.39 0 00-.91-.151zM411.223 219.546h-12.652a3.399 3.399 0 00-1.892.622c-.53.383-.888.906-1.018 1.484l-8.248 41.896c-.067.258-.063.527.011.783.075.257.218.496.419.699.2.203.453.365.739.473.286.108.597.16.91.151h12.652a3.401 3.401 0 001.892-.622c.529-.383.888-.906 1.017-1.484l8.249-41.896a1.476 1.476 0 00-.011-.783 1.655 1.655 0 00-.419-.699 2.054 2.054 0 00-.739-.473 2.39 2.39 0 00-.91-.151z" fill="#fff"/><path d="M328.612 186.151h34.256M326.678 195.972h17.128" stroke="#fff" stroke-width="10" stroke-miterlimit="10" stroke-linecap="round"/><path opacity=".6" d="M317.065 272.766h6.625M342.501 272.766h6.625M366.445 272.766h6.625M391.105 272.766h6.626" stroke="#fff" stroke-width="6" stroke-miterlimit="10" stroke-linecap="round"/><path d="M6.126 400.453l26.35 46.545-3.267 1.319a5.385 5.385 0 01-3.523.159c-1.152-.344-2.096-1.06-2.623-1.991L.686 406.962a3.346 3.346 0 01-.187-2.975c.407-.973 1.255-1.77 2.358-2.215l3.269-1.319z" fill="#71C8EA"/><path d="M34.814 389.943l-18.186 6.347 10.203 12.182 16.122-4.153-8.139-14.376z" fill="#FFCCB3"/><path d="M23.198 396.777s7.1 9.259 8.171 14.433c1.072 5.173 4.74 31.344 3.753 33.703-.71 1.696-3.287 2.424-4.922 2.578a2.014 2.014 0 01-1.035-.18 1.601 1.601 0 01-.72-.652l-23.92-42.251a2.561 2.561 0 01-.157-2.253c.3-.74.93-1.351 1.758-1.702 3.309-1.404 8.371-3.507 10.503-4.162 3.294-1.013 5.468-1.007 6.57.486z" fill="#5661AE"/><path d="M151.937 418.928l-24.713 38.518c-.582.907-1.568 1.582-2.739 1.876a5.374 5.374 0 01-3.509-.308l-3.185-1.457 29.104-45.361 3.185 1.456c1.075.492 1.874 1.324 2.222 2.313.349.989.218 2.055-.365 2.963z" fill="#71C8EA"/><path d="M118.872 400.475l17.783 7.115-10.919 11.731-15.853-4.836 8.989-14.01z" fill="#FFCCB3"/><path d="M130.064 407.795s-7.645 8.944-9.025 14.066c-1.378 5.121-6.608 31.102-5.764 33.501.607 1.723 3.137 2.56 4.761 2.783.356.048.721.001 1.044-.135.323-.135.588-.353.759-.621l26.419-41.176a2.578 2.578 0 00.291-2.244c-.255-.751-.849-1.388-1.654-1.774-3.221-1.543-8.151-3.86-10.24-4.605-3.23-1.152-5.402-1.238-6.591.205z" fill="#5661AE"/><path d="M172.446 345.605s6.807 28.545 1.524 34.138L39.35 408.848l-11.48-18.156 78.613-30.12 15.744-18.219 50.219 3.252z" fill="#D1E8F7"/><path d="M138.38 365.974l-29.702 8.387-13.86 4.907 18.023 13.692-16.113 3.073-43.952-30.059h85.604zM36.306 388.311l.914 2.681 20.871 13.755 19.606-4.039s-37.822-15.197-41.39-12.397z" fill="#5CA4E6"/><path d="M74.09 343.94s-38.066-1.743-56.934-.342c-12.15.901-16.529 27.151-6.834 31.927l104.052 44.984 12.262-18.708-67.123-38.363 48.022-5.704L74.09 343.94z" fill="#D1E8F7"/><path d="M20.356 377.76c11.241 0 20.355-7.695 20.355-17.187s-9.114-17.188-20.355-17.188C9.113 343.385 0 351.081 0 360.573c0 9.492 9.113 17.187 20.356 17.187zM170.589 379.979c11.242 0 20.355-7.695 20.355-17.187s-9.113-17.187-20.355-17.187-20.356 7.695-20.356 17.187 9.114 17.187 20.356 17.187z" fill="#D1E8F7"/><path d="M114.828 281.69c-2.144-8.938 2.899-8.708 4.578-10.129 0 0 6.295-4.384 11.093-.298 5.078 4.323 34.188 37.9 34.188 37.9l-18.214 14.145-3.424-3.45-8.868-8.931-9.486-9.545-1.178-1.086-12.796-12.237s5.32-1.663 4.107-6.369z" fill="#5661AE"/><path d="M124.929 290.667c7.331-2.073 11.283-8.771 8.828-14.961-2.455-6.189-10.388-9.526-17.719-7.453-7.33 2.074-11.282 8.771-8.826 14.961 2.455 6.189 10.387 9.526 17.717 7.453z" fill="#5661AE"/><path d="M123.685 300.248c-.367-1.868-1.102-5.605-1.892-9.01l-4.202-16.482s11.286 14.084 16.486 23.895c3.85 7.351 8.317 14.845 9.056 21.183l-8.867-8.93-9.486-9.545-1.095-1.111z" fill="#465393"/><path d="M182.88 271.361c4.328-6.666 2.248-7.797 4.089-11.589 1.814-3.701-1.406-12.874 1.677-11.623 3.083 1.25 4.037 4.575 4.037 4.575 2.109-3.15 4.051-8.945 9.098-9.608 5.048-.663 5.495.678 8.356 2.661 7.612 5.347-2.094 13.384-3.714 16.444-1.043 1.918-8.701 7.767-9.55 9.045l-3.855 4.721-10.138-4.626z" fill="#FFCCB3"/><path d="M197.75 253.137l6.152-9.589-6.152 9.589z" fill="#E56441"/><path d="M197.75 253.137l6.152-9.589" stroke="#E56441" stroke-width=".947" stroke-linecap="round"/><path d="M201.781 254.69l6.705-8.931-6.705 8.931z" fill="#E56441"/><path d="M201.781 254.69l6.705-8.931" stroke="#E56441" stroke-width=".947" stroke-linecap="round"/><path d="M206.569 256.406l3.832-5.408-3.832 5.408z" fill="#E56441"/><path d="M206.569 256.406l3.832-5.408" stroke="#E56441" stroke-width=".947" stroke-linecap="round"/><path d="M196.231 261.578c-.032-3.32-2.392-7.338-2.392-7.338l2.392 7.338z" fill="#E56441"/><path d="M196.231 261.578c-.032-3.32-2.392-7.338-2.392-7.338" stroke="#E56441" stroke-width=".947" stroke-linecap="round"/><path d="M146.318 308.896l37.038-41.645a1.59 1.59 0 01.94-.456 1.74 1.74 0 011.059.193l9.699 5.415c.461.264.789.663.921 1.12.132.456.058.938-.207 1.351l-29.784 46.378-19.666-12.356z" fill="#5661AE"/><path d="M155.318 326.486c6.85 0 12.403-4.689 12.403-10.473 0-5.783-5.553-10.472-12.403-10.472-6.85 0-12.403 4.689-12.403 10.472 0 5.784 5.553 10.473 12.403 10.473zM100.317 262.355s20.785 4.645 24.352 5.849c3.569 1.206 3.806 6.025 4.044 9.44.238 3.414-.561 80.09-.561 80.09l-45.998-1.493-34.4-17.002s1.497-60.84 1.972-63.652c.476-2.811-3.262-5.232.79-6.648l26.046-5.809 23.755-.775z" fill="#5661AE"/><path d="M65.705 289.67l.37 56.652-19.774-18.61 9.567-39.805 9.837 1.763zM73.17 263.996s-2.943 4.996 0 8.442c2.942 3.447 14.721 6.795 22.769 6.697 8.047-.099 12.311-6.577 8.663-15.647l-13.328-3.161-14.712 2.803-3.392.866z" fill="#465393"/><path d="M106.484 220.935s5.795 10.558-.386 12.739c-6.18 2.181-5.461-12.227.386-12.739z" fill="#93523E"/><path d="M99.947 254.721l1.677 15.962s1.607 2.14-4.652 3.264c-4.027.722-14.87-2.885-16.974-3.967-.894-.401-1.595-1.053-1.982-1.843a3.146 3.146 0 01-.136-2.487c.64-1.953 3.29-18.226 3.29-18.226l18.777 7.297z" fill="#FFCCB3"/><path d="M100.269 257.798l-9.987-4.166 11.134 15.083-1.147-10.917z" fill="#FF967C"/><path d="M103.155 223.99s5.862 12.412 7.988 21.119c2.145 8.785-1.278 10.979-5.793 12.27-3.563 1.02-9.25 1.832-13.12.809-7.055-1.865-13.958-7.248-15.609-8.353-2.555-1.712-5.079-9.477-1.333-13.87 3.747-4.393 18.507-18.198 27.867-11.975z" fill="#FFCCB3"/><path d="M95.61 241.122c.78-.259 1.031-1.283.563-2.288-.468-1.005-1.479-1.609-2.259-1.35-.78.259-1.032 1.283-.564 2.288.468 1.005 1.48 1.609 2.26 1.35zM106.323 237.497c.78-.259 1.032-1.283.564-2.288-.468-1.004-1.479-1.609-2.259-1.35-.78.259-1.032 1.283-.564 2.288.468 1.004 1.48 1.609 2.259 1.35z" fill="#080B09"/><path d="M102.394 239.211s-.952 2.432 1.049 2.195c1.902-.281 3.193.512 1.531 2.142" fill="#E56441"/><path d="M102.394 239.211s-.952 2.432 1.049 2.195c1.902-.281 3.193.512 1.531 2.142" stroke="#E56441" stroke-width=".947" stroke-linecap="round"/><path d="M105.067 245.698l.01-.001.009-.003a.188.188 0 01.16.032.142.142 0 01.045.062.118.118 0 010 .072l-.006.02-.002.021c-.123 1.065-.437 1.698-.817 2.053-.368.344-.83.458-1.353.424-.538-.034-1.128-.226-1.699-.488a10.828 10.828 0 01-1.496-.851.182.182 0 01-.059-.079.151.151 0 01-.003-.099.178.178 0 01.057-.086.228.228 0 01.102-.048l.003-.001c1.547-.331 3.88-.795 5.049-1.028z" fill="#E56441" stroke="#E56441"/><path d="M88.822 236.869l.147.174a1.4 1.4 0 00.85.543 1.63 1.63 0 001.057-.121l5.407-2.813a1.1 1.1 0 00.566-.581.89.89 0 00-.05-.752 1.136 1.136 0 00-.311-.392 1.38 1.38 0 00-.475-.25 1.565 1.565 0 00-1.091.071l-5.553 2.64c-.154.065-.29.155-.401.266-.11.11-.195.238-.245.377a.913.913 0 00-.052.427.964.964 0 00.151.411zM107.5 229.657l-6.345.496a1.52 1.52 0 00-.532.147c-.164.08-.304.189-.414.319-.11.129-.185.276-.222.433a.957.957 0 00.007.472c.055.256.221.485.466.642a1.4 1.4 0 00.858.206l6.341-.283c.368-.025.71-.172.951-.408.24-.237.36-.544.333-.855l.005-.213a.968.968 0 00-.154-.411 1.156 1.156 0 00-.33-.327 1.393 1.393 0 00-.456-.192 1.493 1.493 0 00-.508-.026z" fill="#080B09"/><path d="M95.881 226.467s-3.167 5.088-8.912 6.597c-5.746 1.509-2.606 9.166-2.606 9.166s-3.94-3.31-8.469-1.447c-4.53 1.863-1.091 9.174 5.166 9.267l-1.702 8.226s-3.17-3.332-6.502-5.115c-3.333-1.783-15.305-8.703-10.016-17.819 0 0-4.138-12.798 7.21-19.434 11.35-6.636 21.172-4.131 21.172-4.131s2.706-3.624 8.977-2.884c6.271.74 7.717 10.288 5.64 13.741-2.076 3.453-5.461 4.921-9.958 3.833z" fill="#93523E"/><path d="M48.6 277.481c7.981-6.146 10.338-2.375 12.644-1.889 0 0 7.69 2.308 6.002 7.883-1.783 5.9-20.945 44.237-20.945 44.237l-23.73-5.927 1.747-4.252 4.518-11.012 4.825-11.775.498-1.412 5.86-15.556s4.423 2.999 8.58-.297z" fill="#5661AE"/><path d="M64.405 288.118c5.028-4.959 4.342-12.42-1.53-16.665-5.873-4.245-14.71-3.666-19.736 1.292-5.028 4.959-4.343 12.42 1.53 16.665 5.873 4.244 14.708 3.666 19.736-1.292zM43.95 318.296l44.056 36.45c.256.23.403.532.411.847.009.315-.12.622-.365.862l-7.626 7.409c-.37.352-.881.574-1.435.625a2.557 2.557 0 01-1.56-.349l-50.56-30.999 17.08-14.845z" fill="#5661AE"/><path d="M34.416 335.37c6.85 0 12.404-4.688 12.404-10.472s-5.553-10.472-12.404-10.472c-6.85 0-12.402 4.688-12.402 10.472s5.553 10.472 12.402 10.472z" fill="#5661AE"/><path d="M106.09 311.274l-23.909 55.929H34.108c0-1.708.804-3.346 2.234-4.553 1.43-1.208 3.37-1.886 5.392-1.886h34.78l20.645-49.49h8.931z" fill="#fff"/><path d="M106.09 311.274h64.499l-24.945 55.929H82.181l23.909-55.929z" fill="url(#paint3_linear_9_1936)"/><path d="M196.152 128.879s10.747-1.912 14.156 2.501c3.408 4.413 6.817 12.703 14.544 11.628 7.726-1.075 13.634-22.757 21.361-22.564 7.726.191 4.317 14.39 12.725 14.582 8.409.192 6.363-7.867 13.181-7.867 6.817 0 4.544 17.269 13.407 17.46 8.863.193 7.954-22.257 21.361-21.873" stroke="#fff" stroke-width="5" stroke-miterlimit="10" stroke-linecap="round"/><path d="M164.78 125.896c5.473-11.352.203-23.89-11.77-28.006-11.973-4.115-26.116 1.75-31.589 13.101-5.473 11.352-.204 23.89 11.769 28.006 11.974 4.115 26.117-1.75 31.59-13.101z" stroke="#FF967C" stroke-width="16.521" stroke-miterlimit="10" stroke-linecap="round"/><path d="M154.249 136.88c-6.318 3.518-14.059 4.523-21.059 2.117-11.973-4.116-17.242-16.654-11.769-28.006 5.473-11.35 19.616-17.216 31.589-13.1" stroke="#fff" stroke-width="16.521" stroke-miterlimit="10" stroke-linecap="round"/><path d="M204.229 96.575h47.291" stroke="#fff" stroke-width="10" stroke-miterlimit="10" stroke-linecap="round"/><path opacity=".6" d="M201.988 107.589h19.24" stroke="#fff" stroke-width="10" stroke-miterlimit="10" stroke-linecap="round"/><path d="M562.255 370.328c-.136.012-.197.076-.123.127-.062.064-.062.064-.043.179-.29.792-.493 1.604-.61 2.426l11.667 7.917 1.292-1.225s-4.307-4.498-5.919-5.806a250.474 250.474 0 01-1.939-1.628c-.541-.474-1.027-1.012-1.495-1.435-.652-.756-2.541-.465-2.56-.581-.073-.051-.27.026-.27.026z" fill="#233B62"/><path d="M474.038 301.536l11.266 9.218 62.989 51.361 1.151.885.498.653.074.051 8.922 11.414.997 1.306.332.436 6.036 7.775-4.971 2.089-1.44.598-2.031.828-3.205 1.401-.056.064-3.402 1.477-.166-.218-7.753-12.511c-1.502-2.417-3.612-4.529-6.178-6.19l-68.496-44.272-13.019-8.416 18.452-17.949z" fill="#FFCCB3"/><path d="M558.077 364.129c-3.021-1.184-6.412-2.243-9.722-2.078 1.994 1.477 2.904 4.105 4.227 6.02 2.714 3.943 9.673 11.27 6.116 17.497-1.999 3.499-7.586 5.358-7.666 5.306-.936 3.594-5.569 18.221 3.673 9.742 5.162-4.735 10.282-9.793 12.854-14.814 1.058-2.058-1.176-4.111-2.271-5.849-1.403-2.63-3.495-6.113-3.23-9.025l.055-.063c.154-.202 12.122 8.845 12.325 8.887.412-.562 1.372-1.698 1.372-1.698s-17.161-13.745-17.733-13.925z" fill="#1C85E8"/><path d="M429.188 411.975c-.107-.071-.204-.061-.192.02-.096.01-.096.01-.181.101a16.96 16.96 0 00-2.443 1.376l1.783 12.549 1.938-.114s.648-5.757.575-7.647c-.02-.823-.028-1.565-.036-2.307.005-.66.105-1.33.12-1.909.162-.924-1.433-1.834-1.348-1.926-.011-.081-.216-.143-.216-.143z" fill="#233B62"/><path d="M423.106 310.716l.416 13.238 2.489 73.907.089 1.311-.185.761.011.082-3.075 13.427-.369 1.522-.124.508-2.123 9.124-5.286-1.445-1.525-.422-2.138-.609-3.448-.888-.096.01-3.652-.95.062-.254 4.82-13.521a16.045 16.045 0 00.708-8.074l-12.293-72.088-2.339-13.705 28.058-1.934z" fill="#FFCCB3"/><path d="M431.334 405.076c-1.177-2.629-2.723-5.386-5.227-7.224.204 2.235-1.322 4.65-1.965 6.798-1.325 4.422-2.418 13.769-10.117 16.121-4.327 1.321-9.862-.651-9.874-.733-3.645 2.016-19.073 9.734-5.444 9.131 7.611-.337 15.46-.93 21.458-2.998 2.46-.849 2.565-3.635 3.221-5.524 1.176-2.707 2.562-6.434 5.162-8.359l.097-.01c.276-.054 1.338 13.479 1.448 13.629.759-.159 2.385-.407 2.385-.407s-.882-19.955-1.144-20.424z" fill="#1C85E8"/><path d="M406.136 211.385l-22.268 79.395-.04 5.636 18.106 94.011 28.83-2.635-8.363-89.786 22.936-46.846-4.637-38.417-34.564-1.358z" fill="#1F2D49"/><path d="M403.018 310.064c10.753 0 19.471-7.36 19.471-16.44 0-9.079-8.718-16.44-19.471-16.44-10.754 0-19.471 7.361-19.471 16.44 0 9.08 8.717 16.44 19.471 16.44z" fill="#1F2D49"/><path d="M429.708 283.081l-5.491-39.227-1.817 54.153 7.308-14.926z" fill="#0D1B33"/><path d="M466.242 211.137s10.38 14.727 10.516 27.06c.209 18.509-7.698 51.699-7.698 51.699l69.032 58.913-16.435 20.805s-58.904-41.266-83.827-60.868l-5.582-9.543-8.031-55.349 12.275-32.717h29.75z" fill="#1F2D49"/><path d="M406.136 211.385l60.463.525 5.877 10.267-67.362-7.148 1.022-3.644z" fill="#0D1B33"/><path d="M451.545 313.517c10.754 0 19.472-7.36 19.472-16.44 0-9.079-8.718-16.44-19.472-16.44-10.753 0-19.47 7.361-19.47 16.44 0 9.08 8.717 16.44 19.47 16.44zM399.077 102.284s.812 7.631-1.573 14.967-20.443 22.87-4.429 35.528c16.013 12.657 35.603-21.288 35.603-21.288l-6.133-15.678-21.207-18.63-2.261 5.101zM447.933 104.066s4.806 5.154 15.756 9.368c10.743 4.135 22.311 10.931 19.929 25.746-2.387 14.815-34.148 3.309-43.479-5.178-9.331-8.486-8.047-23.638-8.047-23.638l15.841-6.298z" fill="#1F2D49"/><path d="M423.369 131.826s-12.189 4.072-14.05 5.328c-1.861 1.258-3.628 11.517-6.792 16.387-3.163 4.871-7.791 13.862-1.032 22.12 6.76 8.258 6.041 14.816 6.041 14.816l-1.438 20.716 58.255.906a4.23 4.23 0 001.502-.23 3.77 3.77 0 001.255-.729c.351-.315.615-.69.787-1.1.167-.409.228-.845.185-1.276-.646-6.04-3.606-14.522-3.84-24.139-.313-13.034-.547-56.585-.547-56.585l-25.38-.673c-5.112.744-14.946 4.459-14.946 4.459z" fill="#FEBB94"/><path d="M453.705 145.843s-8.49 6.536-8.989 11.385c-.499 4.849-1.654 18.37-12.566 19.719-13.373 1.653-16.874 3.262-10.674 4.527 6.199 1.266 20.27-.784 20.27 4.639 0 3.859 5.466 6.746 8.214 4.638 2.747-2.108 24.626-34.156 3.745-44.908z" fill="#FF967C"/><path d="M351.311 151.321l-4.602-4.974c-.964-1.165-2.245-2.116-3.736-2.775-2.265-.957-5.737-2.743-6.944-4.528-1.999-2.838-9.88-10.503-3.044-16.46 2.531-2.199 1.898-1.679 6.956-1.613 5.059.066 5.835 4.498 8.363 7.399 0 0 .568-3.346 3.362-4.875 2.795-1.529.94 7.809 3.09 11.348 2.149 3.539.412 4.877 5.505 11.095l-8.95 5.383z" fill="#FFCCB3"/><path d="M339.172 121.482l4.111 7.874-4.111-7.874z" fill="#E56441"/><path d="M339.172 121.482l4.111 7.874" stroke="#E56441" stroke-width=".947" stroke-linecap="round"/><path d="M333.811 122.882l5.695 8.385-5.695-8.385z" fill="#E56441"/><path d="M333.811 122.882l5.695 8.385" stroke="#E56441" stroke-width=".947" stroke-linecap="round"/><path d="M330.447 128.395l4.49 5.006-4.49-5.006z" fill="#E56441"/><path d="M330.447 128.395l4.49 5.006" stroke="#E56441" stroke-width=".947" stroke-linecap="round"/><path d="M347.247 130.154s-1.74 4.207-1.439 7.523l1.439-7.523z" fill="#E56441"/><path d="M347.247 130.154s-1.74 4.207-1.439 7.523" stroke="#E56441" stroke-width=".947" stroke-linecap="round"/><path d="M412.28 135.8c-4.725 1.383-11.312 4.187-13.095 7.317l-15.75 30.295-26.23-33.652-9.933 8.834 24.496 42.778c4.476 9.407 15.847 12.942 24.084 2.803l13.16-17.453 3.268-40.922z" fill="#FEBB94"/><path d="M405.564 161.878s-1.42-2.068-1.42 8.729l-8.291 23.568 13.159-17.453c10.558-11.984 2.217-15.185-3.448-14.844z" fill="#FF967C"/><path d="M434.439 147.584l-43.507 14.632c-1.352.455-2.011 1.749-1.472 2.89l21.775 46.159c.539 1.142 2.071 1.698 3.423 1.244l43.507-14.633c1.352-.454 2.011-1.748 1.472-2.889l-21.775-46.159c-.539-1.142-2.071-1.698-3.423-1.244z" fill="#1C85E8"/><path d="M397.57 166.558l17.941-6.034M400.28 171.982l8.177-2.751" stroke="#fff" stroke-width="4" stroke-miterlimit="10" stroke-linecap="round"/><path d="M421.827 120.974l.685 16.193s-.938 3.546 3.372 3.153c4.31-.393 10.113-3.259 13.374-6.407 3.262-3.147 3.039-3.399 1.641-5.465-1.398-2.065-7.961-17.807-7.961-17.807l-11.111 10.333z" fill="#FFCCB3"/><path d="M421.924 122.332l7.947-4.273s-3.521 13.049-7.36 19.108l-.587-14.835z" fill="#FCBA9F"/><path d="M400.496 96.741s-.127 16.115 8.108 24.226c5.37 5.289 11.02 4.587 20.443-4.12 8.64-7.984 9.852-12.145 9.852-12.145l-5.966-15.81s-31.467-6.817-32.437 7.85z" fill="#FFCCB3"/><path d="M408.691 93.003s3.449 7.072 9.855 9.048c6.405 1.977 8.081 5.652 8.081 5.652s1.229-6.047 6.264-5.827c5.034.22 4.011 7.724.886 10.216 0 0 3.759 5.887 6.946 10.24l13.96-11.697s-7.192-7.021-8.774-12.67c-1.581-5.648-6.699-20.771-26.211-19.77-22.909 1.176-21.594 16.895-20.62 25.625 0 0 7.184-2.326 9.613-10.817z" fill="#1F2D49"/><path d="M411.17 115.983l5.569-2.306.014.084a2.67 2.67 0 01-.025.959c-.156.729-.687 1.614-2.27 2.188-1.016.278-1.882.004-2.518-.361a4.387 4.387 0 01-.747-.543l-.023-.021z" fill="#E56441" stroke="#E56441"/><path d="M405.104 109.439c.704-.147 1.067-.976.811-1.852-.256-.876-1.034-1.467-1.738-1.32-.704.147-1.067.976-.811 1.852.256.875 1.034 1.467 1.738 1.32zM415.539 107.397c.704-.147 1.067-.976.811-1.852-.256-.875-1.034-1.466-1.738-1.32-.704.147-1.067.976-.811 1.852.256.876 1.035 1.467 1.738 1.32zM401.055 104.717l5.311-1.03a.38.38 0 00.212-.141.284.284 0 00.049-.224 1.033 1.033 0 00-.264-.354 1.266 1.266 0 00-.408-.238 1.447 1.447 0 00-.972.002l-4.164 1.49c-.347.072-.197.585.236.495zM418.887 100.703l-6.917 1.83a1.125 1.125 0 01-.001-.553c.045-.183.135-.355.264-.507.13-.151.295-.278.485-.372a1.8 1.8 0 01.622-.174l5.526-.608c.174-.036.281.33.021.384z" fill="#080B09"/><path d="M408.828 106.51l-.75 4.729 1.978.806" fill="#E56441"/><path d="M408.828 106.51l-.75 4.729 1.978.806" stroke="#E56441" stroke-width=".947" stroke-linecap="round"/><path d="M414.093 189.414l-17.153 4.156-2.097 8.925 3.902 9.878s2.744-1.559 2.172-5.194c-.572-3.637 13.923-3.533 16.58-8.104" fill="#FFCCB3"/><path d="M453.277 140.222s-.112-12.268 11.526-12.269c7.808-.001 11.543 3.089 12.54 12.734.695 6.743 1.199 43.74 1.199 43.74s1.963 16.885-15.001 17.201l-48.981-1.239-1.105-11.555 42.698-3.593-2.876-45.019z" fill="#FEBB94"/><path d="M417.858 138.688s4.416-1.061 3.7-4.724c-.698-3.605-.725-6.735.676-6.299 0 0 1.236 1.79 8.923-.2 7.637-1.915 7.158-4.127 7.158-4.127s1.081-.808 1.888 1.267c.806 2.075 2.852 7.821 7.177 7.407l1.169 10.71-23.002 6.393c-.05.074-10.682-8.621-7.689-10.427z" fill="#FEBB94"/><path d="M230.247 352.414h14.472" stroke="#fff" stroke-width="5" stroke-miterlimit="10" stroke-linecap="round"/><path opacity=".5" d="M233.193 357.717h7.236" stroke="#fff" stroke-width="5" stroke-miterlimit="10" stroke-linecap="round"/><path d="M220.606 341.826l11.105-6.538 7.822 4.398 10.411-6.366" stroke="#fff" stroke-width="6.504" stroke-linecap="round" stroke-linejoin="round"/><path d="M241.94 330.545h11.075v9.253" stroke="#fff" stroke-width="6.504" stroke-linecap="round" stroke-linejoin="round"/><path d="M373.068 43.245h-42.92a3.904 3.904 0 01-1.525-.254 3.35 3.35 0 01-1.228-.804 2.678 2.678 0 01-.669-1.185 2.407 2.407 0 01.031-1.311l6.597-28.637c.254-.978.885-1.858 1.795-2.501.91-.643 2.046-1.013 3.232-1.053h42.921a3.908 3.908 0 011.524.254c.478.183.899.459 1.228.804.33.345.559.75.669 1.184.111.434.101.883-.031 1.312l-6.597 28.637c-.254.978-.885 1.858-1.795 2.501-.91.643-2.046 1.013-3.232 1.053z" fill="#1C85E8"/><path d="M343.628 15.245l28.579.005c.206-.008.409.025.597.095s.353.177.484.31.223.29.271.459a.95.95 0 010 .513l-.391 1.806a1.639 1.639 0 01-.399.72 2.03 2.03 0 01-.737.494l-15.657 6.362a1.908 1.908 0 01-.786.163 1.903 1.903 0 01-.784-.17l-12.881-6.556a1.206 1.206 0 01-.525-.523.961.961 0 01-.069-.684l.35-1.617c.096-.38.339-.723.693-.973.353-.25.795-.391 1.255-.404z" fill="#fff"/><path d="M342.21 21.823l12.322 6.526c.167.08.356.122.548.122.192 0 .381-.042.548-.122l15.149-6.521c.814-.351 1.635.094 1.482.803l-2.252 10.396c-.172.683-.61 1.298-1.244 1.747a4.115 4.115 0 01-2.256.726l-25.95-.005a2.782 2.782 0 01-1.073-.17 2.396 2.396 0 01-.869-.557 1.907 1.907 0 01-.486-.825 1.715 1.715 0 01-.001-.921l2.252-10.396a1.02 1.02 0 01.233-.457 1.26 1.26 0 01.448-.324c.177-.078.372-.12.572-.124.199-.004.396.03.577.102z" fill="#fff"/><path d="M382.785 15c4.906 0 8.883-3.357 8.883-7.5 0-4.142-3.977-7.5-8.883-7.5-4.906 0-8.883 3.358-8.883 7.5 0 4.143 3.977 7.5 8.883 7.5zM383.407 173.401l7.365 9.24-3.927-15.786-3.438 6.546z" fill="#FF967C"/><defs><linearGradient id="paint0_linear_9_1936" x1="256.838" y1="89.841" x2="264.857" y2="251.078" gradientUnits="userSpaceOnUse"><stop stop-color="#fff"/><stop offset="1" stop-color="#94B9FF"/></linearGradient><linearGradient id="paint1_linear_9_1936" x1="228.075" y1="137.416" x2="261.795" y2="417.359" gradientUnits="userSpaceOnUse"><stop stop-color="#fff"/><stop offset="1" stop-color="#94B9FF"/></linearGradient><linearGradient id="paint2_linear_9_1936" x1="349.802" y1="137.416" x2="383.522" y2="417.359" gradientUnits="userSpaceOnUse"><stop stop-color="#fff"/><stop offset="1" stop-color="#94B9FF"/></linearGradient><linearGradient id="paint3_linear_9_1936" x1="124.184" y1="311.141" x2="132.375" y2="430.555" gradientUnits="userSpaceOnUse"><stop stop-color="#fff"/><stop offset="1" stop-color="#94B9FF"/></linearGradient></defs></svg>