<svg width="576" height="460" viewBox="0 0 576 460" fill="none" xmlns="http://www.w3.org/2000/svg">
<path d="M292.391 397.728C412.995 397.728 510.766 395.299 510.766 392.304C510.766 389.308 412.995 386.879 292.391 386.879C171.787 386.879 74.0176 389.308 74.0176 392.304C74.0176 395.299 171.787 397.728 292.391 397.728Z" fill="#F5F8FF"/>
<path d="M322.232 390.109H173.963C161.937 390.109 153.841 381.877 155.88 371.723L215.595 74.3698C217.634 64.2151 229.037 55.9832 241.063 55.9832H389.331C401.358 55.9832 409.454 64.2151 407.415 74.3698L347.7 371.723C345.661 381.877 334.258 390.109 322.232 390.109Z" fill="#5CA4E6"/>
<path d="M303.713 390.109H155.444C143.418 390.109 135.322 381.877 137.361 371.723L197.076 74.3698C199.115 64.2151 210.517 55.9832 222.544 55.9832H370.812C382.839 55.9832 390.935 64.2151 388.896 74.3698L329.181 371.723C327.142 381.877 315.739 390.109 303.713 390.109Z" fill="#D1E8F7"/>
<path d="M304.565 380.168H158.585C152.34 380.168 148.137 375.894 149.195 370.621L208.468 75.4712C209.527 70.1985 215.447 65.9243 221.692 65.9243H367.672C373.917 65.9243 378.121 70.1985 377.062 75.4712L317.789 370.621C316.731 375.894 310.81 380.168 304.565 380.168Z" fill="white"/>
<path d="M318.382 165.37H178.801L193.348 97.5116C194.302 93.3741 199.047 90.02 203.947 90.02H335.739C340.639 90.02 343.839 93.3741 342.886 97.5116L328.98 157.879C328.027 162.016 323.283 165.37 318.382 165.37Z" fill="url(#paint0_linear_9_1936)"/>
<path d="M307.132 156.638H98.1697C93.27 156.638 90.0698 153.284 91.0229 149.147L104.928 88.7795C105.881 84.6419 110.626 81.2878 115.526 81.2878H324.489C329.388 81.2878 332.589 84.6419 331.635 88.7795L317.73 149.147C316.777 153.284 312.032 156.638 307.132 156.638Z" fill="#FEBB94"/>
<path d="M293.8 372.473L164.197 372.992C159.296 372.992 156.097 369.638 157.05 365.501L170.955 305.134C171.908 300.996 176.653 297.642 181.553 297.642L311.156 297.123C316.057 297.123 319.256 300.477 318.303 304.614L304.398 364.982C303.445 369.119 298.7 372.473 293.8 372.473Z" fill="#FEBB94"/>
<path d="M178.451 354.193C182.139 329.839 209.544 310.095 239.664 310.095C269.783 310.095 291.21 329.839 287.522 354.193" stroke="#FF967C" stroke-width="16.5208" stroke-miterlimit="10" stroke-linecap="round"/>
<path d="M178.451 354.193C182.139 329.839 209.544 310.095 239.664 310.095C254.571 310.095 267.349 314.932 276.006 322.77" stroke="white" stroke-width="16.5208" stroke-miterlimit="10" stroke-linecap="round"/>
<path d="M278.302 288.588H185.502C180.549 288.588 177.201 285.198 178.025 281.015L197.624 181.478C198.447 177.295 203.13 173.906 208.083 173.906H300.882C305.835 173.906 309.183 177.295 308.36 181.478L288.761 281.015C287.937 285.198 283.255 288.588 278.302 288.588Z" fill="url(#paint1_linear_9_1936)"/>
<path d="M214.078 226.541H201.426C200.73 226.562 200.062 226.781 199.534 227.163C199.005 227.546 198.647 228.07 198.517 228.648L191.646 263.548C191.578 263.806 191.583 264.074 191.657 264.331C191.732 264.588 191.875 264.827 192.076 265.03C192.276 265.233 192.529 265.395 192.815 265.503C193.101 265.611 193.412 265.663 193.725 265.654H206.377C207.074 265.634 207.741 265.415 208.269 265.032C208.798 264.649 209.157 264.126 209.286 263.548L216.158 228.648C216.225 228.389 216.22 228.121 216.146 227.865C216.071 227.608 215.928 227.369 215.727 227.165C215.527 226.962 215.275 226.801 214.988 226.693C214.703 226.585 214.392 226.533 214.078 226.541Z" fill="white"/>
<path d="M237.163 238.483H224.511C223.814 238.503 223.147 238.722 222.619 239.105C222.09 239.488 221.732 240.011 221.602 240.589L217.081 263.548C217.015 263.807 217.019 264.075 217.093 264.331C217.168 264.588 217.311 264.827 217.512 265.03C217.712 265.233 217.965 265.395 218.251 265.503C218.536 265.611 218.848 265.663 219.161 265.654H231.813C232.509 265.634 233.177 265.415 233.705 265.032C234.234 264.649 234.593 264.126 234.722 263.548L239.243 240.589C239.31 240.331 239.305 240.062 239.231 239.806C239.156 239.549 239.013 239.31 238.812 239.107C238.612 238.904 238.359 238.742 238.073 238.634C237.787 238.526 237.476 238.474 237.163 238.483Z" fill="white"/>
<path d="M267.723 204.885H255.07C254.375 204.905 253.708 205.124 253.178 205.507C252.65 205.89 252.291 206.413 252.162 206.991L241.026 263.548C240.96 263.806 240.963 264.074 241.038 264.331C241.113 264.588 241.256 264.827 241.456 265.03C241.657 265.233 241.91 265.395 242.195 265.503C242.481 265.611 242.793 265.663 243.105 265.654H255.758C256.454 265.634 257.121 265.415 257.65 265.032C258.179 264.649 258.537 264.126 258.667 263.548L269.803 206.991C269.869 206.733 269.865 206.465 269.79 206.208C269.716 205.952 269.573 205.713 269.373 205.509C269.172 205.306 268.919 205.144 268.633 205.036C268.348 204.928 268.036 204.877 267.723 204.885Z" fill="white"/>
<path d="M289.496 219.546H276.844C276.148 219.566 275.48 219.785 274.952 220.168C274.423 220.551 274.064 221.074 273.935 221.652L265.686 263.548C265.619 263.806 265.623 264.075 265.698 264.331C265.773 264.588 265.915 264.827 266.116 265.03C266.316 265.233 266.569 265.395 266.855 265.503C267.141 265.611 267.452 265.663 267.765 265.654H280.417C281.114 265.634 281.781 265.415 282.31 265.032C282.839 264.649 283.197 264.126 283.327 263.548L291.576 221.652C291.642 221.394 291.638 221.126 291.564 220.869C291.489 220.612 291.346 220.373 291.145 220.17C290.945 219.967 290.692 219.805 290.406 219.697C290.121 219.589 289.809 219.537 289.496 219.546Z" fill="white"/>
<path d="M206.885 186.151H241.142" stroke="white" stroke-width="10" stroke-miterlimit="10" stroke-linecap="round"/>
<path d="M204.951 195.972H222.079" stroke="white" stroke-width="10" stroke-miterlimit="10" stroke-linecap="round"/>
<path opacity="0.6" d="M195.338 272.766H201.963" stroke="white" stroke-width="6" stroke-miterlimit="10" stroke-linecap="round"/>
<path opacity="0.6" d="M220.775 272.766H227.4" stroke="white" stroke-width="6" stroke-miterlimit="10" stroke-linecap="round"/>
<path opacity="0.6" d="M244.718 272.766H251.344" stroke="white" stroke-width="6" stroke-miterlimit="10" stroke-linecap="round"/>
<path opacity="0.6" d="M269.378 272.766H276.004" stroke="white" stroke-width="6" stroke-miterlimit="10" stroke-linecap="round"/>
<path d="M400.028 288.588H307.229C302.276 288.588 298.928 285.198 299.751 281.015L319.351 181.478C320.174 177.295 324.857 173.906 329.81 173.906H422.609C427.562 173.906 430.91 177.295 430.086 181.478L410.488 281.015C409.664 285.198 404.981 288.588 400.028 288.588Z" fill="url(#paint2_linear_9_1936)"/>
<path d="M333.402 241.547H320.749C320.053 241.567 319.385 241.786 318.857 242.169C318.328 242.552 317.97 243.075 317.84 243.653L313.372 263.548C313.306 263.806 313.31 264.074 313.384 264.331C313.459 264.588 313.602 264.827 313.803 265.03C314.003 265.233 314.256 265.395 314.542 265.503C314.827 265.611 315.139 265.663 315.452 265.654H328.104C328.8 265.634 329.468 265.415 329.996 265.032C330.525 264.649 330.884 264.126 331.013 263.548L335.481 243.653C335.548 243.395 335.543 243.126 335.469 242.87C335.394 242.613 335.251 242.374 335.051 242.171C334.85 241.968 334.598 241.806 334.312 241.698C334.026 241.59 333.715 241.538 333.402 241.547Z" fill="white"/>
<path d="M363.668 210.739H351.016C350.32 210.759 349.653 210.978 349.124 211.361C348.595 211.744 348.236 212.267 348.107 212.845L338.808 263.548C338.742 263.806 338.746 264.074 338.82 264.331C338.895 264.588 339.038 264.827 339.238 265.03C339.439 265.233 339.692 265.395 339.978 265.503C340.263 265.611 340.575 265.663 340.888 265.654H353.54C354.236 265.634 354.903 265.415 355.432 265.032C355.961 264.649 356.32 264.126 356.449 263.548L365.748 212.845C365.815 212.587 365.81 212.319 365.736 212.062C365.661 211.806 365.519 211.567 365.318 211.363C365.117 211.16 364.864 210.998 364.578 210.89C364.293 210.782 363.982 210.731 363.668 210.739Z" fill="white"/>
<path d="M385.263 225.216H372.61C371.914 225.236 371.247 225.455 370.718 225.838C370.19 226.221 369.831 226.744 369.702 227.322L362.752 263.548C362.685 263.806 362.69 264.075 362.764 264.331C362.839 264.588 362.982 264.827 363.183 265.03C363.383 265.233 363.636 265.395 363.922 265.503C364.208 265.611 364.518 265.663 364.832 265.654H377.484C378.18 265.634 378.848 265.415 379.376 265.032C379.905 264.649 380.264 264.126 380.393 263.548L387.343 227.322C387.409 227.064 387.405 226.796 387.33 226.539C387.256 226.282 387.113 226.043 386.913 225.84C386.712 225.637 386.459 225.475 386.173 225.367C385.887 225.259 385.576 225.207 385.263 225.216Z" fill="white"/>
<path d="M411.223 219.546H398.571C397.874 219.566 397.207 219.785 396.679 220.168C396.149 220.551 395.791 221.074 395.661 221.652L387.413 263.548C387.346 263.806 387.35 264.075 387.424 264.331C387.499 264.588 387.642 264.827 387.843 265.03C388.043 265.233 388.296 265.395 388.582 265.503C388.868 265.611 389.179 265.663 389.492 265.654H402.144C402.84 265.634 403.508 265.415 404.036 265.032C404.565 264.649 404.924 264.126 405.053 263.548L413.302 221.652C413.369 221.394 413.365 221.126 413.291 220.869C413.216 220.612 413.073 220.373 412.872 220.17C412.672 219.967 412.419 219.805 412.133 219.697C411.847 219.589 411.536 219.537 411.223 219.546Z" fill="white"/>
<path d="M328.612 186.151H362.868" stroke="white" stroke-width="10" stroke-miterlimit="10" stroke-linecap="round"/>
<path d="M326.678 195.972H343.806" stroke="white" stroke-width="10" stroke-miterlimit="10" stroke-linecap="round"/>
<path opacity="0.6" d="M317.065 272.766H323.69" stroke="white" stroke-width="6" stroke-miterlimit="10" stroke-linecap="round"/>
<path opacity="0.6" d="M342.501 272.766H349.126" stroke="white" stroke-width="6" stroke-miterlimit="10" stroke-linecap="round"/>
<path opacity="0.6" d="M366.445 272.766H373.07" stroke="white" stroke-width="6" stroke-miterlimit="10" stroke-linecap="round"/>
<path opacity="0.6" d="M391.105 272.766H397.731" stroke="white" stroke-width="6" stroke-miterlimit="10" stroke-linecap="round"/>
<path d="M6.12556 400.453L32.4767 446.998L29.2088 448.317C28.1055 448.763 26.8386 448.82 25.6862 448.476C24.5337 448.132 23.5898 447.416 23.0631 446.485L0.686248 406.962C0.159546 406.03 0.0918663 404.961 0.498584 403.987C0.905917 403.014 1.75381 402.217 2.85706 401.772L6.12556 400.453Z" fill="#71C8EA"/>
<path d="M34.8144 389.943L16.6284 396.29L26.8308 408.472L42.9531 404.319L34.8144 389.943Z" fill="#FFCCB3"/>
<path d="M23.1982 396.777C23.1982 396.777 30.2982 406.036 31.3695 411.21C32.4407 416.383 36.1085 442.554 35.1216 444.913C34.4121 446.609 31.8352 447.337 30.2004 447.491C29.8417 447.523 29.4799 447.46 29.1654 447.311C28.851 447.162 28.5987 446.934 28.4449 446.659L4.52487 404.408C4.12492 403.703 4.06893 402.894 4.36796 402.155C4.66762 401.415 5.2983 400.804 6.12589 400.453C9.43501 399.049 14.4971 396.946 16.6286 396.291C19.9229 395.278 22.0974 395.284 23.1982 396.777Z" fill="#5661AE"/>
<path d="M151.937 418.928L127.224 457.446C126.642 458.353 125.656 459.028 124.485 459.322C123.313 459.616 122.051 459.506 120.976 459.014L117.791 457.557L146.895 412.196L150.08 413.652C151.155 414.144 151.954 414.976 152.302 415.965C152.651 416.954 152.52 418.02 151.937 418.928Z" fill="#71C8EA"/>
<path d="M118.872 400.475L136.655 407.59L125.736 419.321L109.883 414.485L118.872 400.475Z" fill="#FFCCB3"/>
<path d="M130.064 407.795C130.064 407.795 122.419 416.739 121.039 421.861C119.661 426.982 114.431 452.963 115.275 455.362C115.882 457.085 118.412 457.922 120.036 458.145C120.392 458.193 120.757 458.146 121.08 458.01C121.403 457.875 121.668 457.657 121.839 457.389L148.258 416.213C148.699 415.526 148.803 414.72 148.549 413.969C148.294 413.218 147.7 412.581 146.895 412.195C143.674 410.652 138.744 408.335 136.655 407.59C133.425 406.438 131.253 406.352 130.064 407.795Z" fill="#5661AE"/>
<path d="M172.446 345.605C172.446 345.605 179.253 374.15 173.97 379.743L39.3504 408.848L27.8706 390.692L106.483 360.572L122.227 342.353L172.446 345.605Z" fill="#D1E8F7"/>
<path d="M138.38 365.974L108.678 374.361L94.8179 379.268L112.841 392.96L96.7278 396.033L52.7759 365.974H138.38Z" fill="#5CA4E6"/>
<path d="M36.3062 388.311L37.2199 390.992L58.0911 404.747L77.6966 400.708C77.6966 400.708 39.8755 385.511 36.3062 388.311Z" fill="#5CA4E6"/>
<path d="M74.0897 343.94C74.0897 343.94 36.0238 342.197 17.156 343.598C5.0068 344.499 0.627053 370.749 10.3224 375.525L114.374 420.509L126.636 401.801L59.5131 363.438L107.535 357.734L74.0897 343.94Z" fill="#D1E8F7"/>
<path d="M20.3556 377.76C31.5972 377.76 40.7105 370.065 40.7105 360.573C40.7105 351.081 31.5972 343.385 20.3556 343.385C9.11331 343.385 0 351.081 0 360.573C0 370.065 9.11331 377.76 20.3556 377.76Z" fill="#D1E8F7"/>
<path d="M170.589 379.979C181.831 379.979 190.944 372.284 190.944 362.792C190.944 353.3 181.831 345.605 170.589 345.605C159.347 345.605 150.233 353.3 150.233 362.792C150.233 372.284 159.347 379.979 170.589 379.979Z" fill="#D1E8F7"/>
<path d="M114.828 281.69C112.684 272.752 117.727 272.982 119.406 271.561C119.406 271.561 125.701 267.177 130.499 271.263C135.577 275.586 164.687 309.163 164.687 309.163L146.473 323.308L143.049 319.858L134.181 310.927L124.695 301.382L123.517 300.296L110.721 288.059C110.721 288.059 116.041 286.396 114.828 281.69Z" fill="#5661AE"/>
<path d="M124.929 290.667C132.26 288.594 136.212 281.896 133.757 275.706C131.302 269.517 123.369 266.18 116.038 268.253C108.708 270.327 104.756 277.024 107.212 283.214C109.667 289.403 117.599 292.74 124.929 290.667Z" fill="#5661AE"/>
<path d="M123.685 300.248C123.318 298.38 122.583 294.643 121.793 291.238L117.591 274.756C117.591 274.756 128.877 288.84 134.077 298.651C137.927 306.002 142.394 313.496 143.133 319.834L134.266 310.904L124.78 301.359L123.685 300.248Z" fill="#465393"/>
<path d="M182.88 271.361C187.208 264.695 185.128 263.564 186.969 259.772C188.783 256.071 185.563 246.898 188.646 248.149C191.729 249.399 192.683 252.724 192.683 252.724C194.792 249.574 196.734 243.779 201.781 243.116C206.829 242.453 207.276 243.794 210.137 245.777C217.749 251.124 208.043 259.161 206.423 262.221C205.38 264.139 197.722 269.988 196.873 271.266L193.018 275.987L182.88 271.361Z" fill="#FFCCB3"/>
<path d="M197.75 253.137L203.902 243.548L197.75 253.137Z" fill="#E56441"/>
<path d="M197.75 253.137L203.902 243.548" stroke="#E56441" stroke-width="0.94666" stroke-linecap="round"/>
<path d="M201.781 254.69L208.486 245.759L201.781 254.69Z" fill="#E56441"/>
<path d="M201.781 254.69L208.486 245.759" stroke="#E56441" stroke-width="0.94666" stroke-linecap="round"/>
<path d="M206.569 256.406L210.401 250.998L206.569 256.406Z" fill="#E56441"/>
<path d="M206.569 256.406L210.401 250.998" stroke="#E56441" stroke-width="0.94666" stroke-linecap="round"/>
<path d="M196.231 261.578C196.199 258.258 193.839 254.24 193.839 254.24L196.231 261.578Z" fill="#E56441"/>
<path d="M196.231 261.578C196.199 258.258 193.839 254.24 193.839 254.24" stroke="#E56441" stroke-width="0.94666" stroke-linecap="round"/>
<path d="M146.318 308.896L183.356 267.251C183.591 267.006 183.926 266.844 184.296 266.795C184.665 266.747 185.043 266.815 185.355 266.988L195.054 272.403C195.515 272.667 195.843 273.066 195.975 273.523C196.107 273.979 196.033 274.461 195.768 274.874L165.984 321.252L146.318 308.896Z" fill="#5661AE"/>
<path d="M155.318 326.486C162.168 326.486 167.721 321.797 167.721 316.013C167.721 310.23 162.168 305.541 155.318 305.541C148.468 305.541 142.915 310.23 142.915 316.013C142.915 321.797 148.468 326.486 155.318 326.486Z" fill="#5661AE"/>
<path d="M100.317 262.355C100.317 262.355 121.102 267 124.669 268.204C128.238 269.41 128.475 274.229 128.713 277.644C128.951 281.058 128.152 357.734 128.152 357.734L82.1542 356.241L47.7549 339.239C47.7549 339.239 49.2507 278.399 49.7263 275.587C50.202 272.776 46.464 270.355 50.5158 268.939L76.5617 263.13L100.317 262.355Z" fill="#5661AE"/>
<path d="M65.7051 289.67L66.0755 346.322L46.3008 327.712L55.8682 287.907L65.7051 289.67Z" fill="#465393"/>
<path d="M73.1695 263.996C73.1695 263.996 70.2272 268.992 73.1695 272.438C76.1119 275.885 87.8914 279.233 95.939 279.135C103.986 279.036 108.25 272.558 104.602 263.488L91.2737 260.327L76.5617 263.13L73.1695 263.996Z" fill="#465393"/>
<path d="M106.484 220.935C106.484 220.935 112.279 231.493 106.098 233.674C99.9171 235.855 100.637 221.447 106.484 220.935Z" fill="#93523E"/>
<path d="M99.9472 254.721L101.624 270.683C101.624 270.683 103.231 272.823 96.9716 273.947C92.945 274.669 82.1021 271.062 79.9983 269.98C79.1037 269.579 78.4029 268.927 78.0164 268.137C77.63 267.346 77.582 266.467 77.8805 265.65C78.5198 263.697 81.1693 247.424 81.1693 247.424L99.9472 254.721Z" fill="#FFCCB3"/>
<path d="M100.269 257.798L90.2817 253.632L101.416 268.715L100.269 257.798Z" fill="#FF967C"/>
<path d="M103.155 223.99C103.155 223.99 109.017 236.402 111.143 245.109C113.288 253.894 109.865 256.088 105.35 257.379C101.787 258.399 96.0996 259.211 92.2306 258.188C85.1748 256.323 78.2723 250.94 76.6215 249.835C74.0655 248.123 71.5421 240.358 75.2881 235.965C79.0347 231.572 93.7953 217.767 103.155 223.99Z" fill="#FFCCB3"/>
<path d="M95.6095 241.122C96.3891 240.863 96.6414 239.839 96.1731 238.834C95.7049 237.829 94.694 237.225 93.9144 237.484C93.1348 237.743 92.8825 238.767 93.3501 239.772C93.8184 240.777 94.8299 241.381 95.6095 241.122Z" fill="#080B09"/>
<path d="M106.323 237.497C107.103 237.238 107.355 236.214 106.887 235.209C106.419 234.205 105.408 233.6 104.628 233.859C103.848 234.118 103.596 235.142 104.064 236.147C104.532 237.151 105.544 237.756 106.323 237.497Z" fill="#080B09"/>
<path d="M102.394 239.211C102.394 239.211 101.442 241.643 103.443 241.406C105.345 241.125 106.636 241.918 104.974 243.548" fill="#E56441"/>
<path d="M102.394 239.211C102.394 239.211 101.442 241.643 103.443 241.406C105.345 241.125 106.636 241.918 104.974 243.548" stroke="#E56441" stroke-width="0.94666" stroke-linecap="round"/>
<path d="M105.067 245.698L105.077 245.697L105.086 245.694C105.114 245.687 105.144 245.686 105.171 245.692C105.2 245.697 105.225 245.709 105.246 245.726C105.267 245.743 105.283 245.765 105.291 245.788C105.298 245.812 105.299 245.837 105.291 245.86L105.285 245.88L105.283 245.901C105.16 246.966 104.846 247.599 104.466 247.954C104.098 248.298 103.636 248.412 103.113 248.378C102.575 248.344 101.985 248.152 101.414 247.89C100.849 247.631 100.324 247.312 99.9184 247.039C99.8908 247.017 99.8704 246.99 99.8594 246.96C99.8471 246.928 99.8458 246.894 99.8557 246.861C99.8649 246.829 99.8852 246.798 99.9129 246.775C99.9412 246.751 99.9763 246.735 100.015 246.727L100.018 246.726C101.565 246.395 103.898 245.931 105.067 245.698Z" fill="#E56441" stroke="#E56441"/>
<path d="M88.8222 236.869L88.9686 237.043C89.1563 237.311 89.4621 237.507 89.8196 237.586C90.1765 237.665 90.5567 237.621 90.876 237.465L96.2828 234.652C96.551 234.525 96.7528 234.317 96.8488 234.071C96.9442 233.824 96.927 233.556 96.7996 233.319C96.7295 233.171 96.6236 233.038 96.4877 232.927C96.3523 232.816 96.1905 232.731 96.0126 232.677C95.8354 232.623 95.6465 232.602 95.4582 232.614C95.27 232.626 95.0872 232.672 94.9217 232.748L89.3686 235.388C89.2153 235.453 89.0794 235.543 88.968 235.654C88.8572 235.764 88.7735 235.892 88.7231 236.031C88.672 236.169 88.6542 236.314 88.6714 236.458C88.6886 236.602 88.7397 236.742 88.8222 236.869Z" fill="#080B09"/>
<path d="M107.5 229.657L101.155 230.153C100.967 230.17 100.786 230.22 100.623 230.3C100.459 230.38 100.319 230.489 100.209 230.619C100.099 230.748 100.024 230.895 99.9869 231.052C99.95 231.208 99.9524 231.369 99.9943 231.524C100.049 231.78 100.215 232.009 100.46 232.166C100.706 232.323 101.011 232.396 101.318 232.372L107.659 232.089C108.027 232.064 108.369 231.917 108.61 231.681C108.85 231.444 108.97 231.137 108.943 230.826L108.948 230.613C108.93 230.468 108.877 230.329 108.794 230.202C108.711 230.076 108.599 229.964 108.464 229.875C108.329 229.786 108.174 229.721 108.008 229.683C107.843 229.645 107.67 229.637 107.5 229.657Z" fill="#080B09"/>
<path d="M95.8812 226.467C95.8812 226.467 92.7142 231.555 86.9685 233.064C81.2227 234.573 84.3626 242.23 84.3626 242.23C84.3626 242.23 80.4228 238.92 75.8942 240.783C71.3649 242.646 74.8026 249.957 81.0597 250.05L79.3577 258.276C79.3577 258.276 76.1889 254.944 72.8564 253.161C69.5233 251.378 57.5513 244.458 62.8398 235.342C62.8398 235.342 58.7019 222.544 70.0506 215.908C81.3993 209.272 91.2221 211.777 91.2221 211.777C91.2221 211.777 93.9276 208.153 100.199 208.893C106.47 209.633 107.916 219.181 105.839 222.634C103.763 226.087 100.378 227.555 95.8812 226.467Z" fill="#93523E"/>
<path d="M48.5999 277.481C56.581 271.335 58.9376 275.106 61.2444 275.592C61.2444 275.592 68.9333 277.9 67.2461 283.475C65.4629 289.375 46.3011 327.712 46.3011 327.712L22.5718 321.785L24.318 317.533L28.8356 306.521L33.6608 294.746L34.1592 293.334L40.0194 277.778C40.0194 277.778 44.4416 280.777 48.5999 277.481Z" fill="#5661AE"/>
<path d="M64.4049 288.118C69.4326 283.159 68.7471 275.698 62.8747 271.453C57.0022 267.208 48.1658 267.787 43.1387 272.745C38.111 277.704 38.7959 285.165 44.669 289.41C50.5415 293.654 59.3773 293.076 64.4049 288.118Z" fill="#5661AE"/>
<path d="M43.9509 318.296L88.0056 354.746C88.2622 354.976 88.4086 355.278 88.4173 355.593C88.4259 355.908 88.2961 356.215 88.0524 356.455L80.4257 363.864C80.0559 364.216 79.5446 364.438 78.9908 364.489C78.4376 364.54 77.8814 364.416 77.431 364.14L26.8706 333.141L43.9509 318.296Z" fill="#5661AE"/>
<path d="M34.4164 335.37C41.2666 335.37 46.8198 330.682 46.8198 324.898C46.8198 319.114 41.2666 314.426 34.4164 314.426C27.5668 314.426 22.0137 319.114 22.0137 324.898C22.0137 330.682 27.5668 335.37 34.4164 335.37Z" fill="#5661AE"/>
<path d="M106.09 311.274L82.1811 367.203H34.1084C34.1084 365.495 34.912 363.857 36.3419 362.65C37.7725 361.442 39.712 360.764 41.7345 360.764H76.5135L97.1589 311.274H106.09Z" fill="white"/>
<path d="M106.09 311.274H170.589L145.644 367.203H82.1812L106.09 311.274Z" fill="url(#paint3_linear_9_1936)"/>
<path d="M196.152 128.879C196.152 128.879 206.899 126.967 210.308 131.38C213.716 135.793 217.125 144.083 224.852 143.008C232.578 141.933 238.486 120.251 246.213 120.444C253.939 120.635 250.53 134.834 258.938 135.026C267.347 135.218 265.301 127.159 272.119 127.159C278.936 127.159 276.663 144.428 285.526 144.619C294.389 144.812 293.48 122.362 306.887 122.746" stroke="white" stroke-width="5" stroke-miterlimit="10" stroke-linecap="round"/>
<path d="M164.78 125.896C170.253 114.544 164.983 102.006 153.01 97.8904C141.037 93.7747 126.894 99.6402 121.421 110.991C115.948 122.343 121.217 134.881 133.19 138.997C145.164 143.112 159.307 137.247 164.78 125.896Z" stroke="#FF967C" stroke-width="16.5208" stroke-miterlimit="10" stroke-linecap="round"/>
<path d="M154.249 136.88C147.931 140.398 140.19 141.403 133.19 138.997C121.217 134.881 115.948 122.343 121.421 110.991C126.894 99.6402 141.037 93.7747 153.01 97.8904" stroke="white" stroke-width="16.5208" stroke-miterlimit="10" stroke-linecap="round"/>
<path d="M204.229 96.5752H251.52" stroke="white" stroke-width="10" stroke-miterlimit="10" stroke-linecap="round"/>
<path opacity="0.6" d="M201.988 107.589H221.228" stroke="white" stroke-width="10" stroke-miterlimit="10" stroke-linecap="round"/>
<path d="M562.255 370.328C562.119 370.34 562.058 370.404 562.132 370.455C562.07 370.519 562.07 370.519 562.089 370.634C561.799 371.426 561.596 372.238 561.479 373.06L573.146 380.977L574.438 379.752C574.438 379.752 570.131 375.254 568.519 373.946C567.823 373.369 567.202 372.844 566.58 372.318C566.039 371.844 565.553 371.306 565.085 370.883C564.433 370.127 562.544 370.418 562.525 370.302C562.452 370.251 562.255 370.328 562.255 370.328Z" fill="#233B62"/>
<path d="M474.038 301.536L485.304 310.754L548.293 362.115L549.444 363L549.942 363.653L550.016 363.704L558.938 375.118L559.935 376.424L560.267 376.86L566.303 384.635L561.332 386.724L559.892 387.322L557.861 388.15L554.656 389.551L554.6 389.615L551.198 391.092L551.032 390.874L543.279 378.363C541.777 375.946 539.667 373.834 537.101 372.173L468.605 327.901L455.586 319.485L474.038 301.536Z" fill="#FFCCB3"/>
<path d="M558.077 364.129C555.056 362.945 551.665 361.886 548.355 362.051C550.349 363.528 551.259 366.156 552.582 368.071C555.296 372.014 562.255 379.341 558.698 385.568C556.699 389.067 551.112 390.926 551.032 390.874C550.096 394.468 545.463 409.095 554.705 400.616C559.867 395.881 564.987 390.823 567.559 385.802C568.617 383.744 566.383 381.691 565.288 379.953C563.885 377.323 561.793 373.84 562.058 370.928L562.113 370.865C562.267 370.663 574.235 379.71 574.438 379.752C574.85 379.19 575.81 378.054 575.81 378.054C575.81 378.054 558.649 364.309 558.077 364.129Z" fill="#1C85E8"/>
<path d="M429.188 411.975C429.081 411.904 428.984 411.914 428.996 411.995C428.9 412.005 428.9 412.005 428.815 412.096C427.954 412.492 427.136 412.953 426.372 413.472L428.155 426.021L430.093 425.907C430.093 425.907 430.741 420.15 430.668 418.26C430.648 417.437 430.64 416.695 430.632 415.953C430.637 415.293 430.737 414.623 430.752 414.044C430.914 413.12 429.319 412.21 429.404 412.118C429.393 412.037 429.188 411.975 429.188 411.975Z" fill="#233B62"/>
<path d="M423.106 310.716L423.522 323.954L426.011 397.861L426.1 399.172L425.915 399.933L425.926 400.015L422.851 413.442L422.482 414.964L422.358 415.472L420.235 424.596L414.949 423.151L413.424 422.729L411.286 422.12L407.838 421.232L407.742 421.242L404.09 420.292L404.152 420.038L408.972 406.517C409.898 403.9 410.139 401.146 409.68 398.443L397.387 326.355L395.048 312.65L423.106 310.716Z" fill="#FFCCB3"/>
<path d="M431.334 405.076C430.157 402.447 428.611 399.69 426.107 397.852C426.311 400.087 424.785 402.502 424.142 404.65C422.817 409.072 421.724 418.419 414.025 420.771C409.698 422.092 404.163 420.12 404.151 420.038C400.506 422.054 385.078 429.772 398.707 429.169C406.318 428.832 414.167 428.239 420.165 426.171C422.625 425.322 422.73 422.536 423.386 420.647C424.562 417.94 425.948 414.213 428.548 412.288L428.645 412.278C428.921 412.224 429.983 425.757 430.093 425.907C430.852 425.748 432.478 425.5 432.478 425.5C432.478 425.5 431.596 405.545 431.334 405.076Z" fill="#1C85E8"/>
<path d="M406.136 211.385L383.868 290.78L383.828 296.416L401.934 390.427L430.764 387.792L422.401 298.006L445.337 251.16L440.7 212.743L406.136 211.385Z" fill="#1F2D49"/>
<path d="M403.018 310.064C413.771 310.064 422.489 302.704 422.489 293.624C422.489 284.545 413.771 277.184 403.018 277.184C392.264 277.184 383.547 284.545 383.547 293.624C383.547 302.704 392.264 310.064 403.018 310.064Z" fill="#1F2D49"/>
<path d="M429.708 283.081L424.217 243.854L422.4 298.007L429.708 283.081Z" fill="#0D1B33"/>
<path d="M466.242 211.137C466.242 211.137 476.622 225.864 476.758 238.197C476.967 256.706 469.06 289.896 469.06 289.896L538.092 348.809L521.657 369.614C521.657 369.614 462.753 328.348 437.83 308.746L432.248 299.203L424.217 243.854L436.492 211.137H466.242Z" fill="#1F2D49"/>
<path d="M406.136 211.385L466.599 211.91L472.476 222.177L405.114 215.029L406.136 211.385Z" fill="#0D1B33"/>
<path d="M451.545 313.517C462.299 313.517 471.017 306.157 471.017 297.077C471.017 287.998 462.299 280.637 451.545 280.637C440.792 280.637 432.075 287.998 432.075 297.077C432.075 306.157 440.792 313.517 451.545 313.517Z" fill="#1F2D49"/>
<path d="M399.077 102.284C399.077 102.284 399.889 109.915 397.504 117.251C395.119 124.587 377.061 140.121 393.075 152.779C409.088 165.436 428.678 131.491 428.678 131.491L422.545 115.813L401.338 97.1833L399.077 102.284Z" fill="#1F2D49"/>
<path d="M447.933 104.066C447.933 104.066 452.739 109.22 463.689 113.434C474.432 117.569 486 124.365 483.618 139.18C481.231 153.995 449.47 142.489 440.139 134.002C430.808 125.516 432.092 110.364 432.092 110.364L447.933 104.066Z" fill="#1F2D49"/>
<path d="M423.369 131.826C423.369 131.826 411.18 135.898 409.319 137.154C407.458 138.412 405.691 148.671 402.527 153.541C399.364 158.412 394.736 167.403 401.495 175.661C408.255 183.919 407.536 190.477 407.536 190.477L406.098 211.193L464.353 212.099C464.87 212.113 465.381 212.034 465.855 211.869C466.328 211.704 466.753 211.455 467.11 211.14C467.461 210.825 467.725 210.45 467.897 210.04C468.064 209.631 468.125 209.195 468.082 208.764C467.436 202.724 464.476 194.242 464.242 184.625C463.929 171.591 463.695 128.04 463.695 128.04L438.315 127.367C433.203 128.111 423.369 131.826 423.369 131.826Z" fill="#FEBB94"/>
<path d="M453.705 145.843C453.705 145.843 445.215 152.379 444.716 157.228C444.217 162.077 443.062 175.598 432.15 176.947C418.777 178.6 415.276 180.209 421.476 181.474C427.675 182.74 441.746 180.69 441.746 186.113C441.746 189.972 447.212 192.859 449.96 190.751C452.707 188.643 474.586 156.595 453.705 145.843Z" fill="#FF967C"/>
<path d="M351.311 151.321L346.709 146.347C345.745 145.182 344.464 144.231 342.973 143.572C340.708 142.615 337.236 140.829 336.029 139.044C334.03 136.206 326.149 128.541 332.985 122.584C335.516 120.385 334.883 120.905 339.941 120.971C345 121.037 345.776 125.469 348.304 128.37C348.304 128.37 348.872 125.024 351.666 123.495C354.461 121.966 352.606 131.304 354.756 134.843C356.905 138.382 355.168 139.72 360.261 145.938L351.311 151.321Z" fill="#FFCCB3"/>
<path d="M339.172 121.482L343.283 129.356L339.172 121.482Z" fill="#E56441"/>
<path d="M339.172 121.482L343.283 129.356" stroke="#E56441" stroke-width="0.94666" stroke-linecap="round"/>
<path d="M333.811 122.882L339.506 131.267L333.811 122.882Z" fill="#E56441"/>
<path d="M333.811 122.882L339.506 131.267" stroke="#E56441" stroke-width="0.94666" stroke-linecap="round"/>
<path d="M330.447 128.395L334.937 133.401L330.447 128.395Z" fill="#E56441"/>
<path d="M330.447 128.395L334.937 133.401" stroke="#E56441" stroke-width="0.94666" stroke-linecap="round"/>
<path d="M347.247 130.154C347.247 130.154 345.507 134.361 345.808 137.677L347.247 130.154Z" fill="#E56441"/>
<path d="M347.247 130.154C347.247 130.154 345.507 134.361 345.808 137.677" stroke="#E56441" stroke-width="0.94666" stroke-linecap="round"/>
<path d="M412.28 135.8C407.555 137.183 400.968 139.987 399.185 143.117L383.435 173.412L357.205 139.76L347.272 148.594L371.768 191.372C376.244 200.779 387.615 204.314 395.852 194.175L409.012 176.722L412.28 135.8Z" fill="#FEBB94"/>
<path d="M405.564 161.878C405.564 161.878 404.144 159.81 404.144 170.607L395.853 194.175L409.012 176.722C419.57 164.738 411.229 161.537 405.564 161.878Z" fill="#FF967C"/>
<path d="M434.439 147.584L390.932 162.216C389.58 162.671 388.921 163.965 389.46 165.106L411.235 211.265C411.774 212.407 413.306 212.963 414.658 212.509L458.165 197.876C459.517 197.422 460.176 196.128 459.637 194.987L437.862 148.828C437.323 147.686 435.791 147.13 434.439 147.584Z" fill="#1C85E8"/>
<path d="M397.57 166.558L415.511 160.524" stroke="white" stroke-width="4" stroke-miterlimit="10" stroke-linecap="round"/>
<path d="M400.28 171.982L408.457 169.231" stroke="white" stroke-width="4" stroke-miterlimit="10" stroke-linecap="round"/>
<path d="M421.827 120.974L422.512 137.167C422.512 137.167 421.574 140.713 425.884 140.32C430.194 139.927 435.997 137.061 439.258 133.913C442.52 130.766 442.297 130.514 440.899 128.448C439.501 126.383 432.938 110.641 432.938 110.641L421.827 120.974Z" fill="#FFCCB3"/>
<path d="M421.924 122.332L429.871 118.059C429.871 118.059 426.35 131.108 422.511 137.167L421.924 122.332Z" fill="#FCBA9F"/>
<path d="M400.496 96.7412C400.496 96.7412 400.369 112.856 408.604 120.967C413.974 126.256 419.624 125.554 429.047 116.847C437.687 108.863 438.899 104.702 438.899 104.702L432.933 88.8921C432.933 88.8921 401.466 82.0749 400.496 96.7412Z" fill="#FFCCB3"/>
<path d="M408.691 93.0028C408.691 93.0028 412.14 100.075 418.546 102.051C424.951 104.028 426.627 107.703 426.627 107.703C426.627 107.703 427.856 101.656 432.891 101.876C437.925 102.096 436.902 109.6 433.777 112.092C433.777 112.092 437.536 117.979 440.723 122.332L454.683 110.635C454.683 110.635 447.491 103.614 445.909 97.9653C444.328 92.3165 439.21 77.194 419.698 78.1957C396.789 79.3714 398.104 95.0897 399.078 103.82C399.078 103.82 406.262 101.494 408.691 93.0028Z" fill="#1F2D49"/>
<path d="M411.17 115.983L416.739 113.677C416.744 113.703 416.749 113.732 416.753 113.761C416.791 114.008 416.808 114.347 416.728 114.72C416.572 115.449 416.041 116.334 414.458 116.908C413.442 117.186 412.576 116.912 411.94 116.547C411.621 116.364 411.367 116.161 411.193 116.004C411.185 115.997 411.178 115.99 411.17 115.983Z" fill="#E56441" stroke="#E56441"/>
<path d="M405.104 109.439C405.808 109.292 406.171 108.463 405.915 107.587C405.659 106.711 404.881 106.12 404.177 106.267C403.473 106.414 403.11 107.243 403.366 108.119C403.622 108.994 404.4 109.586 405.104 109.439Z" fill="#080B09"/>
<path d="M415.539 107.397C416.243 107.25 416.606 106.421 416.35 105.545C416.094 104.67 415.316 104.079 414.612 104.225C413.908 104.372 413.545 105.201 413.801 106.077C414.057 106.953 414.836 107.544 415.539 107.397Z" fill="#080B09"/>
<path d="M401.055 104.717L406.366 103.687C406.455 103.663 406.53 103.613 406.578 103.546C406.626 103.478 406.643 103.399 406.627 103.322C406.568 103.19 406.479 103.07 406.363 102.968C406.247 102.866 406.108 102.785 405.955 102.73C405.801 102.675 405.636 102.647 405.469 102.647C405.301 102.648 405.137 102.677 404.983 102.732L400.819 104.222C400.472 104.294 400.622 104.807 401.055 104.717Z" fill="#080B09"/>
<path d="M418.887 100.703L411.97 102.533C411.924 102.351 411.923 102.162 411.969 101.98C412.014 101.797 412.104 101.625 412.233 101.473C412.363 101.322 412.528 101.195 412.718 101.101C412.909 101.007 413.121 100.948 413.34 100.927L418.866 100.319C419.04 100.283 419.147 100.649 418.887 100.703Z" fill="#080B09"/>
<path d="M408.828 106.51L408.078 111.239L410.056 112.045" fill="#E56441"/>
<path d="M408.828 106.51L408.078 111.239L410.056 112.045" stroke="#E56441" stroke-width="0.94666" stroke-linecap="round"/>
<path d="M414.093 189.414L396.94 193.57L394.843 202.495L398.745 212.373C398.745 212.373 401.489 210.814 400.917 207.179C400.345 203.542 414.84 203.646 417.497 199.075" fill="#FFCCB3"/>
<path d="M453.277 140.222C453.277 140.222 453.165 127.954 464.803 127.953C472.611 127.952 476.346 131.042 477.343 140.687C478.038 147.43 478.542 184.427 478.542 184.427C478.542 184.427 480.505 201.312 463.541 201.628L414.56 200.389L413.455 188.834L456.153 185.241L453.277 140.222Z" fill="#FEBB94"/>
<path d="M417.858 138.688C417.858 138.688 422.274 137.627 421.558 133.964C420.86 130.359 420.833 127.229 422.234 127.665C422.234 127.665 423.47 129.455 431.157 127.465C438.794 125.55 438.315 123.338 438.315 123.338C438.315 123.338 439.396 122.53 440.203 124.605C441.009 126.68 443.055 132.426 447.38 132.012L448.549 142.722L425.547 149.115C425.497 149.189 414.865 140.494 417.858 138.688Z" fill="#FEBB94"/>
<path d="M230.247 352.414H244.719" stroke="white" stroke-width="5" stroke-miterlimit="10" stroke-linecap="round"/>
<path opacity="0.5" d="M233.193 357.717H240.429" stroke="white" stroke-width="5" stroke-miterlimit="10" stroke-linecap="round"/>
<path d="M220.606 341.826L231.711 335.288L239.533 339.686L249.944 333.32" stroke="white" stroke-width="6.50414" stroke-linecap="round" stroke-linejoin="round"/>
<path d="M241.94 330.545H253.015V339.798" stroke="white" stroke-width="6.50414" stroke-linecap="round" stroke-linejoin="round"/>
<path d="M373.068 43.2447H330.148C329.623 43.2618 329.101 43.1751 328.623 42.9911C328.145 42.8078 327.724 42.5319 327.395 42.1869C327.065 41.8414 326.837 41.4362 326.726 41.0024C326.615 40.5691 326.625 40.1202 326.757 39.6906L333.354 11.0542C333.608 10.0756 334.239 9.19584 335.149 8.55271C336.059 7.90964 337.195 7.53953 338.381 7.5004H381.302C381.826 7.48331 382.348 7.57007 382.826 7.75373C383.304 7.93738 383.725 8.21284 384.054 8.55812C384.384 8.9034 384.613 9.30894 384.723 9.74233C384.834 10.1757 384.824 10.625 384.692 11.0542L378.095 39.6906C377.841 40.6694 377.21 41.5489 376.3 42.1921C375.39 42.8353 374.254 43.2052 373.068 43.2447Z" fill="#1C85E8"/>
<path d="M343.628 15.2454L372.207 15.25C372.413 15.2425 372.616 15.2751 372.804 15.3454C372.992 15.4157 373.157 15.5216 373.288 15.6547C373.419 15.7882 373.511 15.9456 373.559 16.114C373.606 16.2828 373.606 16.4579 373.559 16.6267L373.168 18.4331C373.102 18.6955 372.966 18.9418 372.769 19.1522C372.572 19.3631 372.32 19.5325 372.032 19.6468L356.375 26.0094C356.133 26.1175 355.863 26.1736 355.589 26.1721C355.315 26.171 355.046 26.1123 354.805 26.0017L341.924 19.4462C341.689 19.3221 341.506 19.1392 341.399 18.9231C341.292 18.7064 341.268 18.468 341.33 18.2394L341.68 16.6215C341.776 16.2412 342.019 15.8989 342.373 15.6495C342.726 15.3999 343.168 15.2576 343.628 15.2454Z" fill="white"/>
<path d="M342.21 21.823L354.532 28.3494C354.699 28.4289 354.888 28.4709 355.08 28.4709C355.272 28.4709 355.461 28.4289 355.628 28.3494L370.777 21.8277C371.591 21.477 372.412 21.9217 372.259 22.6309L370.007 33.0272C369.835 33.7104 369.397 34.3255 368.763 34.7739C368.128 35.2222 367.334 35.4778 366.507 35.4997L340.557 35.4955C340.188 35.509 339.822 35.4503 339.484 35.3241C339.148 35.1978 338.85 35.0077 338.615 34.7682C338.379 34.5281 338.213 34.246 338.129 33.9431C338.045 33.6403 338.044 33.3249 338.128 33.022L340.38 22.6257C340.415 22.4605 340.495 22.3041 340.613 22.1685C340.731 22.0329 340.884 21.9223 341.061 21.8449C341.238 21.7674 341.433 21.7248 341.633 21.7212C341.832 21.717 342.029 21.7519 342.21 21.823Z" fill="white"/>
<path d="M382.785 15.0007C387.691 15.0007 391.668 11.6427 391.668 7.50035C391.668 3.35803 387.691 0 382.785 0C377.879 0 373.902 3.35803 373.902 7.50035C373.902 11.6427 377.879 15.0007 382.785 15.0007Z" fill="#FF967C"/>
<path d="M383.407 173.401L390.772 182.641L386.845 166.855L383.407 173.401Z" fill="#FF967C"/>
<defs>
<linearGradient id="paint0_linear_9_1936" x1="256.838" y1="89.8408" x2="264.857" y2="251.078" gradientUnits="userSpaceOnUse">
<stop stop-color="white"/>
<stop offset="1" stop-color="#94B9FF"/>
</linearGradient>
<linearGradient id="paint1_linear_9_1936" x1="228.075" y1="137.416" x2="261.795" y2="417.359" gradientUnits="userSpaceOnUse">
<stop stop-color="white"/>
<stop offset="1" stop-color="#94B9FF"/>
</linearGradient>
<linearGradient id="paint2_linear_9_1936" x1="349.802" y1="137.416" x2="383.522" y2="417.359" gradientUnits="userSpaceOnUse">
<stop stop-color="white"/>
<stop offset="1" stop-color="#94B9FF"/>
</linearGradient>
<linearGradient id="paint3_linear_9_1936" x1="124.184" y1="311.141" x2="132.375" y2="430.555" gradientUnits="userSpaceOnUse">
<stop stop-color="white"/>
<stop offset="1" stop-color="#94B9FF"/>
</linearGradient>
</defs>
</svg>
