<svg width="566" height="616" fill="none" xmlns="http://www.w3.org/2000/svg"><g clip-path="url(#clip0_17_2185)"><path opacity=".4" d="M375.833 431.508l-61.688-35.728c-4.44-2.563-3.887-7.059 1.23-10.029l39.953-23.112 77.789 44.98-39.965 23.113c-5.105 3.018-12.879 3.339-17.319.776z" fill="#D6D8E5"/><path d="M381.392 428.231l-61.675-35.666c-4.453-2.575-3.887-7.06 1.23-10.029l39.965-23.112 77.789 44.98-39.952 23.1c-5.13 2.982-12.904 3.302-17.357.727z" fill="#B1B4C4"/><path d="M438.713 404.404v-2.353l-3.591 2.07 3.591.283zM316.716 388.314v-2.39l3.69 1.527-3.69.863z" fill="#B1B4C4"/><path d="M381.392 425.878l-61.675-35.667c-4.453-2.575-3.887-7.072 1.23-10.041l39.965-23.1 77.789 44.981-39.965 23.1c-5.117 2.969-12.891 3.301-17.344.727z" fill="#D6D8E5"/><path d="M361.133 357.169l-9.631-31.982 78.638 45.165 8.573 31.699-77.58-44.882z" fill="#9EA1AF"/><path d="M436.425 403.369l2.288-1.318-3.395-2.711 1.107 4.029z" fill="#9EA1AF"/><path d="M358.649 358.376l-9.619-31.995 78.638 45.178 8.758 31.81-77.777-44.993z" fill="#B1B4C4"/><path d="M558.263 457.281L253.884 281.266c-4.268-2.464-7.724-9.093-7.724-14.784V30.652c0-5.704 3.456-8.328 7.724-5.852l304.379 176.016c4.281 2.464 7.737 9.092 7.737 14.784v235.829c0 5.705-3.456 8.316-7.737 5.852z" fill="#B1B4C4"/><path d="M559.837 459.708l3.371-1.946-1.452-10.016-1.919 11.962zM245.606 26.254l3.321-1.922 4.773 2.772s-5.08.776-5.203.752c-.123-.025-2.891-1.602-2.891-1.602z" fill="#B1B4C4"/><path d="M555.483 458.895L251.092 282.879c-4.268-2.464-7.725-9.092-7.725-14.784V32.265c0-5.703 3.457-8.327 7.725-5.851L555.483 202.43c4.268 2.464 7.724 9.092 7.724 14.784v235.829c0 5.704-3.456 8.316-7.724 5.852z" fill="#E4E7F2"/><path d="M562.679 217.522v235.854c0 5.716-3.469 8.341-7.737 5.852l-304.391-176.04c-4.268-2.464-7.725-9.093-7.725-14.784V32.574c0-5.704 3.457-8.316 7.725-5.852l304.391 176.016c4.268 2.464 7.737 9.092 7.737 14.784z" fill="#D6D8E5"/><path d="M558.447 444.863L246.688 264.56l.173-231.037c0-2.378 1.648-3.327 3.69-2.144l304.391 176.003a8.224 8.224 0 013.69 6.432l-.185 231.049z" fill="#fff"/><path d="M539.185 244.01L262.802 84.183a7.514 7.514 0 01-3.149-6.012V58.188c0-2.317 1.403-3.389 3.149-2.378L539.185 215.6a7.58 7.58 0 013.148 6.025v19.983c0 2.328-1.414 3.412-3.148 2.402z" fill="#E9EAF2"/><path d="M276.598 82.848c2.366-1.367 2.366-5.8.002-9.902-2.364-4.101-6.198-6.317-8.563-4.95-2.365 1.368-2.366 5.801-.002 9.903 2.365 4.1 6.198 6.317 8.563 4.95zM416.006 161.145l-23.9-13.835a1.861 1.861 0 01-.787-1.503v-3.166c0-.592.344-.85.787-.604l23.9 13.836a1.861 1.861 0 01.787 1.503v3.166c0 .579-.344.85-.787.603zM454.704 183.568l-23.9-13.823a1.874 1.874 0 01-.787-1.503v-3.179c0-.579.344-.85.787-.591l23.9 13.823a1.861 1.861 0 01.787 1.503v3.178c0 .592-.369.789-.787.592zM492.774 205.534l-23.912-13.823a1.937 1.937 0 01-.787-1.515v-3.166c0-.579.356-.85.787-.604l23.912 13.835a1.856 1.856 0 01.788 1.503v3.167c0 .591-.308.813-.788.603zM531.472 227.92l-23.912-13.823a1.914 1.914 0 01-.788-1.503v-3.154c0-.579.357-.85.788-.591l23.912 13.823a1.878 1.878 0 01.787 1.503v3.178c0 .567-.356.814-.787.567z" fill="#DADCE5"/><path d="M518.261 293.622l-64.971-37.576a7.538 7.538 0 01-3.088-5.95v-42.061c0-2.316 1.402-3.375 3.137-2.377l64.972 37.563a7.58 7.58 0 013.149 6.025v41.986c-.05 2.329-1.464 3.388-3.199 2.39zM432.686 307.261l-162.971-94.248a3.795 3.795 0 01-1.574-3.006v-7.232c0-1.158.713-1.688 1.574-1.232l162.971 94.235a3.765 3.765 0 011.574 3.007v7.231c-.049 1.208-.701 1.737-1.574 1.245zM416.646 315.084l-146.451-84.7a3.756 3.756 0 01-1.574-3.006v-3.598c0-1.158.701-1.7 1.574-1.232l146.451 84.688a3.792 3.792 0 011.575 3.006v3.598c0 1.207-.714 1.749-1.575 1.244zM416.646 328.722l-146.451-84.675a3.79 3.79 0 01-1.574-3.019v-3.597c0-1.158.701-1.688 1.574-1.232l146.451 84.675a3.813 3.813 0 011.575 3.019v3.597c0 1.208-.714 1.737-1.575 1.232zM379.203 320.727l-109.008-63.042a3.747 3.747 0 01-1.145-1.315 3.747 3.747 0 01-.429-1.691v-3.597c0-1.158.701-1.701 1.574-1.232l109.008 63.078a3.698 3.698 0 011.575 3.006v3.598c0 1.158-.689 1.687-1.575 1.195zM519.836 311.08l-68.109-39.424a3.756 3.756 0 01-1.574-3.006v-3.598c0-1.158.701-1.7 1.574-1.232l68.109 39.424a3.777 3.777 0 011.574 3.019v3.597c0 1.195-.701 1.725-1.574 1.22zM519.836 324.731l-68.109-39.424a3.777 3.777 0 01-1.574-3.019v-3.597c0-1.158.701-1.688 1.574-1.232l68.109 39.424c.479.342.872.792 1.145 1.315.274.522.421 1.101.429 1.691v3.597c0 1.208-.701 1.762-1.574 1.245zM502 328.057l-50.273-29.075a3.765 3.765 0 01-1.574-3.007v-3.597c0-1.158.701-1.7 1.574-1.232L502 320.32a3.772 3.772 0 011.574 3.018v3.585c0 1.109-.701 1.639-1.574 1.134zM518.261 398.774l-64.971-37.576a7.53 7.53 0 01-3.088-6.013v-41.998c0-2.317 1.402-3.388 3.137-2.378l64.972 37.563a7.58 7.58 0 013.149 6.025v41.986c-.05 2.329-1.464 3.388-3.199 2.391zM519.836 416.231l-68.109-39.424a3.747 3.747 0 01-1.145-1.315 3.747 3.747 0 01-.429-1.691v-3.597c0-1.158.701-1.7 1.574-1.232l68.109 39.424a3.772 3.772 0 011.574 3.018v3.598c0 1.195-.701 1.724-1.574 1.219z" fill="#E9EAF2"/><path d="M472.245 248.408l-4.564-11.766-8.303 11.828 9.115 5.273 7.491 4.336 16.704 9.659-12.091-31.231-8.352 11.901zM509.754 255.639c2.124-1.228 2.122-5.214-.004-8.903-2.127-3.689-5.572-5.684-7.696-4.455-2.124 1.228-2.122 5.214.005 8.902 2.126 3.689 5.571 5.684 7.695 4.456zM472.712 355.112l-4.551-11.766-8.303 11.827 9.115 5.273 7.491 4.324 16.704 9.659-12.104-31.219-8.352 11.902zM512.233 363.784c2.133-1.229 2.139-5.228.013-8.934-2.126-3.706-5.58-5.714-7.713-4.486-2.134 1.228-2.14 5.228-.013 8.934 2.126 3.705 5.579 5.714 7.713 4.486z" fill="#DADCE5"/><path d="M430.804 276.719l-157.89-90.847a6.757 6.757 0 01-2.83-5.396V106.79c0-2.07 1.231-3.031 2.83-2.132l157.89 90.848a6.775 6.775 0 012.817 5.396v73.686c0 2.082-1.267 3.043-2.817 2.131z" fill="#E9EAF2"/><path d="M316.777 183.938l-7.798-20.119-14.195 20.229 15.585 9.006 12.805 7.405 28.562 16.521-20.69-53.395-14.269 20.353zM409.911 217.234c3.636-2.103 3.637-8.918.002-15.223-3.634-6.305-9.528-9.712-13.164-7.61-3.636 2.103-3.637 8.918-.002 15.223 3.634 6.305 9.528 9.712 13.164 7.61z" fill="#DADCE5"/><path opacity=".05" d="M278.584 158.928v110.387c0 4.115-2.46 6.012-5.584 4.226l-30.174-17.408V130.838L273 148.271c3.075 1.787 5.584 6.579 5.584 10.657z" fill="#000"/><path d="M249.776 121.537l-92.697-53.605a3.687 3.687 0 00-3.284-.455 2.898 2.898 0 00-.702.406l-2.903 1.688 1.353 1.811v111.163c0 4.115 2.461 8.895 5.585 10.682l90.938 52.594 1.157 3.696 3.973-2.23c.2-.089.39-.201.566-.333a5.285 5.285 0 001.635-4.336V132.231c-.036-4.103-2.533-8.908-5.621-10.694z" fill="#D6D8E5"/><path d="M245.914 249.024l-92.71-53.604c-3.075-1.787-5.584-6.567-5.584-10.694V74.351c0-4.115 2.46-6.012 5.584-4.226l92.71 53.605c3.087 1.786 5.584 6.566 5.584 10.694v110.374c0 4.066-2.497 6.013-5.584 4.226z" fill="#F5F7FC"/><path d="M162.146 188.964l2.227 1.294V92.08l-2.227-1.294v98.178z" fill="#DADCE5"/><path d="M163.266 137.503a9.363 9.363 0 01-3.912-7.478v-11.519c0-2.883 1.747-4.201 3.912-2.957a9.371 9.371 0 013.899 7.478v11.52c0 2.882-1.746 4.213-3.899 2.956z" fill="#F9CB07"/><path d="M186.059 202.442l2.239 1.294V105.57l-2.239-1.294v98.166z" fill="#DADCE5"/><path d="M187.178 183.285a9.424 9.424 0 01-3.911-7.491v-11.519c0-2.883 1.759-4.201 3.911-2.957a9.374 9.374 0 013.912 7.478v11.52c0 2.882-1.747 4.213-3.912 2.969z" fill="#F9CB07"/><path d="M209.983 216.278l2.239 1.293v-98.178l-2.239-1.293v98.178z" fill="#DADCE5"/><path d="M211.103 151.906a9.395 9.395 0 01-2.844-3.273 9.396 9.396 0 01-1.068-4.205v-11.52c0-2.883 1.747-4.213 3.912-2.969a9.424 9.424 0 013.912 7.491v11.519c0 2.883-1.759 4.201-3.912 2.957z" fill="#F9CB07"/><path d="M233.908 230.113l2.227 1.281v-98.165l-2.227-1.294v98.178z" fill="#DADCE5"/><path d="M235.028 191.563a9.35 9.35 0 01-3.912-7.478v-11.519c0-2.883 1.747-4.201 3.912-2.957a9.38 9.38 0 013.899 7.478v11.52c0 2.883-1.747 4.213-3.899 2.956z" fill="#F9CB07"/><path opacity=".3" d="M190.954 372.077c18.886 0 34.196-8.853 34.196-19.774 0-10.921-15.31-19.774-34.196-19.774-18.885 0-34.195 8.853-34.195 19.774 0 10.921 15.31 19.774 34.195 19.774z" fill="#D6D8E5"/><path d="M199.417 366.988c18.886 0 34.196-8.853 34.196-19.773 0-10.921-15.31-19.774-34.196-19.774-18.885 0-34.195 8.853-34.195 19.774 0 10.92 15.31 19.773 34.195 19.773z" fill="#DD990E"/><path d="M165.234 347.51v-9.006l6.753 6.025-6.753 2.981zM233.613 338.738v8.476l-3.457 3.672-1.685-9.696 5.142-2.452z" fill="#DD990E"/><path d="M199.417 358.512c18.886 0 34.196-8.853 34.196-19.774 0-10.92-15.31-19.773-34.196-19.773-18.885 0-34.195 8.853-34.195 19.773 0 10.921 15.31 19.774 34.195 19.774z" fill="#F9CB07"/><path d="M223.871 339.354c-.345 3.327-2.719 6.616-7.122 9.166-9.57 5.52-25.069 5.52-34.626 0-4.416-2.55-6.778-5.839-7.122-9.166-.406-3.893 1.968-7.885 7.122-10.854 9.557-5.531 25.056-5.531 34.626 0 5.141 2.969 7.515 6.961 7.122 10.854z" fill="#CC8B09"/><path d="M223.871 339.354c-.345 3.327-2.719 6.616-7.122 9.166-9.57 5.52-25.069 5.52-34.626 0-4.416-2.55-6.778-5.839-7.123-9.166.345-3.326 2.707-6.615 7.123-9.166 9.557-5.531 25.056-5.531 34.626 0 4.391 2.551 6.765 5.84 7.122 9.166z" fill="#E8A30A"/><path d="M199.061 334.722a4.582 4.582 0 00-.898.074c-.406 0-.849.135-1.353.246a22.51 22.51 0 00-1.563.394c-.523.157-1.033.355-1.525.592l3.924 2.267.713-.247a46.955 46.955 0 012.83-.85 13.05 13.05 0 012.546-.419 8.606 8.606 0 012.337.161c.79.164 1.546.46 2.239.874.685.341 1.27.855 1.697 1.491a2.035 2.035 0 01.246 1.54 3.359 3.359 0 01-.922 1.515 9.524 9.524 0 01-1.796 1.417l2.46 1.442-1.353.788-2.534-1.454a20.31 20.31 0 01-3.69 1.417c-1.357.381-2.744.64-4.146.776l-1.316-2.365c.371-.007.74-.036 1.107-.086a14.605 14.605 0 001.649-.284 25.49 25.49 0 001.918-.493 12.97 12.97 0 001.919-.714l-3.911-2.255-.505.173-.541.16c-.888.302-1.791.557-2.706.764a12.29 12.29 0 01-2.3.308 7.831 7.831 0 01-2.042-.185 6.94 6.94 0 01-1.882-.764 4.925 4.925 0 01-1.636-1.404 2.472 2.472 0 01-.443-1.528 2.835 2.835 0 01.64-1.528 7.384 7.384 0 011.599-1.441l-2.325-1.343 1.365-.789 2.301 1.331a16.238 16.238 0 013.37-1.232 25.889 25.889 0 013.383-.616l1.144 2.267zm-6.68 4.078a2.879 2.879 0 001.698.369c.8-.092 1.587-.269 2.349-.529l-3.69-2.132c-1.341.937-1.464 1.701-.357 2.292zm12.904 1.072a2.9 2.9 0 00-1.833-.321c-.873.106-1.734.296-2.571.567l3.69 2.107c1.526-.9 1.772-1.688.714-2.304v-.049z" fill="#CC8B09"/><path d="M196.945 344.381v-1.331l1.5.974-.651.997-.849-.64zM210.033 345.219v-1.331l-3.248.259 1.87 1.269 1.378-.197zM210.315 340.352v-1.343l-2.435.875 2.435.468zM200.229 340.279l.812-.777 2.854 1.972-.173.591s-2.14-.899-2.214-.961l-1.279-.825zM192.75 336.089l3.789 2.156.775-.566s-.467-.542-.504-.604a5.344 5.344 0 00-1.23-.986c-.283 0-2.079-.862-2.079-.862l-.751.862zM199.061 334.722v-1.331l-1.747-.566-.369 1.047.098.468 2.018.382zM187.486 333.761v-1.33l2.017.221-.652 1.282-1.365-.173zM187.56 338.27v-1.379h2.324l-.565 1.232-1.009 1.108-.75-.961z" fill="#CC8B09"/><path d="M199.061 333.392a4.582 4.582 0 00-.898.074 22.51 22.51 0 00-2.916.64c-.523.157-1.033.354-1.525.592l3.924 2.267.713-.247a46.955 46.955 0 012.83-.85 13.05 13.05 0 012.546-.419 8.646 8.646 0 012.337.16c.79.165 1.546.46 2.239.875.685.341 1.27.855 1.697 1.491a2.035 2.035 0 01.246 1.54 3.359 3.359 0 01-.922 1.515 9.524 9.524 0 01-1.796 1.417l2.46 1.454-1.353.788-2.534-1.466a20.31 20.31 0 01-3.69 1.417c-1.357.381-2.744.64-4.146.776l-1.316-2.365c.371-.007.74-.036 1.107-.087a14.381 14.381 0 001.649-.283 25.98 25.98 0 001.918-.493 13.199 13.199 0 001.919-.714l-3.911-2.255-.505.173-.541.16c-.888.302-1.791.557-2.706.764-.754.18-1.525.284-2.3.308a7.831 7.831 0 01-2.042-.185 6.971 6.971 0 01-1.882-.764 4.742 4.742 0 01-1.636-1.405 2.464 2.464 0 01-.443-1.515 2.86 2.86 0 01.64-1.54 7.358 7.358 0 011.599-1.441l-2.325-1.343 1.365-.789 2.301 1.331a16.92 16.92 0 013.37-1.232 23.95 23.95 0 013.383-.604l1.144 2.255zm-6.68 4.176a2.872 2.872 0 001.698.37c.8-.092 1.587-.27 2.349-.53l-3.69-2.131c-1.341.838-1.464 1.601-.357 2.291zm12.904 1.084a2.901 2.901 0 00-1.833-.332c-.872.112-1.733.301-2.571.566l3.69 2.12c1.526-.974 1.772-1.799.714-2.403v.049z" fill="#F9CA06"/><path d="M202.21 356.442c18.886 0 34.196-8.853 34.196-19.773 0-10.921-15.31-19.774-34.196-19.774-18.886 0-34.196 8.853-34.196 19.774 0 10.92 15.31 19.773 34.196 19.773z" fill="#DD990E"/><path d="M168.026 336.964v-9.006l6.753 6.025-6.753 2.981zM236.405 328.192v8.477l-3.456 3.671-1.685-9.696 5.141-2.452z" fill="#DD990E"/><path d="M202.21 347.966c18.886 0 34.196-8.853 34.196-19.773 0-10.921-15.31-19.774-34.196-19.774-18.886 0-34.196 8.853-34.196 19.774 0 10.92 15.31 19.773 34.196 19.773z" fill="#F9CB07"/><path d="M226.651 328.808c-.344 3.327-2.718 6.616-7.122 9.166-9.57 5.52-25.069 5.52-34.626 0-4.416-2.55-6.778-5.839-7.122-9.166-.406-3.893 1.968-7.884 7.122-10.854 9.557-5.531 25.056-5.531 34.626 0 5.154 2.97 7.528 6.961 7.122 10.854z" fill="#CC8B09"/><path d="M226.651 328.808c-.344 3.327-2.718 6.616-7.122 9.167-9.57 5.519-25.069 5.519-34.626 0-4.416-2.551-6.778-5.84-7.122-9.167.344-3.326 2.706-6.615 7.122-9.166 9.557-5.531 25.056-5.531 34.626 0 4.404 2.551 6.802 5.84 7.122 9.166z" fill="#E8A30A"/><path d="M201.853 324.176a4.66 4.66 0 00-.898.074c-.406 0-.849.136-1.353.247-.504.11-1.021.234-1.55.394a9.93 9.93 0 00-1.537.591l3.985 2.23.701-.246a46.43 46.43 0 012.829-.85 12.997 12.997 0 012.547-.419c.782-.054 1.569 0 2.337.16.789.164 1.546.46 2.238.875a4.407 4.407 0 011.698 1.49 1.979 1.979 0 01.246 1.54 3.37 3.37 0 01-.923 1.516 9.496 9.496 0 01-1.796 1.416l2.461 1.442-1.366.788-2.46-1.453a20.433 20.433 0 01-3.752 1.416 23.828 23.828 0 01-4.145.777l-1.378-2.292c.371-.007.74-.036 1.107-.086a13.961 13.961 0 001.649-.284c.602-.123 1.23-.295 1.919-.492a13.174 13.174 0 001.919-.715l-3.912-2.254-.504.172-.542.16c-.888.302-1.791.557-2.706.764-.754.181-1.525.284-2.3.308a7.831 7.831 0 01-2.042-.185 7.096 7.096 0 01-1.882-.764 4.925 4.925 0 01-1.636-1.404 2.472 2.472 0 01-.443-1.515 2.89 2.89 0 01.652-1.54 7.024 7.024 0 011.587-1.442l-2.312-1.343 1.353-.788 2.3 1.33a16.316 16.316 0 013.37-1.232 26.057 26.057 0 013.383-.616l1.156 2.23zm-6.679 4.127a2.867 2.867 0 001.697.37c.8-.092 1.588-.27 2.35-.53l-3.69-2.131c-1.341.887-1.464 1.7-.357 2.291zm12.903 1.072a2.863 2.863 0 00-1.833-.32c-.873.106-1.734.296-2.57.567l3.69 2.106c1.525-.948 1.746-1.737.713-2.353z" fill="#CC8B09"/><path d="M199.737 333.872v-1.33l1.501.973-.652.998-.849-.641zM212.838 334.673v-1.319l-3.26.247 1.87 1.269 1.39-.197zM213.108 329.806v-1.343l-2.435.875 2.435.468zM203.021 329.733l.812-.776 2.854 1.971-.172.591s-2.14-.899-2.202-.961l-1.292-.825zM195.58 325.544l3.8 2.156.775-.567-.516-.591a5.013 5.013 0 00-1.23-.998c-.283 0-2.079-.85-2.079-.85l-.75.85zM201.853 324.176v-1.33l-1.734-.567-.382 1.047.099.468 2.017.382zM190.278 323.215v-1.33l2.03.222-.652 1.293-1.378-.185zM190.364 327.712v-1.38h2.313l-.566 1.232-1.009 1.109-.738-.961z" fill="#CC8B09"/><path d="M201.853 322.846a4.582 4.582 0 00-.898.074 19.85 19.85 0 00-1.353.246 20.63 20.63 0 00-1.55.394 9.985 9.985 0 00-1.538.592l3.986 2.328.701-.246a46.01 46.01 0 012.829-.85 13 13 0 012.546-.419c.783-.054 1.569 0 2.337.16a7.2 7.2 0 012.239.875c.685.341 1.27.855 1.698 1.491a1.99 1.99 0 01.246 1.54 3.366 3.366 0 01-.923 1.515 9.01 9.01 0 01-1.833 1.355l2.46 1.454-1.365.788-2.46-1.466a20.437 20.437 0 01-3.752 1.417c-1.356.381-2.743.64-4.145.776l-1.316-2.365c.37-.007.74-.036 1.107-.086a14.153 14.153 0 001.648-.284 26 26 0 001.919-.493 13.126 13.126 0 001.919-.714l-3.912-2.255-.504.173-.541.172c-.984.321-1.882.567-2.706.752-.755.178-1.526.285-2.301.32a8.385 8.385 0 01-2.041-.197 7.103 7.103 0 01-1.882-.764 4.626 4.626 0 01-1.636-1.404 2.462 2.462 0 01-.443-1.516 2.88 2.88 0 01.652-1.54 7.015 7.015 0 011.586-1.441l-2.312-1.343 1.353-.789 2.3 1.331a17.055 17.055 0 013.371-1.232 23.936 23.936 0 013.382-.604l1.132 2.255zm-6.679 4.127a2.875 2.875 0 001.697.37 10.526 10.526 0 002.35-.53l-3.691-2.119c-1.34.875-1.463 1.638-.356 2.279zm12.903 1.084a2.874 2.874 0 00-1.833-.332c-.872.111-1.732.301-2.571.566l3.691 2.119c1.525-.961 1.746-1.749.713-2.353z" fill="#F9CA06"/><path d="M200.119 346.29c18.885 0 34.195-8.853 34.195-19.773 0-10.921-15.31-19.774-34.195-19.774-18.886 0-34.196 8.853-34.196 19.774 0 10.92 15.31 19.773 34.196 19.773z" fill="#DD990E"/><path d="M165.923 326.813v-9.006l6.765 6.024-6.765 2.982zM234.314 318.041v8.476l-3.456 3.671-1.698-9.696 5.154-2.451z" fill="#DD990E"/><path d="M200.119 337.814c18.885 0 34.195-8.853 34.195-19.773 0-10.921-15.31-19.774-34.195-19.774-18.886 0-34.196 8.853-34.196 19.774 0 10.92 15.31 19.773 34.196 19.773z" fill="#F9CB07"/><path d="M224.548 318.656c-.345 3.327-2.707 6.616-7.123 9.167-9.557 5.519-25.056 5.519-34.626 0-4.403-2.551-6.777-5.84-7.109-9.167-.419-3.893 1.955-7.884 7.109-10.853 9.57-5.532 25.069-5.532 34.626 0 5.216 2.969 7.528 6.96 7.123 10.853z" fill="#CC8B09"/><path d="M224.547 318.657c-.344 3.326-2.706 6.615-7.122 9.166-9.557 5.519-25.056 5.519-34.626 0-4.403-2.551-6.777-5.84-7.11-9.166.333-3.327 2.707-6.616 7.11-9.166 9.57-5.532 25.069-5.532 34.626 0 4.416 2.55 6.778 5.901 7.122 9.166z" fill="#E8A30A"/><path d="M199.762 314.024a4.582 4.582 0 00-.898.074c-.406 0-.861.136-1.353.247a23.69 23.69 0 00-1.562.394c-.528.156-1.042.354-1.538.591l3.936 2.267.701-.246a49.13 49.13 0 012.829-.85 12.997 12.997 0 012.547-.419c.786-.054 1.577 0 2.349.16a7.354 7.354 0 012.239.875 4.463 4.463 0 011.685 1.49 2.032 2.032 0 01.258 1.54 3.593 3.593 0 01-.922 1.516 9.904 9.904 0 01-1.796 1.416l2.46 1.442-1.365.788-2.522-1.453a20.161 20.161 0 01-3.69 1.416c-1.352.38-2.735.64-4.133.777l-1.316-2.366a9.32 9.32 0 001.094-.086 13.961 13.961 0 001.649-.284c.615-.123 1.23-.295 1.919-.492a13.85 13.85 0 001.931-.715l-3.912-2.254-.516.172-.529.16c-.889.301-1.792.556-2.706.764-.76.175-1.534.278-2.313.308a7.783 7.783 0 01-2.03-.185 6.79 6.79 0 01-1.882-.764 4.925 4.925 0 01-1.636-1.404 2.351 2.351 0 01-.455-1.515 2.947 2.947 0 01.652-1.54 7.047 7.047 0 011.587-1.442l-2.325-1.343 1.366-.788 2.3 1.33a15.992 15.992 0 013.37-1.232 26.047 26.047 0 013.371-.616l1.156 2.267zm-6.643 4.127a2.895 2.895 0 001.71.37c.796-.092 1.58-.27 2.337-.53l-3.69-2.131c-1.377.887-1.496 1.651-.357 2.291zm12.916 1.072a2.92 2.92 0 00-1.845-.32c-.873.107-1.734.297-2.571.567l3.69 2.106c1.489-.948 1.735-1.737.677-2.353h.049z" fill="#CC8B09"/><path d="M197.646 323.683v-1.33l1.501.973-.652.998-.849-.641zM210.734 324.521v-1.331l-3.247.259 1.857 1.269 1.39-.197zM211.004 319.654v-1.342l-2.435.874 2.435.468zM200.918 319.581l.812-.776 2.866 1.971-.185.591s-2.128-.899-2.201-.961l-1.292-.825zM193.452 315.392l3.788 2.156.775-.567-.516-.591a4.76 4.76 0 00-1.231-.998c-.27 0-2.078-.863-2.078-.863l-.738.863zM199.762 314.024v-1.33l-1.747-.567-.369 1.047.086.468 2.03.382zM188.187 313.063v-1.33l2.017.222-.652 1.281-1.365-.173zM188.261 317.573v-1.38h2.312l-.566 1.232-.996 1.109-.75-.961z" fill="#CC8B09"/><path d="M199.762 312.694a4.582 4.582 0 00-.898.074c-.406 0-.861.135-1.353.246-.492.111-1.021.234-1.562.394-.528.157-1.042.355-1.538.592l3.936 2.267.701-.247a49.94 49.94 0 012.829-.85 13.072 13.072 0 012.547-.419 8.737 8.737 0 012.349.16 7.406 7.406 0 012.239.875 4.474 4.474 0 011.685 1.491c.286.459.379 1.013.258 1.54a3.595 3.595 0 01-.922 1.515 9.382 9.382 0 01-1.796 1.417l2.46 1.454-1.365.788-2.522-1.466a20.093 20.093 0 01-3.69 1.417 23.976 23.976 0 01-4.133.776l-1.316-2.365a9.543 9.543 0 001.094-.087 13.958 13.958 0 001.649-.283c.615-.123 1.23-.296 1.919-.493.66-.19 1.306-.428 1.931-.714l-3.912-2.255-.516.173-.529.16c-.889.3-1.792.555-2.706.764-.759.181-1.534.284-2.313.308a7.827 7.827 0 01-2.03-.185 6.79 6.79 0 01-1.882-.764 4.759 4.759 0 01-1.636-1.404 2.352 2.352 0 01-.455-1.516 2.99 2.99 0 01.652-1.54 7.02 7.02 0 011.587-1.441l-2.325-1.38 1.366-.789 2.3 1.331a16.775 16.775 0 013.37-1.232 23.786 23.786 0 013.371-.604l1.156 2.292zm-6.643 4.127a2.91 2.91 0 001.71.37c.796-.093 1.58-.27 2.337-.53l-3.69-2.131c-1.377.887-1.496 1.65-.357 2.291zm12.916 1.084a2.924 2.924 0 00-1.845-.332c-.872.113-1.732.302-2.571.566l3.69 2.119c1.489-.961 1.735-1.749.677-2.402l.049.049z" fill="#F9CA06"/><path opacity=".4" d="M529.295 544.643l-71.712-41.457a4.043 4.043 0 010-6.985 3.994 3.994 0 014.034 0l71.7 41.456a4.042 4.042 0 01-.467 7.22 4.052 4.052 0 01-3.555-.234z" fill="#D6D8E5"/><path d="M498.334 519.572c-25.659-14.846-46.533-51.055-46.533-80.733 0-29.679 20.911-41.753 46.533-26.907 25.623 14.845 46.583 51.054 46.583 80.733 0 29.679-20.911 41.74-46.583 26.907zm0-98.006c-21.058-12.185-38.205-2.279-38.205 22.09s17.135 54.072 38.205 66.281c21.071 12.209 38.218 2.267 38.218-22.065s-17.147-54.134-38.218-66.306z" fill="#D33D3D"/><path d="M459.059 412.264l8.536-4.657-1.279 5.852-7.257-1.195zM523.317 527.123c.209-.098 9.324-5.199 9.324-5.199l-7.048-1.133-2.276 6.332z" fill="#D33D3D"/><path d="M522.368 521.039c16.55-9.57 16.55-40.601.002-69.31-16.549-28.708-43.381-44.223-59.93-34.653-16.55 9.57-16.551 40.601-.002 69.309 16.549 28.709 43.38 44.224 59.93 34.654z" fill="#F4F4F4"/><path d="M492.405 522.873c-25.659-14.845-46.545-51.054-46.545-80.733 0-29.679 20.911-41.752 46.545-26.907 25.635 14.846 46.534 51.055 46.534 80.733 0 29.679-20.875 41.741-46.534 26.907zm0-98.005c-21.071-12.185-38.205-2.28-38.205 22.089s17.134 54.098 38.205 66.282c21.071 12.185 38.206 2.267 38.206-22.09 0-24.356-17.135-54.109-38.206-66.281z" fill="#FF4D4D"/><path d="M492.405 502.397c-15.904-9.203-28.832-31.637-28.832-50.019 0-18.381 12.928-25.872 28.832-16.669 15.905 9.203 28.833 31.626 28.833 50.007 0 18.382-12.94 25.872-28.833 16.681zm0-57.053c-11.304-6.542-20.505-1.232-20.505 11.851 0 13.084 9.201 29.026 20.505 35.568 11.305 6.542 20.53 1.269 20.53-11.864 0-13.133-9.225-29.026-20.53-35.555z" fill="#FF4D4D"/><path d="M492.406 482.242c-6.286-3.696-11.403-12.517-11.403-19.786 0-7.269 5.117-10.226 11.403-6.591 6.285 3.634 11.402 12.504 11.402 19.773s-5.117 10.238-11.402 6.604zm0-16.743c-1.698-.986-3.076-.185-3.076 1.774a6.843 6.843 0 00.903 3.034 6.804 6.804 0 002.173 2.3c1.697.974 3.075.185 3.075-1.786a6.787 6.787 0 00-3.075-5.322z" fill="#FF4D4D"/><path d="M413.116 514.237l-4.268.049 13.85-5.889-8.032 5.002-1.55.838z" fill="#2B303F"/><path d="M414.957 516.218c.424-.245.423-1.041-.002-1.777-.424-.737-1.112-1.135-1.536-.89-.423.245-.422 1.04.002 1.777.425.736 1.112 1.135 1.536.89zM493.368 470.794c.423-.245.422-1.041-.002-1.778-.425-.736-1.112-1.135-1.536-.89-.424.245-.423 1.041.002 1.778.424.736 1.112 1.135 1.536.89z" fill="#E8A30A"/><path d="M416.031 520.422l-1.021-4.251 11.145-7.121-.48 1.011-9.644 10.361z" fill="#2B303F"/><path d="M415.01 516.208c.099-.086 78.367-45.399 78.367-45.399l-1.439-2.71-78.515 45.436 1.587 2.673z" fill="#E8A30A"/><path d="M342.768 1.639c1.046-1.639 9.029-2.797 11.698 4.004 1.009 2.587.849 9.178 1.686 13.317.836 4.14 2.804 6.493 3.517 9.857.714 3.363-.442 8.993-8.536 9.991-8.094.998-14.306-1.848-16.225-4.435-1.919-2.587-1.943-8.07 0-11.014 1.944-2.945 3.494-5.347 3.445-9.191l4.415-12.53z" fill="#3A2C6D"/><path d="M348.107.468s-6.089-1.7-9.755 1.516a9.01 9.01 0 00-2.546 8.969c.48 1.91 1.464 4.509 2.977 4.656 1.513.148 9.324-15.14 9.324-15.14z" fill="#3A2C6D"/><path d="M350.37 16.952s-.406 6.74-.283 7.244c.123.505 2.645.974 3.358 1.565.714.591-3.69 7.392-5.879 8.427-2.19 1.035-9.103-1.565-9.57-4.99-.443-3.154 1.968-5.605 2.89-6.468a18.04 18.04 0 011.895 0l.196-3.265a499.005 499.005 0 007.393-2.513z" fill="#FFCEA9"/><path d="M330.566 52.976a35.304 35.304 0 01-6.704 6.986 33.158 33.158 0 00-2.287 2.648 10.11 10.11 0 01-4.503 2.994c-1.525.395-2.164.296-2.46 0-.295-.295-.135-.714.517-.973a8.53 8.53 0 002.952-1.602s-1.414.666-2.3.974a9.072 9.072 0 01-2.46.492c-.837 0-1.71-.973-1.046-1.232.664-.258 1.23-.32 2.571-.8a8.32 8.32 0 001.956-.998c-.911.26-1.84.45-2.78.566a4.227 4.227 0 01-2.313-.27c-.393-.16-.725-.875.148-1.11a13.192 13.192 0 003.333-.776c1.034-.468 1.673-.96 1.452-1.06-.221-.098-.812.223-1.845.149-1.033-.074-1.993-.74-1.981-1.232.013-.493.222-.247 1.231-.333a22.884 22.884 0 013.308-.727c1.08.041 2.159-.088 3.199-.382 1.107-.332 3.554-3.29 5.449-6a39.623 39.623 0 004.822-9.782c1.131-3.696 2.46-10.718 3.444-13.145.984-2.427 2.62-3.536 4.207-3.585 1.857 0 2.644 2.39 2.152 4.497-.898 3.757-5.019 18.024-10.062 24.701z" fill="#FFCEA9"/><path d="M351.293 24.85c1.882.283 4.047 1.305 4.342 2.34a22.453 22.453 0 01-.541 11.248c-1.636 4.337-3.481 12.16-4.429 14.033-4.87.68-9.828-.291-14.084-2.76 0 0-.393-7.54-.43-10.028-6.077-5.322-.874-11.877 4.28-16.977.618-.05 1.24-.05 1.858 0 0 0-4.601 5.458-1.403 8.55 6.852-2.095 8.217-5.187 10.407-6.407z" fill="#F4F4F4"/><path d="M337.799 8.624c.677-4.324 3.801-7.59 8.254-7.33a8.6 8.6 0 014.853 1.928 8.624 8.624 0 012.645 9.608 8.617 8.617 0 01-3.181 4.147 8.71 8.71 0 01-.688 1.897c-1.587 1.848-5.782 3.006-7.159 3.031-1.378.025-2.227-1.109-3.358-2.97-2.338-3.892-1.747-8.192-1.366-10.31z" fill="#FFCEA9"/><path d="M347.443 1.343c3.124.616 5.695 1.49 6.544 4.57.578 2.12 1.341 6.16.615 7.86l-.443 1.233-3.789 1.946s-1.771-1.466-1.23-5.79a3.066 3.066 0 00-.529-1.639 4.436 4.436 0 01-.504-1.306 4.923 4.923 0 00-2.46-2.66 8.388 8.388 0 00-7.516.356 8.227 8.227 0 013.845-3.942 8.206 8.206 0 015.467-.628z" fill="#3A2C6D"/><path d="M330.222 104.991c-1.587 1.232-4.047.394-4.17.518a68.024 68.024 0 01-5.793 4.435c-.985.776-2.522 1.811-2.251 3.314.504 2.661 4.772 1.848 6.384 1.022 1.611-.825 2.927-2.168 4.452-3.116 1.083-.678 2.153-1.023 2.325-2.464a8.805 8.805 0 00-.947-3.709z" fill="#38226D"/><path d="M331.144 108.207c-.209 1.318-1.23 1.675-2.349 2.353-1.538.961-2.903 2.353-4.515 3.166-1.611.813-5.203 1.503-6.248-.394.566 2.575 4.76 1.761 6.359.948 1.599-.813 2.928-2.168 4.453-3.117 1.082-.677 2.153-1.022 2.325-2.464a3.114 3.114 0 00-.025-.492z" fill="#9C73FF"/><path d="M322.51 100.654c-1.452 1.232-3.691.518-3.752.629a56.935 56.935 0 01-5.302 4.041c-.898.714-2.312 1.675-2.054 3.043.455 2.464 4.367 1.687 5.843.936 1.476-.752 2.681-1.984 4.071-2.858.997-.616 1.981-.937 2.141-2.193a8.647 8.647 0 00-.947-3.598z" fill="#38226D"/><path d="M323.432 103.747c-.184 1.232-1.156 1.54-2.14 2.143-1.427.887-2.669 2.156-4.145 2.908-1.477.751-4.761 1.38-5.72-.37.516 2.366 4.354 1.614 5.818.875 1.464-.739 2.681-1.984 4.071-2.858.997-.616 1.981-.937 2.141-2.193.008-.169 0-.338-.025-.505z" fill="#9C73FF"/><path d="M344.417 54.134a23.51 23.51 0 01-12.621-1.824c.074 1.331.148 2.465.148 2.465-5.13 3.696-15.437 9.757-16.102 13.97.665 13.33 2.694 32.377 3.272 32.661 1.612.764 2.731.64 3.494-.136 0 0 3.235-11.297 2.288-27.868 0 0 17.958-7.958 19.127-12.32.526-1.755.693-3.599.492-5.42 0-.469-.037-.998-.098-1.528z" fill="#FFCEA9"/><path d="M350.383 52.397a19.162 19.162 0 01-10.886 1.454c0 1.786.246 5.137.246 5.137-5.13 3.635-15.425 9.758-16.102 13.971.677 13.343 1.919 32.648 2.46 32.894a4.352 4.352 0 004.256-.505s3.235-11.15 2.3-27.72c0-.32 15.389-7.91 17.332-9.856 1.944-1.946 2.337-4.99 2.288-7.823a19.115 19.115 0 00-1.894-7.552z" fill="#FFCEA9"/><path d="M354.159 55.23s5.683 10.09-3.801 15.277c-10.013 5.483-16.101 6.764-16.101 6.764l-1.501.357a38.91 38.91 0 010 10.485s-7.147 2.464-16.249-5.532l-3.014-9.733-.381-2.624a5.432 5.432 0 011.513-4.928c2.189-1.984 9.115-7.06 13.42-9.967a125.6 125.6 0 007.749-5.692l.75-.702s5.105 4.078 14.441 2.71a15.03 15.03 0 013.174 3.586z" fill="#8C50FF"/><path d="M348.513 70.224a27.095 27.095 0 012.755-2.18 10.958 10.958 0 002.768-1.984c.873-.875 2.165-4.534 2.841-8.107a35.662 35.662 0 00-.209-12.049 83.952 83.952 0 00-4.76-13.872c-1.23-2.686-.554-4.312.602-5.507 1.354-1.392 2.768-1.355 4.38 2.39a76.632 76.632 0 015.006 16.312 36.1 36.1 0 01-.172 12.32 45.098 45.098 0 01-3.26 10.311c-.418.961-.492 1.774-1.07 3.696a12.494 12.494 0 01-2.94 5.175c-1.23 1.145-1.857 1.367-2.202 1.232-.344-.136-.393-.629.111-1.232a10.498 10.498 0 002.066-3.019s-1.033 1.343-1.722 2.095a9.835 9.835 0 01-2.091 1.724c-.75.456-1.931-.073-1.439-.677.492-.604 1.033-.949 2.042-2.07a9.881 9.881 0 001.39-1.959 18.54 18.54 0 01-2.313 1.96 4.249 4.249 0 01-2.214.91c-.418 0-.996-.492-.295-1.157a15.103 15.103 0 002.743-2.464c.763-.974 1.156-1.762.91-1.75-.246.013-.652.629-1.623 1.072-.972.444-2.104.296-2.301-.246-.196-.542.111-.345.997-.924z" fill="#FFCEA9"/><path d="M359.374 33.954s-3.444 3.068-7.282 2.464l-1.525-6.456s-1.009-3.388 1.882-4.67c2.891-1.28 5.683 2.083 6.925 8.662zM340.432 22.706s-3.691-1.134-7.701 7.145l1.477.9a62.334 62.334 0 016.224-8.045z" fill="#EDEDED"/><path d="M314.637 58.459l13.309-7.688a.764.764 0 01.763 0l23.371 13.49-13.69 7.922-23.753-13.725z" fill="#F4F4F4"/><path d="M338.71 69.14l1.02.579c.087 0 .074.135 0 .197l-.971.554a.332.332 0 01-.32 0l-1.021-.591c-.086 0-.074-.123 0-.185l.972-.554a.332.332 0 01.32 0zM337.27 68.302l1.021.591c.086 0 .074.124 0 .185l-.972.567a.368.368 0 01-.32 0l-1.02-.591c-.087 0-.074-.136 0-.185l.971-.567a.37.37 0 01.32 0zM335.806 67.464l1.009.58c.086 0 .074.135 0 .197l-.972.554a.332.332 0 01-.319 0l-1.021-.591c-.074 0-.074-.124 0-.185l.971-.555a.36.36 0 01.332 0zM334.392 66.639l1.021.591c.073 0 .061.123 0 .185l-.972.554a.355.355 0 01-.332 0l-1.009-.578c-.086 0-.074-.136 0-.198l.972-.554a.354.354 0 01.32 0zM332.953 65.801l1.008.592c.086 0 .074.135 0 .184l-.972.567a.391.391 0 01-.332 0l-1.033-.616c-.074 0-.061-.135 0-.185l.972-.566a.392.392 0 01.357.024zM331.514 64.976l1.008.579c.086 0 .074.135 0 .184l-.972.567a.331.331 0 01-.319 0l-1.021-.591c-.074 0-.074-.123 0-.185l.971-.554a.362.362 0 01.333 0zM330.062 64.138l1.021.591c.086 0 .074.123 0 .185l-.972.554a.37.37 0 01-.32 0l-1.021-.59c-.074 0-.074-.136 0-.186l.972-.566a.332.332 0 01.32.012zM328.623 63.3l1.021.592c.086 0 .073.135 0 .184l-.972.567a.37.37 0 01-.32 0l-1.021-.591c-.086 0-.074-.136 0-.185l.972-.567a.368.368 0 01.32 0zM327.196 62.475l1.021.579c.086 0 .074.135 0 .197l-.972.554a.332.332 0 01-.32 0l-1.021-.579c-.086 0-.074-.135 0-.197l.972-.554a.331.331 0 01.32 0zM325.745 61.6l1.021.591c.086 0 .073.136 0 .185l-.972.567a.37.37 0 01-.32 0l-1.021-.591c-.086 0-.074-.136 0-.185l.972-.567a.368.368 0 01.32 0zM324.305 60.8l1.021.59c.074 0 .074.136 0 .185l-.972.567a.363.363 0 01-.319 0l-1.021-.591c-.086 0-.074-.123 0-.185l.971-.554a.374.374 0 01.32-.013zM322.866 59.974l1.021.591c.074 0 .062.123 0 .185l-.972.554a.356.356 0 01-.332 0l-1.008-.579c-.086 0-.074-.135 0-.197l.959-.554a.355.355 0 01.332 0zM321.427 59.136l1.009.592c.086 0 .073.135 0 .184l-.972.567a.393.393 0 01-.332 0l-1.009-.591c-.086 0-.074-.136 0-.185l.923-.567a.392.392 0 01.381 0zM319.287 57.904l1.709.986c.087 0 .074.135 0 .197l-.971.554a.331.331 0 01-.32 0l-1.71-.985c-.086 0-.074-.136 0-.185l.972-.567a.368.368 0 01.32 0zM337.971 67.095l1.021.591c.074 0 .074.123 0 .185l-.972.554a.356.356 0 01-.332 0l-1.008-.579c-.086 0-.074-.135 0-.197l.971-.554a.331.331 0 01.32 0zM336.532 66.257l1.009.591c.086 0 .073.124 0 .185l-.972.567a.37.37 0 01-.32 0l-1.021-.591c-.074 0-.061-.136 0-.185l.972-.567a.395.395 0 01.332 0zM335.081 65.42l1.021.59c.086 0 .073.136 0 .185l-.972.567a.37.37 0 01-.32 0l-1.021-.591c-.086 0-.074-.136 0-.185l.972-.567a.368.368 0 01.32 0zM333.642 64.594l1.021.579c.073 0 .073.135 0 .197l-.972.554a.332.332 0 01-.32 0l-1.021-.591c-.086 0-.074-.123 0-.185l.972-.554a.332.332 0 01.32 0zM332.215 63.756l1.008.591c.086 0 .074.136 0 .185l-.972.567a.363.363 0 01-.319 0l-1.021-.591c-.074 0-.062-.124 0-.185l.971-.567a.396.396 0 01.333 0zM330.763 62.93l1.021.58c.086 0 .074.135 0 .197l-.972.554a.33.33 0 01-.319 0l-1.021-.579c-.086 0-.074-.135 0-.197l.971-.554a.332.332 0 01.32 0zM329.324 62.093l1.021.591c.074 0 .074.123 0 .185l-.972.554a.37.37 0 01-.32 0l-1.021-.59c-.086 0-.074-.136 0-.186l.972-.566a.331.331 0 01.32.012zM327.885 61.255l1.009.591c.086 0 .073.136 0 .185l-.96.567a.393.393 0 01-.332 0l-1.021-.591c-.074 0-.061-.136 0-.185l.972-.567a.393.393 0 01.332 0zM326.433 60.368l1.021.591c.086 0 .074.136 0 .185l-.972.567a.363.363 0 01-.319 0l-1.021-.591c-.087 0-.074-.124 0-.185l.971-.555a.371.371 0 01.32-.012zM324.994 59.592l1.021.579c.074 0 .074.135 0 .197l-.972.554a.331.331 0 01-.319 0l-1.021-.579c-.086 0-.074-.135 0-.197l.971-.554a.331.331 0 01.32 0zM323.506 58.754l1.008.591c.086 0 .074.124 0 .185l-.959.567a.442.442 0 01-.332 0l-1.021-.591c-.074 0 0-.136 0-.185l.972-.567a.39.39 0 01.332 0zM322.104 57.904l1.021.591c.086 0 .073.136 0 .185l-.972.567a.37.37 0 01-.32 0l-1.021-.591c-.086 0-.074-.136 0-.185l.972-.567a.368.368 0 01.32 0zM339.41 67.92l1.71.998c.086 0 .074.136 0 .185l-.959.567a.394.394 0 01-.333 0l-1.709-.998c-.086 0-.074-.123 0-.185l.971-.554a.373.373 0 01.32-.013zM319.36 57.904l1.021.58a.31.31 0 00.296 0l1.033-.592a.099.099 0 00.051-.086.101.101 0 00-.051-.086h-.086c-.074 0-.074-.111 0-.16l1.082-.63c.086 0 .086-.122 0-.172l-.639-.37a.348.348 0 00-.308 0l-1.009.58-.209.123-.16.086-.147.087-.874.505a.1.1 0 00-.027.067.1.1 0 00.027.068zM344.294 65.9l1.008.591c.086 0 .074.135 0 .185l-.971.567a.4.4 0 01-.333 0l-1.008-.592c-.086 0-.074-.135 0-.185l.971-.566a.4.4 0 01.333 0zM342.855 65.074l1.021.592c.073 0 .073.123 0 .184l-.972.555a.332.332 0 01-.32 0l-1.021-.58c-.086 0-.074-.135 0-.196l.972-.555a.331.331 0 01.32 0zM341.416 64.237l1.021.591c.086 0 .073.136 0 .185l-.972.567a.37.37 0 01-.32 0l-1.021-.592c-.086 0-.074-.135 0-.185l.972-.566a.368.368 0 01.32 0zM329.189 57.165l1.008.591c.086 0 .074.136 0 .185l-.959.567a.393.393 0 01-.332 0l-1.021-.592c-.074 0-.062-.135 0-.184l.972-.567a.391.391 0 01.332 0zM327.75 56.34l1.021.578c.073 0 .061.136 0 .198l-.972.554a.356.356 0 01-.332 0l-1.009-.58c-.086 0-.074-.135 0-.196l.959-.555a.362.362 0 01.333 0zM326.31 55.502l1.021.591c.086 0 .074.136 0 .185l-.972.567a.368.368 0 01-.32 0l-1.02-.592c-.087 0-.074-.135 0-.184l.971-.567a.37.37 0 01.32 0zM324.871 54.676l1.021.592c.086 0 .074.123 0 .185l-.972.554a.332.332 0 01-.319 0l-1.095-.567c-.086 0-.074-.135 0-.184l.972-.567a.33.33 0 01.393-.013zM339.607 63.202l1.39.8c.086 0 .074.124 0 .185l-.971.555a.37.37 0 01-.32 0l-1.439-.789c-.087 0-.074-.123 0-.185l.971-.554a.333.333 0 01.369-.012zM330.615 58.003l1.39.8c.086 0 .074.124 0 .185l-.972.555a.363.363 0 01-.319 0l-1.39-.813c-.086 0-.074-.124 0-.185l.971-.555a.334.334 0 01.32.013zM332.424 59.038l6.765 3.917c.086 0 .074.136 0 .185l-.972.567a.363.363 0 01-.319 0l-6.766-3.918c-.086 0-.073-.123 0-.185l.972-.566a.37.37 0 01.32 0zM338.98 66.06l1.008.591c.086 0 .074.124 0 .185l-.971.555a.332.332 0 01-.32 0l-1.021-.58c-.074 0-.062-.135 0-.197l.972-.554a.355.355 0 01.332 0zM337.541 65.222l1.008.592c.087 0 .074.135 0 .185l-.971.566a.37.37 0 01-.32 0l-1.021-.591c-.074 0-.062-.136 0-.185l.972-.567a.391.391 0 01.332 0zM336.102 64.397l1.008.59c.087 0 .074.124 0 .186l-.971.554a.331.331 0 01-.32 0l-1.021-.579c-.074 0-.062-.135 0-.197l.972-.554a.356.356 0 01.332 0zM334.662 63.559l1.009.591c.086 0 .074.136 0 .185l-.96.567a.391.391 0 01-.332 0l-1.021-.592c-.073 0-.061-.135 0-.184l.972-.567a.393.393 0 01.332 0zM333.223 62.733l1.009.58c.086 0 .074.135 0 .197l-.959.554a.36.36 0 01-.333 0l-1.021-.579c-.073 0-.061-.136 0-.197l.972-.554a.355.355 0 01.332 0zM331.784 61.896l1.009.591c.086 0 .073.136 0 .185l-.96.567a.395.395 0 01-.332 0l-1.021-.592c-.074 0 0-.135 0-.185l.972-.566a.39.39 0 01.332 0zM330.345 61.07l1.009.58c.086 0 .073.135 0 .197l-.96.554a.355.355 0 01-.332 0l-1.021-.591c-.074 0-.061-.124 0-.185l.972-.555a.355.355 0 01.332 0zM328.906 60.233l1.008.591c.086 0 .074.123 0 .185l-.972.566a.391.391 0 01-.332 0l-1.021-.59c-.073 0-.061-.136 0-.186l.972-.566a.396.396 0 01.345 0zM327.466 59.395l1.009.591c.086 0 .074.136 0 .185l-.972.567a.355.355 0 01-.332 0l-1.008-.592c-.087 0-.074-.123 0-.185l.971-.554a.396.396 0 01.332-.012zM326.027 58.57l1.009.591c.086 0 .074.123 0 .185l-.972.554a.391.391 0 01-.332 0l-1.008-.591c-.086 0-.074-.136 0-.185l.971-.567a.395.395 0 01.332.013zM324.588 57.732l1.009.591c.086 0 .073.136 0 .185l-.972.566a.395.395 0 01-.332 0l-1.009-.59c-.086 0-.074-.124 0-.186l.972-.566a.395.395 0 01.332 0z" fill="#3A2C6D"/><path d="M323.149 56.906l1.009.592c.086 0 .074.123 0 .184l-.972.555a.356.356 0 01-.332 0l-1.009-.58c-.086 0-.074-.135 0-.184l.972-.567a.355.355 0 01.332 0zM340.419 66.885l2.104 1.232c.073 0 .073.136 0 .185l-.972.567a.395.395 0 01-.332 0l-2.104-1.232c-.073 0-.073-.123 0-.185l.972-.567a.395.395 0 01.332 0zM341.083 65.666l1.021.591c.086 0 .074.123 0 .185l-.972.554a.332.332 0 01-.32 0l-1.021-.579c-.086 0-.073-.135 0-.197l.972-.554a.331.331 0 01.32 0zM339.644 64.828l1.021.591c.086 0 .074.136 0 .185l-.972.567a.368.368 0 01-.32 0l-1.02-.592c-.087 0-.074-.135 0-.184l.971-.567a.37.37 0 01.32 0zM338.267 64.064l1.02.592c.087 0 .074.123 0 .184l-1.02.456a.332.332 0 01-.32 0l-1.021-.579c-.086 0-.074-.135 0-.197l.972-.554a.332.332 0 01.369.098zM336.766 63.165l1.021.591c.086 0 .073.136 0 .185l-.972.567a.37.37 0 01-.32 0l-1.021-.592c-.086 0-.074-.135 0-.184l.972-.567a.368.368 0 01.32 0zM335.327 62.34l1.021.578c.086 0 .073.136 0 .198l-.972.554a.331.331 0 01-.32 0l-1.021-.579c-.086 0-.074-.136 0-.197l.972-.555a.332.332 0 01.32 0zM333.887 61.501l1.021.592c.086 0 .074.135 0 .184l-.972.567a.362.362 0 01-.319 0l-1.021-.591c-.086 0-.074-.136 0-.185l.971-.567a.37.37 0 01.32 0zM332.448 60.676l1.021.579c.086 0 .074.135 0 .197l-.972.554a.33.33 0 01-.319 0l-1.021-.59c-.086 0-.074-.124 0-.186l.971-.554a.331.331 0 01.32 0zM331.009 59.838l1.021.592c.086 0 .074.135 0 .184l-.971.567a.37.37 0 01-.32 0l-1.021-.591c-.086 0-.074-.136 0-.185l.972-.567a.362.362 0 01.319 0zM329.57 59.013l1.021.579c.086 0 .074.136 0 .197l-.935.58a.331.331 0 01-.32 0l-1.021-.592c-.086 0-.073-.123 0-.185l.972-.554a.336.336 0 01.283-.025zM328.131 58.175l1.021.592c.086 0 .073.123 0 .184l-.972.567a.37.37 0 01-.32 0l-1.021-.591c-.074 0-.074-.136 0-.185l.972-.567a.368.368 0 01.32 0zM326.692 57.337l1.021.592c.086 0 .073.135 0 .184l-.972.567a.332.332 0 01-.32 0l-1.021-.591c-.074 0-.074-.123 0-.185l.972-.554a.367.367 0 01.32-.013zM323.506 55.44l2.792 1.627c.086 0 .074.123 0 .184l-.972.567a.364.364 0 01-.319 0l-2.793-1.626c-.086 0-.073-.123 0-.185l.972-.567a.393.393 0 01.32 0zM342.523 66.528l1.389.801c.087 0 .074.136 0 .197l-.971.555a.331.331 0 01-.32 0l-1.39-.801c-.086 0-.074-.124 0-.185l.972-.567a.368.368 0 01.32 0zM317.848 58.742l20.419 11.815c.086 0 .073.135 0 .184l-.48.284a.395.395 0 01-.332 0L317.023 59.21c-.086 0-.073-.136 0-.185l.48-.283a.356.356 0 01.345 0z" fill="#3A2C6D"/><path d="M342.018 59.518l-.135.074-3.518 2.033-6.249-3.61-.135-.086 3.653-2.107 6.384 3.696z" fill="#BFBFBF"/><path d="M341.883 59.592l-3.518 2.033-6.249-3.61 3.518-2.045 6.249 3.622zM352.055 64.261v.32a1.23 1.23 0 01-.639 1.109l-12.412 7.17a1.229 1.229 0 01-1.23 0l-22.485-12.972a1.231 1.231 0 01-.652-1.11v-.32l23.728 13.725 13.69-7.922z" fill="#E5E5E5"/><path d="M338.365 72.183v.85a1.316 1.316 0 01-.64-.172l-22.436-12.973a1.231 1.231 0 01-.652-1.11v-.32l23.728 13.725z" fill="#E5E5E5"/><path d="M338.008 72.368a1.545 1.545 0 01-1.316-.099l-22.338-12.924a1.506 1.506 0 01-.738-1.06l-2.46-14.61a1.689 1.689 0 010-.247 1.505 1.505 0 01.455-1.084l23.211 13.429a1.148 1.148 0 01.554.788l2.632 15.807z" fill="#F4F4F4"/><path d="M338.365 72.183l-.148.086-.209.099-2.645-15.807a1.137 1.137 0 00-.553-.788l-23.211-13.43c.088-.094.192-.173.307-.233l23.261 13.453a1.12 1.12 0 01.553.789l2.645 15.831z" fill="#E5E5E5"/><path opacity=".3" d="M56.84 448.855L31.92 434.44l24.92-14.414 24.922 14.414-24.921 14.415zM96.338 425.754l-24.92-14.402 24.92-14.414 24.922 14.414-24.922 14.402z" fill="#D6D8E5"/><path d="M111.136 324.435L86.215 310.02l24.921-14.414 24.921 14.414-24.921 14.415zM111.136 417.414L86.215 403v-92.979l24.921 14.414v92.979z" fill="#3E7EFF"/><path opacity=".1" d="M111.136 417.414L86.215 403v-92.979l24.921 14.414v92.979z" fill="#000"/><path d="M136.057 403l-24.921 14.414v-92.979l24.921-14.414V403z" fill="#3E7EFF"/><path opacity=".15" d="M136.057 403l-24.921 14.414v-92.979l24.921-14.414V403z" fill="#000"/><path d="M73.754 371.768l-24.92-14.414 24.92-14.402 24.921 14.402-24.92 14.414z" fill="#FF4D4D"/><path d="M73.754 438.912l-24.92-14.414v-67.144l24.92 14.414v67.144z" fill="#FF4D4D"/><path opacity=".1" d="M73.754 438.912l-24.92-14.414v-67.144l24.92 14.414v67.144z" fill="#000"/><path d="M98.675 424.498l-24.92 14.414v-67.144l24.92-14.414v67.144z" fill="#FF4D4D"/><path opacity=".15" d="M98.675 424.498l-24.92 14.414v-67.144l24.92-14.414v67.144z" fill="#000"/><path opacity=".3" d="M24.921 467.741L0 453.326l24.921-14.414 24.921 14.414-24.921 14.415z" fill="#D6D8E5"/><path d="M33.95 420.987L9.029 406.572l24.92-14.402 24.922 14.402-24.921 14.415zM33.95 462.296L9.029 447.894v-41.322l24.92 14.415v41.309z" fill="#B7E200"/><path opacity=".1" d="M33.95 462.296L9.029 447.894v-41.322l24.92 14.415v41.309z" fill="#000"/><path d="M58.87 447.894l-24.92 14.402v-41.309l24.92-14.415v41.322z" fill="#B7E200"/><path opacity=".15" d="M58.87 447.894l-24.92 14.402v-41.309l24.92-14.415v41.322z" fill="#000"/><path opacity=".4" d="M290.663 559.008l-15.99-23.063-7.75-3.474a80.254 80.254 0 00-17.934-2.07c-7.22 7.293-52.757 9.24-70.839.246-20.505-10.201-31.256-22.656-34.602-30.282-5.953-13.552 5.4-29.482 5.4-29.482-31.022 17.938-31.022 47.136 0 65.074 29.079 16.817 75.255 17.864 106.474 3.154l35.241 19.897z" fill="#D6D8E5"/><path opacity=".4" d="M378.305 616l-107.384-62.093 18.242-10.546 107.384 62.093L378.305 616z" fill="#D6D8E5"/><path d="M152.786 530.278c-31.022-17.938-31.022-47.124 0-65.062 31.022-17.938 81.503-17.938 112.526 0 31.022 17.938 31.022 47.124 0 65.062-31.023 17.938-81.504 17.962-112.526 0zm98.798-57.128c-23.457-13.552-61.626-13.552-85.071 0s-23.457 35.666 0 49.218c23.457 13.552 61.614 13.552 85.071 0s23.457-35.654 0-49.218z" fill="#B1B4C4"/><path d="M129.562 499.12v-13.786l13.949 6.887-13.949 6.899zM169.06 521.85c.565.703 2.558 14.205 42.289 14.205s38.034-15.954 38.034-15.954-37.468 5.162-38.034 5.162c-.566 0-42.289-3.413-42.289-3.413zM288.572 485.334v12.406l-11.439-7.306 11.439-5.1zM172.885 455.323a102.066 102.066 0 0136.164-6.961 86.656 86.656 0 0134.946 7.478l-2.522 4.201H175.05l-2.165-4.718z" fill="#B1B4C4"/><path opacity=".1" d="M209.061 524.352c32.71 0 59.227-15.334 59.227-34.25 0-18.915-26.517-34.249-59.227-34.249-32.71 0-59.228 15.334-59.228 34.249 0 18.916 26.518 34.25 59.228 34.25z" fill="#3E7EFF"/><path d="M152.786 517.871c-31.022-17.937-31.022-47.136 0-65.074 31.022-17.938 81.503-17.938 112.526 0 31.022 17.938 31.022 47.137 0 65.074-31.023 17.938-81.504 17.938-112.526 0zm98.798-57.103c-23.457-13.552-61.626-13.552-85.071 0s-23.457 35.642 0 49.206c23.457 13.565 61.614 13.552 85.071 0s23.457-35.654 0-49.206z" fill="#D6D8E5"/><path d="M283.885 537.534l-26.913-15.684 15.634-9.03 26.913 15.671-15.634 9.043z" fill="#D6D8E5"/><path d="M283.886 550.026l-26.889-15.584v-12.579l26.889 15.585v12.578z" fill="#B1B4C4"/><path d="M381.712 613.832L274.34 551.739v-21.092l107.372 62.093v21.092z" fill="#2B303F"/><path d="M381.725 592.752L274.34 530.659l18.242-10.546 107.384 62.081-18.241 10.558z" fill="#394051"/><path d="M381.712 613.832c1.107-.124 18.254-10.288 18.254-10.288v-21.35l-18.241 10.558-.013 21.08z" fill="#232733"/><path d="M75.993 335.72a45.016 45.016 0 006.544 8.932c.713.826 6.15-1.232 5.018-1.848-1.131-.616-4.71-5.568-6.494-8.882a112.51 112.51 0 01-3.813-12.136c-1.12-4.065-2.092-10.028-2.903-12.837a5.499 5.499 0 00-4.17-4.25c-1.968-.456-3.235.086-2.879 2.464.628 4.164 3.887 20.365 8.697 28.557z" fill="#FFCEA9"/><path d="M72.868 399.168c1.686 1.38 4.183.123 4.306.246a73.78 73.78 0 006.224 5.199c1.058.826 2.706 1.935 2.46 3.536-.529 2.846-5.08 1.971-6.802 1.097-1.722-.875-3.125-2.316-4.748-3.327-1.157-.727-2.3-1.096-2.46-2.562-.197-.875.725-4.189 1.02-4.189z" fill="#38226D"/><path d="M71.786 402.778c.222 1.404 1.353 1.786 2.46 2.464 1.661 1.022 3.113 2.464 4.835 3.376 1.722.911 5.547 1.613 6.654-.432-.603 2.748-5.08 1.885-6.777 1.023-1.698-.863-3.125-2.316-4.748-3.327-1.157-.726-2.3-1.096-2.46-2.562a2.548 2.548 0 01.036-.542z" fill="#9C73FF"/><path d="M89.991 389.312c1.698 1.38 4.65-.123 4.773 0a67.332 67.332 0 005.572 5.039c1.046.826 2.694 1.935 2.46 3.524-.529 2.858-5.092 1.983-6.814 1.109-1.722-.875-3.125-2.317-4.748-3.327-1.157-.727-2.3-1.096-2.46-2.562a7.912 7.912 0 011.217-3.783z" fill="#38226D"/><path d="M88.737 392.688c.233 1.404 1.353 1.786 2.46 2.464 1.648 1.023 3.112 2.464 4.822 3.376 1.71.911 5.559 1.614 6.666-.432-.59 2.797-5.03 1.935-6.74 1.072-1.71-.862-3.125-2.316-4.748-3.326-1.23-.727-2.313-1.097-2.46-2.563a2.465 2.465 0 010-.591z" fill="#9C73FF"/><path d="M50.285 344.96c-1.87 11.717 3.321 16.078 10.074 18.579 4.847 1.786 11.797 4.534 11.797 4.534s-.099 2.575-.148 8.34c0 5.088.615 23.63.615 23.63a5.636 5.636 0 005.166 0s2.731-14.217 3.31-20.624c.774-8.685 2.115-14.377 1.672-16.25-.394-1.651-9.84-6.32-12.891-8.821l19.915 6.628a34.733 34.733 0 00-.579 6.542c.185 6.899.554 21.819.554 21.819s2.73 1.971 5.056 0c0 0 4.994-29.568 4.39-33.461-.577-3.696-18.081-11.298-21.168-13.909a4.914 4.914 0 00-3.887-1.06l-23.876 4.053z" fill="#8C50FF"/><path d="M97.925 349.888l-13.346-7.724a.786.786 0 00-.775 0l-23.37 13.552 13.739 7.934 23.752-13.762z" fill="#F4F4F4"/><path d="M73.496 360.767l-1.008.591c-.086 0-.074.123 0 .185l.972.554a.356.356 0 00.332 0l1.008-.579c.086 0 .074-.135 0-.197l-.971-.554a.356.356 0 00-.333 0zM74.935 359.929l-1.008.591c-.086 0-.074.136 0 .185l.971.567a.368.368 0 00.32 0l1.021-.592c.074 0 0-.135 0-.184l-.972-.567a.397.397 0 00-.332 0zM76.4 359.091l-1.022.592c-.086 0-.073.123 0 .185l.972.554a.331.331 0 00.32 0l1.02-.579c.087 0 .075-.136 0-.197l-.97-.555a.331.331 0 00-.32 0zM77.826 358.266l-1.02.591c-.087 0-.075.123 0 .185l.97.554a.37.37 0 00.32 0l1.022-.591c.086 0 .074-.136 0-.185l-.972-.567a.372.372 0 00-.32.013zM79.265 357.428l-1.02.591c-.087 0-.075.136 0 .185l.97.567a.368.368 0 00.32 0l1.022-.591c.086 0 .073-.136 0-.185l-.972-.567a.368.368 0 00-.32 0zM80.704 356.603l-1.02.579c-.087 0-.074.135 0 .197l.971.554a.331.331 0 00.32 0l1.021-.579c.086 0 .074-.135 0-.197l-.972-.554a.331.331 0 00-.32 0zM82.144 355.765l-1.021.591c-.074 0-.074.136 0 .185l.971.567a.368.368 0 00.32 0l1.021-.591c.086 0 .074-.136 0-.185l-.972-.567a.368.368 0 00-.32 0zM83.644 354.927l-1.02.592c-.075 0-.075.135 0 .184l.971.567a.356.356 0 00.332 0l1.009-.591c.086 0 .073-.124 0-.185l-.972-.555a.365.365 0 00-.32-.012zM85.022 354.102l-1.009.591c-.086 0-.074.123 0 .185l.972.554a.356.356 0 00.332 0l1.009-.579c.086 0 .074-.135 0-.185l-.972-.566a.356.356 0 00-.332 0zM86.461 353.264l-1.008.591c-.087 0-.074.136 0 .185l.96.567a.397.397 0 00.331 0l1.021-.592c.074 0 0-.135 0-.184l-.972-.567a.397.397 0 00-.332 0zM87.9 352.439l-1.008.579c-.087 0-.074.135 0 .197l.971.554a.331.331 0 00.32 0l1.021-.591c.074 0 .074-.123 0-.185l-.972-.554a.357.357 0 00-.332 0zM89.352 351.6l-1.021.592c-.087 0-.074.123 0 .185l.971.566a.37.37 0 00.32 0l1.021-.591c.086 0 .074-.136 0-.185l-.972-.567a.368.368 0 00-.32 0zM90.791 350.763l-1.021.591c-.086 0-.074.136 0 .185l.972.567a.368.368 0 00.32 0l1.02-.591c.087 0 .074-.124 0-.185l-.971-.567a.369.369 0 00-.32 0zM92.919 349.531l-1.71.998c-.086 0-.074.123 0 .185l.972.554a.331.331 0 00.32 0l1.71-.985c.085 0 .073-.136 0-.185l-.972-.567a.4.4 0 00-.32 0zM74.246 358.722l-1.02.591c-.087 0-.074.123 0 .185l.971.566a.413.413 0 00.32 0l1.021-.591c.074 0 .074-.135 0-.185l-.972-.566a.369.369 0 00-.32 0zM75.686 357.884l-1.022.591c-.086 0-.073.136 0 .185l.972.567a.368.368 0 00.32 0l1.021-.592c.086 0 .074-.135 0-.185l-.972-.566a.37.37 0 00-.32 0zM77.125 357.046l-1.02.592c-.075 0 0 .135 0 .184l.97.567a.356.356 0 00.333 0l1.009-.591c.086 0 .073-.123 0-.185l-.972-.554a.367.367 0 00-.32-.013zM78.564 356.221l-1.009.591c-.086 0-.074.123 0 .185l.972.554a.331.331 0 00.32 0l1.02-.579c.075 0 .075-.135 0-.197l-.971-.554a.356.356 0 00-.332 0zM79.954 355.395l-1.02.579c-.087 0-.075.136 0 .197l.97.555a.331.331 0 00.32 0l1.022-.592c.086 0 .073-.123 0-.184l-.972-.555a.331.331 0 00-.32 0zM81.442 354.558l-1.02.591c-.074 0 0 .123 0 .185l.971.554a.356.356 0 00.332 0l1.009-.579c.086 0 .074-.135 0-.197l-.96-.554a.356.356 0 00-.332 0zM82.882 353.72l-1.009.591c-.086 0-.074.136 0 .185l.972.567a.368.368 0 00.32 0l1.02-.592c.074 0 .074-.135 0-.184l-.971-.567a.397.397 0 00-.332 0zM84.333 352.882l-1.021.591c-.086 0-.074.136 0 .185l.972.567a.369.369 0 00.32 0l1.02-.592c.087 0 .074-.123 0-.185l-.971-.566a.37.37 0 00-.32 0zM85.772 352.057l-1.021.579c-.074 0-.062.135 0 .197l.972.554a.356.356 0 00.332 0l1.008-.591c.087 0 .074-.123 0-.185l-.971-.554a.331.331 0 00-.32 0zM87.211 351.219l-1.008.591c-.087 0-.074.123 0 .185l.971.554a.356.356 0 00.32 0l1.021-.591c.074 0 .074-.135 0-.185l-.972-.566a.353.353 0 00-.332.012zM88.663 350.381l-1.02.592c-.087 0-.075.135 0 .184l.97.567a.37.37 0 00.32 0l1.022-.591c.086 0 .073-.136 0-.185l-.972-.567a.368.368 0 00-.32 0zM90.102 349.543l-1.02.591c-.075 0-.075.136 0 .185l.971.567a.397.397 0 00.332 0l1.009-.591c.086 0 .074-.124 0-.185l-.972-.567a.422.422 0 00-.32 0zM72.795 359.56l-1.71.985c-.086 0-.073.136 0 .185l.972.567a.368.368 0 00.32 0l1.71-.986c.086 0 .074-.135 0-.197l-.96-.554a.356.356 0 00-.332 0zM92.857 349.482l-1.02.591a.372.372 0 01-.308 0l-1.021-.603c-.086 0-.086-.124 0-.173h.074c.086 0 .086-.111 0-.16l-1.083-.628c-.086 0-.086-.124 0-.173l.652-.37a.315.315 0 01.295 0l1.021.592.21.111.147.086.148.099.885.505a.1.1 0 010 .123zM67.924 357.527l-1.02.591c-.087 0-.075.136 0 .185l.971.567a.368.368 0 00.32 0l1.02-.592c.087 0 .075-.123 0-.185l-.97-.566a.37.37 0 00-.32 0zM69.35 356.701l-1.008.591c-.086 0-.073.124 0 .185l.972.555a.369.369 0 00.32 0l1.02-.592c.075 0 .075-.135 0-.185l-.971-.566a.385.385 0 00-.332.012zM70.79 355.876l-1.009.579c-.086 0-.074.135 0 .184l.972.567a.356.356 0 00.332 0l1.009-.591c.086 0 .074-.123 0-.185l-.972-.554a.357.357 0 00-.166-.042.357.357 0 00-.166.042zM83.03 348.792l-1.022.591c-.086 0-.073.136 0 .185l.972.567a.369.369 0 00.32 0l1.02-.592c.087 0 .075-.135 0-.184l-.97-.567a.37.37 0 00-.32 0zM84.468 347.966l-1.02.592c-.087 0-.074.123 0 .185l.971.554a.37.37 0 00.32 0l1.02-.591c.087 0 .075-.136 0-.185l-.971-.567a.334.334 0 00-.32.012zM85.895 347.129l-1.008.591c-.086 0-.074.135 0 .185l.972.566a.356.356 0 00.32 0l1.02-.591c.074 0 0-.123 0-.185l-.971-.554a.394.394 0 00-.333-.012zM87.335 346.303l-1.021.591c-.074 0 0 .123 0 .185l.971.567a.397.397 0 00.332 0l1.01-.592c.085 0 .073-.135 0-.184l-.96-.567a.397.397 0 00-.332 0zM72.574 354.816l-1.39.801c-.074 0-.074.135 0 .185l.972.566a.37.37 0 00.32 0l1.39-.801c.085 0 .073-.135 0-.197l-.972-.554a.331.331 0 00-.32 0zM81.59 349.629l-1.39.801c-.086 0-.074.136 0 .185l.972.567a.369.369 0 00.32 0l1.39-.801c.086 0 .073-.136 0-.197l-.972-.555a.343.343 0 00-.16-.041.343.343 0 00-.16.041zM79.782 350.677l-6.765 3.905c-.087 0-.074.136 0 .185l.971.567a.369.369 0 00.32 0l6.765-3.918c.087 0 .074-.123 0-.185l-.959-.554a.356.356 0 00-.332 0zM73.238 357.687l-1.021.591c-.086 0-.074.123 0 .185l.972.567a.369.369 0 00.32 0l1.02-.592c.086 0 .074-.135 0-.184l-.971-.567a.37.37 0 00-.32 0zM74.677 356.849l-1.02.591c-.087 0-.075.136 0 .185l.971.567a.331.331 0 00.32 0l1.02-.591c.087 0 .075-.124 0-.185l-.971-.555a.365.365 0 00-.32-.012zM76.116 356.048l-1.02.592c-.087 0-.075.123 0 .185l.971.554a.368.368 0 00.32 0l1.02-.591c.087 0 .075-.136 0-.185l-.971-.567a.372.372 0 00-.32.012zM77.556 355.186l-1.021.591c-.086 0-.074.136 0 .185l.971.567a.369.369 0 00.32 0l1.021-.592c.086 0 .074-.123 0-.184l-.972-.567a.37.37 0 00-.32 0zM78.995 354.36l-1.021.592c-.087 0-.074.123 0 .185l.971.554a.331.331 0 00.32 0l1.021-.579c.086 0 .074-.136 0-.185l-.972-.567a.331.331 0 00-.32 0zM80.433 353.584l-1.02.592c-.087 0-.074.135 0 .185l.971.566a.37.37 0 00.32 0l1.021-.591c.086 0 .074-.136 0-.185l-.972-.567a.369.369 0 00-.32 0zM81.873 352.697l-1.021.592c-.086 0-.074.123 0 .185l.972.554a.331.331 0 00.32 0l1.02-.579c.087 0 .074-.136 0-.197l-.971-.555a.331.331 0 00-.32 0zM83.312 351.859l-1.021.592c-.086 0-.074.135 0 .184l.972.567a.37.37 0 00.32 0l1.02-.591c.087 0 .074-.136 0-.185l-.971-.567a.369.369 0 00-.32 0zM84.751 351.034l-1.02.579c-.087 0-.074.135 0 .197l.971.554a.331.331 0 00.32 0l1.021-.579c.086 0 .074-.135 0-.197l-.972-.554a.331.331 0 00-.32 0zM86.19 350.196l-1.02.592c-.087 0-.074.135 0 .184l.971.567a.37.37 0 00.32 0l1.02-.591c.087 0 .075-.136 0-.185l-.97-.567a.369.369 0 00-.32 0zM87.63 349.371l-1.021.579c-.086 0-.074.135 0 .197l.972.554a.331.331 0 00.32 0l1.02-.591c.086 0 .074-.123 0-.185l-.971-.554a.331.331 0 00-.32 0z" fill="#3A2C6D"/><path d="M89.069 348.533l-1.021.591c-.086 0-.074.136 0 .185l.972.567a.368.368 0 00.32 0l1.02-.591c.087 0 .074-.136 0-.185l-.971-.567a.368.368 0 00-.32 0zM71.799 358.512l-2.104 1.232c-.086 0-.073.136 0 .197l.972.555a.331.331 0 00.32 0l2.103-1.232c.086 0 .074-.123 0-.185l-.972-.554a.33.33 0 00-.32-.013zM71.122 357.28l-1.008.591c-.086 0-.074.124 0 .185l.971.567a.397.397 0 00.333 0l1.008-.592c.086 0 .074-.135 0-.184l-.972-.567a.397.397 0 00-.332 0zM72.574 356.455l-1.01.591c-.085 0-.073.136 0 .185l.973.567a.356.356 0 00.332 0l1.008-.592c.087 0 .074-.123 0-.185l-.971-.554a.394.394 0 00-.332-.012zM74 355.629l-1.02.592c-.074 0 0 .123 0 .184l.971.555a.397.397 0 00.332 0l1.01-.592c.085 0 .073-.135 0-.184l-.96-.567a.4.4 0 00-.332.012zM75.44 354.816l-1.022.591c-.073 0 0 .136 0 .185l.972.567a.397.397 0 00.332 0l1.01-.591c.085 0 .073-.124 0-.185l-.96-.567a.444.444 0 00-.333 0zM76.879 353.966l-1.021.591c-.074 0-.062.124 0 .185l.972.555a.396.396 0 00.332 0l1.008-.592c.087 0 .074-.135 0-.185l-.971-.566a.334.334 0 00-.32.012zM78.318 353.128l-1.02.592c-.075 0-.075.135 0 .184l.97.567a.397.397 0 00.333 0l1.009-.591c.086 0 .073-.123 0-.185l-.972-.567a.368.368 0 00-.32 0zM79.757 352.352l-1.021.592c-.074 0-.074.123 0 .184l.972.555a.356.356 0 00.332 0l1.008-.579c.087 0 .074-.136 0-.197l-.971-.555a.331.331 0 00-.32 0zM81.184 351.465l-1.02.592c-.075 0-.075.135 0 .184l.971.567a.37.37 0 00.32 0l1.02-.591c.087 0 .075-.136 0-.185l-.971-.567a.368.368 0 00-.32 0zM82.635 350.64l-1.02.591c-.074 0-.074.123 0 .185l.971.554a.331.331 0 00.32 0l1.021-.579c.086 0 .074-.135 0-.197l-.972-.554a.331.331 0 00-.32 0zM84.075 349.802l-1.021.592c-.074 0-.074.135 0 .184l.972.567a.37.37 0 00.32 0l1.02-.591c.087 0 .074-.136 0-.185l-.971-.567a.369.369 0 00-.32 0zM85.514 348.977l-1.02.579c-.087 0-.075.135 0 .197l.97.554a.331.331 0 00.32 0l1.022-.579c.086 0 .073-.135 0-.197l-.972-.554a.331.331 0 00-.32 0zM88.737 347.116l-2.805 1.614c-.086 0-.074.136 0 .185l.972.567a.368.368 0 00.32 0l2.804-1.627c.086 0 .074-.123 0-.184l-.972-.555a.331.331 0 00-.32 0zM69.683 358.13l-1.39.801c-.074 0-.062.123 0 .185l.972.554a.382.382 0 00.332 0l1.378-.813c.086 0 .073-.123 0-.185l-.972-.554a.359.359 0 00-.32.012zM94.37 350.369L73.94 362.208c-.086 0-.074.136 0 .185l.492.283a.331.331 0 00.32 0l20.431-11.815c.086 0 .074-.135 0-.184l-.492-.284a.362.362 0 00-.32-.024z" fill="#3A2C6D"/><path d="M70.458 350.898l.135.074 3.53 2.045 6.274-3.634.135-.074-3.665-2.119-6.409 3.708z" fill="#BFBFBF"/><path d="M70.593 350.972l3.53 2.045 6.274-3.634-3.53-2.033-6.274 3.622zM60.384 355.666v.308a1.235 1.235 0 00.652 1.121l12.436 7.195c.199.112.423.171.652.173.224-.002.444-.062.64-.173l22.522-13.022a1.288 1.288 0 00.64-1.121v-.259L74.123 363.6l-13.74-7.934z" fill="#E5E5E5"/><path d="M74.48 363.797a1.542 1.542 0 001.317-.098l22.424-12.973a1.499 1.499 0 00.738-1.072l2.46-14.648a1.866 1.866 0 000-.259 1.54 1.54 0 00-.443-1.084l-23.297 13.478a1.226 1.226 0 00-.542.788l-2.656 15.868z" fill="#F4F4F4"/><path d="M74.124 363.6l.147.099.21.099 2.656-15.869a1.237 1.237 0 01.541-.788l23.31-13.478a1.47 1.47 0 00-.32-.234l-23.37 13.552a1.103 1.103 0 00-.542.788L74.124 363.6z" fill="#E5E5E5"/><path d="M57.198 300.867s.283 5.581.16 6.073c-.123.493-2.559 2.132-3.26 2.711-.701.579 3.85 5.088 6.064 6.16s9.238-1.663 9.361-5.125c.123-3.462-1.23-6.357-2.276-6.505-1.045-.148-10.05-3.314-10.05-3.314z" fill="#FFCEA9"/><path d="M56.583 307.902s4.047 6.036 9.68 6.603c1.784-1.762 1.944-8.008-.517-10.004 0 0 2.264-1.823 3.814-1.466a7.969 7.969 0 013.48 4.448 36.554 36.554 0 011.993 12.911c-.086 5.914 0 20.882 0 20.882a12.741 12.741 0 01-5.954 8.612 18.421 18.421 0 01-13.382 1.848c-2.854-.665-3.924-2.267-4.92-4.349.258-4.139 1.894-12.677 1.23-17.901-.664-5.223-1.784-9.104-2.08-13.33-.294-4.226.567-4.127 2.67-5.63a33.65 33.65 0 013.986-2.624z" fill="#F4F4F4"/><path d="M63.053 355.974a27.863 27.863 0 00-3.162-1.811 6.555 6.555 0 01-2.706-1.65c-.996-.974-2.62-4.645-3.776-8.23a36.87 36.87 0 01-1.365-12.456c.492-5.026 2.3-12.061 2.755-14.956.455-2.895-.467-4.053-1.808-5.113-1.587-1.232-3.764-.702-4.92 3.351a78.12 78.12 0 00-2.559 17.174 39.256 39.256 0 001.919 12.677 46.288 46.288 0 004.834 9.967c.554.937.738 1.762 1.575 3.696a12.914 12.914 0 003.69 4.928c1.414 1.023 2.09 1.232 2.46.974.369-.259.332-.703-.259-1.232a10.523 10.523 0 01-2.533-2.834s1.23 1.232 2.054 1.922a10.828 10.828 0 002.361 1.515c.837.37 1.98-.332 1.39-.899-.59-.567-1.23-.826-2.361-1.86a10.076 10.076 0 01-1.685-1.824 18.891 18.891 0 002.607 1.663 4.406 4.406 0 002.387.653c.443 0 .971-.628.147-1.232a16.302 16.302 0 01-3.124-2.143c-.91-.9-1.427-1.664-1.23-1.676.197-.012.75.542 1.808.875 1.058.333 2.202 0 2.337-.542.135-.542.16-.444-.836-.937zM69.806 292.551c-.664-4.337-3.789-7.614-8.241-7.392a8.602 8.602 0 00-4.872 1.909 8.636 8.636 0 00.505 13.774c.154.654.385 1.287.689 1.885 1.574 1.848 6.347 2.994 7.712 2.797a4.083 4.083 0 003.555-2.908c1.476-3.375.96-7.921.652-10.065z" fill="#FFCEA9"/><path d="M57.198 300.867l.406-3.782s-3.075-7.996 4.207-6.456c4.797 1.01 6.002 1.454 7.466-1.774 1.464-3.228-3.69-6.16-9.84-5.335a8.468 8.468 0 00-5.467 2.834 8.494 8.494 0 00-2.11 5.79c.184 2.366.811 7.232 5.338 8.723z" fill="#3A2C6D"/><path d="M44.737 322.55s3.973 3.955 8.672 2.821c.677-.455 2.288-9.708 2.288-9.708s0-5.137-3.924-5.002c-3.924.136-7.036 11.889-7.036 11.889zM74.739 314.875a4.378 4.378 0 002.94-1.319c-.16-2.069-2.805-9.942-8.131-10.521a9.778 9.778 0 013.321 4.016 51.97 51.97 0 011.87 7.824z" fill="#EDEDED"/></g><defs><clipPath id="clip0_17_2185"><path fill="#fff" d="M0 0h566v616H0z"/></clipPath></defs></svg>