<svg width="844" height="838" fill="none" xmlns="http://www.w3.org/2000/svg"><path d="M436.724 746.623c198.082 0 358.655-160.577 358.655-358.66 0-198.082-160.573-358.66-358.655-358.66-198.082 0-358.66 160.578-358.66 358.66 0 198.083 160.578 358.66 358.66 358.66z" stroke="#D1E8F7" stroke-width="1.916" stroke-miterlimit="10"/><path d="M144.948 190.002c6.977 0 12.633-5.656 12.633-12.633 0-6.977-5.656-12.632-12.633-12.632-6.976 0-12.632 5.655-12.632 12.632 0 6.977 5.656 12.633 12.632 12.633z" fill="#FEBB94"/><path d="M795.38 414.255c6.98 0 12.64-5.655 12.64-12.632 0-6.977-5.66-12.633-12.64-12.633-6.97 0-12.63 5.656-12.63 12.633 0 6.977 5.66 12.632 12.63 12.632z" fill="#5661AE"/><path d="M451.436 759.255c6.976 0 12.632-5.656 12.632-12.632 0-6.977-5.656-12.633-12.632-12.633-6.977 0-12.633 5.656-12.633 12.633 0 6.976 5.656 12.632 12.633 12.632z" fill="#1C85E8"/><path d="M445.033 657.876c147.764 0 267.55-119.786 267.55-267.55 0-147.765-119.786-267.551-267.55-267.551-147.765 0-267.551 119.786-267.551 267.551 0 147.764 119.786 267.55 267.551 267.55z" stroke="#D1E8F7" stroke-width="1.43" stroke-miterlimit="10"/><path d="M707.998 453.643a9.423 9.423 0 009.423-9.423 9.424 9.424 0 10-9.423 9.423z" fill="#FEBB94"/><path d="M196.886 500.296a9.424 9.424 0 100-18.847 9.424 9.424 0 000 18.847z" fill="#5661AE"/><path d="M325.189 160.289a9.424 9.424 0 100-18.847 9.424 9.424 0 000 18.847z" fill="#1C85E8"/><path d="M584.285 686.603H275.306c-13.405 0-23.227-10.867-21.938-24.272l52.745-548.695c1.288-13.405 13.199-24.272 26.604-24.272h308.979c13.405 0 23.227 10.867 21.938 24.272l-52.745 548.695c-1.288 13.405-13.2 24.272-26.604 24.272z" fill="#1C85E8"/><path d="M562.507 686.603H253.528c-13.404 0-23.226-10.867-21.938-24.272l52.745-548.695c1.289-13.405 13.2-24.272 26.605-24.272h308.979c13.404 0 23.226 10.867 21.938 24.272l-52.745 548.695c-1.289 13.405-13.2 24.272-26.605 24.272z" fill="url(#paint0_linear_99_2)"/><path d="M550.799 668.362H268.746c-12.423 0-21.526-10.069-20.332-22.492l49.58-515.772c1.195-12.423 12.233-22.493 24.656-22.493h282.053c12.423 0 21.526 10.07 20.332 22.493l-49.58 515.772c-1.195 12.423-12.233 22.492-24.656 22.492z" fill="#fff"/><path d="M573.418 342.237l-302.571-.269a8.69 8.69 0 01-8.881-9.579l16.312-181.129a10.77 10.77 0 0110.604-9.562l302.571.269a8.696 8.696 0 018.881 9.579l-16.312 181.13a10.77 10.77 0 01-10.604 9.561z" fill="url(#paint1_linear_99_2)"/><path d="M563.891 537.406H436.006a6.594 6.594 0 01-6.412-4.597 6.584 6.584 0 01-.261-2.785l15.528-161.536a8.305 8.305 0 018.092-7.382h127.886a6.587 6.587 0 016.672 7.382l-15.528 161.536a8.305 8.305 0 01-8.092 7.382z" fill="url(#paint2_linear_99_2)"/><path d="M533.403 448.294c14.423-13.745 15.992-35.509 3.506-48.609-12.487-13.101-34.3-12.578-48.722 1.167-14.422 13.746-15.992 35.509-3.505 48.61 12.486 13.101 34.299 12.578 48.721-1.168z" stroke="#EF6A77" stroke-width="11.69" stroke-miterlimit="10"/><path d="M494.583 456.348c-11.964-5.166-19.547-17.447-18.17-31.775 1.825-18.989 18.698-34.382 37.687-34.382" stroke="#fff" stroke-width="11.69" stroke-miterlimit="10" stroke-linecap="round"/><path d="M491.744 485.904h26.31M488.879 515.701h26.311" stroke="#fff" stroke-width="5.984" stroke-miterlimit="10" stroke-linecap="round"/><path opacity=".4" d="M476.297 500.634h54.374" stroke="#fff" stroke-width="5.984" stroke-miterlimit="10" stroke-linecap="round"/><path d="M407.494 537.406H279.609a6.594 6.594 0 01-6.412-4.597 6.584 6.584 0 01-.261-2.785l15.528-161.536a8.305 8.305 0 018.092-7.382h127.886a6.587 6.587 0 016.672 7.382l-15.528 161.536a8.305 8.305 0 01-8.092 7.382z" fill="#FEBB94"/><path d="M377.007 448.294c14.422-13.745 15.991-35.509 3.505-48.609-12.486-13.101-34.3-12.578-48.722 1.167-14.422 13.746-15.991 35.509-3.505 48.61 12.486 13.101 34.3 12.578 48.722-1.168z" stroke="#EF6A77" stroke-width="11.69" stroke-miterlimit="10"/><path d="M388.78 424.573c-1.825 18.989-18.698 34.382-37.687 34.382-18.989 0-32.903-15.393-31.077-34.382 1.825-18.989 18.698-34.382 37.687-34.382" stroke="#fff" stroke-width="11.69" stroke-miterlimit="10" stroke-linecap="round"/><path d="M335.348 485.904h26.31M332.482 515.701h26.311" stroke="#fff" stroke-width="5.984" stroke-miterlimit="10" stroke-linecap="round"/><path opacity=".4" d="M319.9 500.634h54.374" stroke="#fff" stroke-width="5.984" stroke-miterlimit="10" stroke-linecap="round"/><path d="M553.171 652.944H268.117a6.247 6.247 0 01-6.324-6.997l8.507-88.486a7.873 7.873 0 017.669-6.997h285.053a6.239 6.239 0 014.757 2.057 6.26 6.26 0 011.32 2.299c.27.853.354 1.753.247 2.641l-8.506 88.486a7.875 7.875 0 01-7.669 6.997z" fill="url(#paint3_linear_99_2)"/><path d="M287.969 632.427l4.021-41.832M317.473 603.123l-2.817 29.304M343.199 613.131l-1.855 19.296M373.097 579.724l-5.066 52.703M396.576 613.131l-1.855 19.296M426.251 582.052l-4.843 50.375M450.107 611.511l-2.011 20.916M475.854 621.285l-1.071 11.142M505.494 590.595l-4.021 41.832M533.712 574.667l-5.552 57.76" stroke="#fff" stroke-width="11.69" stroke-miterlimit="10" stroke-linecap="round"/><path d="M295.354 314.462l16.02 25.095a5.095 5.095 0 01-1.518 7.012l-2.589 1.682a21.332 21.332 0 01-27.815-4l-21.259-24.791 37.161-4.998z" fill="#FFCCB3"/><path d="M283.131 324.119s5.932 20.368 17.849 26.902a52.104 52.104 0 008.877-4.452l-13.363-22.45" fill="#FCBA9F"/><path d="M9.064 415.715L71.99 385.56a35.148 35.148 0 0014.47-12.837l60.787-95.624a35.138 35.138 0 0115.752-13.421l87.553-37.72-18.744 141.749-.33 5.236s-23.157 59.976-79.915 81.765l-90.744 55.503-51.755-94.496z" fill="#FFCCB3"/><path d="M77.542 382.233s29.766 74.296 74.02 72.475l-28.255 17.282s-95.903-17.79-60.004-82.415l14.24-7.342zM237 252.191s-30.956 18.758-29.314 62.271l37.175-13.892L237 252.191z" fill="#FCBA9F"/><path d="M314.763 314.462l16.021 25.095a5.095 5.095 0 01-1.518 7.012l-2.589 1.682a21.332 21.332 0 01-27.815-4l-21.258-24.791 37.159-4.998z" fill="#FFCCB3"/><path d="M551.596 324.358l-302.571-.269a8.697 8.697 0 01-8.479-5.934 8.683 8.683 0 01-.402-3.645l16.312-181.13a10.77 10.77 0 0110.605-9.562l302.57.27a8.69 8.69 0 018.882 9.578l-16.312 181.13a10.775 10.775 0 01-10.605 9.562z" fill="#1C85E8"/><path d="M269.059 231.275s27.16-5.493 34.47 7.252c7.309 12.744 13.612 36.678 33.06 33.593 19.448-3.086 34.335-65.66 53.454-65.089 19.12.571 12.379 41.553 33.19 42.125 20.81.572 17.109-22.892 30.979-22.238 16.825.793 10.553 49.413 32.491 49.986 21.938.573 25.518-64.222 58.682-63.085" stroke="#fff" stroke-width="7.565" stroke-miterlimit="10" stroke-linecap="round"/><path d="M284.506 154.154l53.233.047" stroke="#fff" stroke-width="11.999" stroke-miterlimit="10" stroke-linecap="round"/><path opacity=".4" d="M282.309 178.556l110.01.098" stroke="#fff" stroke-width="11.999" stroke-miterlimit="10" stroke-linecap="round"/><path d="M179.307 323.46l38.814-17.097 39.693-27.095c10.439-7.125 32.239-10.335 40.087-.429 7.983 10.076-.984 30.008-10.666 38.463l-36.683 32.033-19.075 23.608-52.17-49.483z" fill="#FFCCB3"/><path d="M258.193 289.557s5.24 20.206 18.826 23.702l14.41-12.174a13.425 13.425 0 005.309-9.169 13.414 13.414 0 00-20.109-13.163l-18.436 10.804z" stroke="#FF967C" stroke-width="3" stroke-linecap="round"/><path d="M74.38 383.062s-7.522 53.795 57.936 84.598c0 0-47.022 43.134-65.151 50.387-18.128 7.252-86.241-66.864-62.015-108.932 6.794-11.797 69.23-26.053 69.23-26.053z" fill="#1C85E8"/><path d="M322.402 326.425s-25.513.52-34.394 5.168l-6.41-7.475 39.332.001 1.472 2.306z" fill="#FCBA9F"/><path d="M792.161 324.358H610.756c-13.665 0-23.762-11.078-22.552-24.743l24.339-274.873C613.753 11.078 625.811 0 639.476 0h181.405c13.67 0 23.76 11.078 22.55 24.742l-24.34 274.873c-1.21 13.665-13.27 24.743-26.93 24.743z" fill="#FEBB94"/><path d="M766.189 155.209c28.73-27.481 31.62-71.072 6.47-97.363C747.506 31.555 703.83 32.519 675.105 60c-28.724 27.48-31.62 71.072-6.467 97.363 25.153 26.292 68.83 25.327 97.551-2.154z" fill="#fff"/><path d="M724.492 109.744l45.537 41.532s10.36-11.135 13.45-19.093l-58.987-22.439z" fill="url(#paint4_linear_99_2)"/><path d="M727.524 29.963l-6.471 73.077a6.86 6.86 0 003.439 6.704l61.787 34.398s36.69-102.36-58.755-114.18z" fill="#1C85E8"/><path d="M630.814 227.069h75.152M625.312 289.201h75.153" stroke="#fff" stroke-width="12" stroke-miterlimit="10" stroke-linecap="round"/><path opacity=".4" d="M628.096 257.784h155.305" stroke="#fff" stroke-width="12" stroke-miterlimit="10" stroke-linecap="round"/><path d="M569.066 526.855s24.225-6.461 37.118 7.422c0 0 23.174-4.208 32.596 8.684 0 0 20.545 1.19 26.495 9.57a28.267 28.267 0 0122.392 17.526c5.618 13.241.853 89.792-4.731 117.223a38.96 38.96 0 001.385 20.583l14.204 40.819-98.277 41.083-23.332-60.856s-28.401-45.641-32.459-53.756c-4.057-8.114 2.82-75.447-11.031-117.51l35.64-30.788z" fill="#FFCCB3"/><path d="M589.591 761.971l-2.835-7.395s50.995-3.26 97.564-46.713l4.454 12.8s-5.752 26.44-31.94 38.901c-26.189 12.462-67.243 2.407-67.243 2.407z" fill="#FCBA9F"/><path d="M589.592 761.971s61.727 5.622 99.183-41.308c0 0 13.829 7.25 35.064 60.331 6.522 16.304-102.387 74.351-119.996 50.222 0 0-15.202-32.157-14.251-69.245z" fill="#5661AE"/><path d="M539.466 583.035s-2.129 11.296-12.196 11.297c-6.568 0-35.037-8.601-54.039-14.581a26.462 26.462 0 00-28.908 9.097l-1.155 1.5a6.93 6.93 0 00-1.365 5.289 6.935 6.935 0 002.886 4.638c16.087 11.231 59.528 41.713 65.084 47.269 6.838 6.837 44.913 45.169 44.913 45.169l-15.22-109.678z" fill="#FFCCB3"/><path d="M537.154 571.717s20.577 27.852 17.531 33.949c-3.046 6.097-34.953-12.544-34.953-12.544s25.747 6.623 17.422-21.405z" fill="#FCBA9F"/><path d="M533.425 557.643L498.8 452.495a28.376 28.376 0 011.816-22.032 28.367 28.367 0 0117.078-14.037 12.74 12.74 0 0115.292 7.133l48.575 111.659-48.136 22.425z" fill="#FFCCB3"/><path d="M518.41 512.045a13.694 13.694 0 008.975 6.302M530.868 458.217c4.213-1.867 8.86-4.476 10.859-7.521l-12.893-30.613a5.04 5.04 0 00-5.139-3.074 5.047 5.047 0 00-2.021.643c-4.588 2.648-10.644 7.426-10.879 14.286l8.72 21.7a8.505 8.505 0 008.041 5.318 8.505 8.505 0 003.312-.739zM577.654 526.236l11.937 26.295M606.66 534.815a51.797 51.797 0 019.314 29.649M639.35 543.453s6.009 13.781 6.505 24.679M666.115 553.349a38.725 38.725 0 012.674 18.368M470.113 613.131s7.11-9.03 4.671-13.559-13.288-10.934-19.558-10.237a25.3 25.3 0 00-8.523 2.904 3.118 3.118 0 00-1.331 4.171c.247.484.615.895 1.069 1.192l23.672 15.529z" stroke="#FF967C" stroke-width="3" stroke-linecap="round"/><path d="M347.842 723.234H131.227a6.255 6.255 0 01-4.757-2.057 6.235 6.235 0 01-1.567-4.94l8.506-88.487a7.87 7.87 0 017.669-6.996h216.616a6.242 6.242 0 016.324 6.996l-8.506 88.487a7.876 7.876 0 01-7.67 6.997z" fill="#FEBB94"/><path d="M151.562 643.83h133.683" stroke="#EF6A77" stroke-width="11.69" stroke-miterlimit="10" stroke-linecap="round"/><path d="M151.562 643.83h92.898" stroke="#fff" stroke-width="11.69" stroke-miterlimit="10" stroke-linecap="round"/><path d="M149.562 671.994h133.683" stroke="#EF6A77" stroke-width="11.69" stroke-miterlimit="10" stroke-linecap="round"/><path d="M149.562 671.994h55.541" stroke="#fff" stroke-width="11.69" stroke-miterlimit="10" stroke-linecap="round"/><path d="M145.191 700.158h133.683" stroke="#EF6A77" stroke-width="11.69" stroke-miterlimit="10" stroke-linecap="round"/><path d="M145.191 700.158h33.965" stroke="#fff" stroke-width="11.69" stroke-miterlimit="10" stroke-linecap="round"/><path d="M332.567 651.817a7.987 7.987 0 100-15.975 7.987 7.987 0 000 15.975zM329.976 678.749a7.987 7.987 0 100-15.975 7.988 7.988 0 100 15.975zM327.086 708.146a7.989 7.989 0 10-.002-15.978 7.989 7.989 0 00.002 15.978z" fill="#fff"/><defs><linearGradient id="paint0_linear_99_2" x1="389.202" y1="-100.663" x2="673.039" y2="1321.72" gradientUnits="userSpaceOnUse"><stop stop-color="#fff"/><stop offset="1" stop-color="#94B9FF"/></linearGradient><linearGradient id="paint1_linear_99_2" x1="422.724" y1="141.221" x2="450.245" y2="569.637" gradientUnits="userSpaceOnUse"><stop stop-color="#fff"/><stop offset="1" stop-color="#94B9FF"/></linearGradient><linearGradient id="paint2_linear_99_2" x1="504.482" y1="360.685" x2="549.499" y2="733.442" gradientUnits="userSpaceOnUse"><stop stop-color="#fff"/><stop offset="1" stop-color="#94B9FF"/></linearGradient><linearGradient id="paint3_linear_99_2" x1="407.911" y1="550.219" x2="415.84" y2="769.771" gradientUnits="userSpaceOnUse"><stop stop-color="#fff"/><stop offset="1" stop-color="#94B9FF"/></linearGradient><linearGradient id="paint4_linear_99_2" x1="752.515" y1="109.645" x2="759.279" y2="198.221" gradientUnits="userSpaceOnUse"><stop stop-color="#fff"/><stop offset="1" stop-color="#94B9FF"/></linearGradient></defs></svg>